<svg width="176" height="56" viewBox="0 0 176 56" fill="none" xmlns="http://www.w3.org/2000/svg">
<g clip-path="url(#clip0_81_40)">
<mask id="path-1-outside-1_81_40" maskUnits="userSpaceOnUse" x="1" y="5" width="71" height="39" fill="black">
<rect fill="white" x="1" y="5" width="71" height="39"/>
<path d="M2.912 43C2.392 43 2.08 42.688 2.08 42.064V7.328C2.08 6.86 2.34 6.6 2.808 6.6H12.428C18.98 6.6 20.28 10.812 20.28 14.66V16.116C20.28 19.548 18.876 21.628 16.016 22.772C19.708 23.448 21.216 26.776 21.216 31.092V33.432C21.216 38.008 19.708 43 12.428 43H2.912ZM11.492 37.28C13.104 37.28 13.676 36.136 13.676 33.952V29.896C13.676 27.712 13.104 26.516 11.492 26.516H9.62V37.28H11.492ZM11.492 21.16C13.104 21.16 13.676 20.224 13.676 18.56V14.868C13.676 13.204 13.104 12.32 11.492 12.32H9.62V21.16H11.492ZM25.1058 43C24.5338 43 24.2738 42.636 24.2738 41.96V7.64C24.2738 6.964 24.5338 6.6 25.1058 6.6H30.9818C31.5018 6.6 31.8138 6.964 31.8138 7.64V41.96C31.8138 42.636 31.5018 43 30.9818 43H25.1058ZM40.4182 43C39.8982 43 39.5862 42.636 39.5862 41.96V13.36H35.3222C34.8022 13.36 34.4902 12.996 34.4902 12.32V7.64C34.4902 6.964 34.8022 6.6 35.3222 6.6H51.3382C51.8582 6.6 52.1702 6.964 52.1702 7.64V12.32C52.1702 12.996 51.8582 13.36 51.3382 13.36H47.1262V41.96C47.1262 42.636 46.8142 43 46.2942 43H40.4182ZM55.7245 43C55.2045 43 54.8925 42.636 54.8925 41.96V7.64C54.8925 6.964 55.2045 6.6 55.7245 6.6H69.9205C70.4405 6.6 70.7525 6.964 70.7525 7.64V12.32C70.7525 12.996 70.4405 13.36 69.9205 13.36H62.4325V20.64H68.3085C68.8285 20.64 69.1405 21.004 69.1405 21.68V26.256C69.1405 26.932 68.8285 27.296 68.3085 27.296H62.4325V36.24H69.9205C70.4405 36.24 70.7525 36.604 70.7525 37.28V41.96C70.7525 42.636 70.4405 43 69.9205 43H55.7245Z"/>
</mask>
<path d="M2.912 43C2.392 43 2.08 42.688 2.08 42.064V7.328C2.08 6.86 2.34 6.6 2.808 6.6H12.428C18.98 6.6 20.28 10.812 20.28 14.66V16.116C20.28 19.548 18.876 21.628 16.016 22.772C19.708 23.448 21.216 26.776 21.216 31.092V33.432C21.216 38.008 19.708 43 12.428 43H2.912ZM11.492 37.28C13.104 37.28 13.676 36.136 13.676 33.952V29.896C13.676 27.712 13.104 26.516 11.492 26.516H9.62V37.28H11.492ZM11.492 21.16C13.104 21.16 13.676 20.224 13.676 18.56V14.868C13.676 13.204 13.104 12.32 11.492 12.32H9.62V21.16H11.492ZM25.1058 43C24.5338 43 24.2738 42.636 24.2738 41.96V7.64C24.2738 6.964 24.5338 6.6 25.1058 6.6H30.9818C31.5018 6.6 31.8138 6.964 31.8138 7.64V41.96C31.8138 42.636 31.5018 43 30.9818 43H25.1058ZM40.4182 43C39.8982 43 39.5862 42.636 39.5862 41.96V13.36H35.3222C34.8022 13.36 34.4902 12.996 34.4902 12.32V7.64C34.4902 6.964 34.8022 6.6 35.3222 6.6H51.3382C51.8582 6.6 52.1702 6.964 52.1702 7.64V12.32C52.1702 12.996 51.8582 13.36 51.3382 13.36H47.1262V41.96C47.1262 42.636 46.8142 43 46.2942 43H40.4182ZM55.7245 43C55.2045 43 54.8925 42.636 54.8925 41.96V7.64C54.8925 6.964 55.2045 6.6 55.7245 6.6H69.9205C70.4405 6.6 70.7525 6.964 70.7525 7.64V12.32C70.7525 12.996 70.4405 13.36 69.9205 13.36H62.4325V20.64H68.3085C68.8285 20.64 69.1405 21.004 69.1405 21.68V26.256C69.1405 26.932 68.8285 27.296 68.3085 27.296H62.4325V36.24H69.9205C70.4405 36.24 70.7525 36.604 70.7525 37.28V41.96C70.7525 42.636 70.4405 43 69.9205 43H55.7245Z" fill="#FED97C"/>
<path d="M16.016 22.772L15.6446 21.8435L12.4254 23.1312L15.8359 23.7556L16.016 22.772ZM9.62 26.516V25.516H8.62V26.516H9.62ZM9.62 37.28H8.62V38.28H9.62V37.28ZM9.62 12.32V11.32H8.62V12.32H9.62ZM9.62 21.16H8.62V22.16H9.62V21.16ZM2.912 42C2.88062 42 2.8876 41.9952 2.91862 42.007C2.95357 42.0203 2.99875 42.0473 3.03815 42.0903C3.11916 42.1786 3.08 42.2211 3.08 42.064H1.08C1.08 42.5309 1.19684 43.0414 1.56385 43.4417C1.94304 43.8554 2.44936 44 2.912 44V42ZM3.08 42.064V7.328H1.08V42.064H3.08ZM3.08 7.328C3.08 7.2749 3.09186 7.37935 2.97561 7.4956C2.85936 7.61186 2.7549 7.6 2.808 7.6V5.6C2.3931 5.6 1.92464 5.71814 1.56139 6.08139C1.19814 6.44464 1.08 6.91309 1.08 7.328H3.08ZM2.808 7.6H12.428V5.6H2.808V7.6ZM12.428 7.6C15.4727 7.6 17.0995 8.5647 18.0094 9.78482C18.9623 11.0626 19.28 12.8165 19.28 14.66H21.28C21.28 12.6555 20.9477 10.3794 19.6126 8.58917C18.2346 6.7413 15.9353 5.6 12.428 5.6V7.6ZM19.28 14.66V16.116H21.28V14.66H19.28ZM19.28 16.116C19.28 17.6974 18.9571 18.8708 18.3816 19.7577C17.8097 20.6392 16.9287 21.3299 15.6446 21.8435L16.3874 23.7005C17.9633 23.0701 19.2143 22.1488 20.0594 20.8463C20.9009 19.5492 21.28 17.9666 21.28 16.116H19.28ZM15.8359 23.7556C17.3812 24.0386 18.4359 24.854 19.1339 26.0661C19.8537 27.3158 20.216 29.0333 20.216 31.092H22.216C22.216 28.8347 21.8244 26.7302 20.8671 25.0679C19.8881 23.368 18.3428 22.1814 16.1961 21.7884L15.8359 23.7556ZM20.216 31.092V33.432H22.216V31.092H20.216ZM20.216 33.432C20.216 35.6428 19.8454 37.7851 18.7355 39.3546C17.6725 40.8579 15.8122 42 12.428 42V44C16.3238 44 18.8575 42.6461 20.3685 40.5094C21.8326 38.4389 22.216 35.7972 22.216 33.432H20.216ZM12.428 42H2.912V44H12.428V42ZM11.492 38.28C12.5783 38.28 13.4808 37.8668 14.0398 36.9596C14.5356 36.1552 14.676 35.0882 14.676 33.952H12.676C12.676 34.9998 12.5304 35.5968 12.3372 35.9104C12.2072 36.1212 12.0177 36.28 11.492 36.28V38.28ZM14.676 33.952V29.896H12.676V33.952H14.676ZM14.676 29.896C14.676 28.7581 14.5349 27.6842 14.0451 26.8711C13.4941 25.9561 12.5959 25.516 11.492 25.516V27.516C12.0001 27.516 12.1939 27.6739 12.3319 27.9029C12.5311 28.2338 12.676 28.8499 12.676 29.896H14.676ZM11.492 25.516H9.62V27.516H11.492V25.516ZM8.62 26.516V37.28H10.62V26.516H8.62ZM9.62 38.28H11.492V36.28H9.62V38.28ZM11.492 22.16C12.4969 22.16 13.3849 21.8587 13.9772 21.0987C14.5269 20.3936 14.676 19.47 14.676 18.56H12.676C12.676 19.314 12.5391 19.6904 12.3998 19.8693C12.3031 19.9933 12.0991 20.16 11.492 20.16V22.16ZM14.676 18.56V14.868H12.676V18.56H14.676ZM14.676 14.868C14.676 13.9596 14.5276 13.0404 13.9682 12.3439C13.3687 11.5973 12.4789 11.32 11.492 11.32V13.32C12.1171 13.32 12.3193 13.4847 12.4088 13.5961C12.5384 13.7576 12.676 14.1124 12.676 14.868H14.676ZM11.492 11.32H9.62V13.32H11.492V11.32ZM8.62 12.32V21.16H10.62V12.32H8.62ZM9.62 22.16H11.492V20.16H9.62V22.16ZM25.1058 42C25.0673 42 25.0824 41.9938 25.1267 42.0127C25.1492 42.0222 25.175 42.0366 25.201 42.0566C25.2271 42.0767 25.2484 42.0986 25.2647 42.1196C25.2971 42.1612 25.2984 42.184 25.2917 42.158C25.2846 42.1304 25.2738 42.0683 25.2738 41.96H23.2738C23.2738 42.3978 23.3531 42.9194 23.686 43.3474C24.0567 43.824 24.5923 44 25.1058 44V42ZM25.2738 41.96V7.64H23.2738V41.96H25.2738ZM25.2738 7.64C25.2738 7.53174 25.2846 7.46964 25.2917 7.442C25.2984 7.41595 25.2971 7.43876 25.2647 7.48044C25.2484 7.50138 25.2271 7.5233 25.201 7.54337C25.175 7.56343 25.1492 7.57775 25.1267 7.58732C25.0824 7.60623 25.0673 7.6 25.1058 7.6V5.6C24.5923 5.6 24.0567 5.77596 23.686 6.25256C23.3531 6.68057 23.2738 7.20223 23.2738 7.64H25.2738ZM25.1058 7.6H30.9818V5.6H25.1058V7.6ZM30.9818 7.6C30.995 7.6 30.9728 7.60208 30.9312 7.58393C30.8865 7.56445 30.846 7.53299 30.8176 7.49817C30.7915 7.46615 30.7904 7.44949 30.7964 7.47022C30.8028 7.49233 30.8138 7.54582 30.8138 7.64H32.8138C32.8138 7.16426 32.7057 6.6492 32.3681 6.23483C32.0064 5.79091 31.4937 5.6 30.9818 5.6V7.6ZM30.8138 7.64V41.96H32.8138V7.64H30.8138ZM30.8138 41.96C30.8138 42.0542 30.8028 42.1077 30.7964 42.1298C30.7904 42.1505 30.7915 42.1339 30.8176 42.1018C30.846 42.067 30.8865 42.0356 30.9312 42.0161C30.9728 41.9979 30.995 42 30.9818 42V44C31.4937 44 32.0064 43.8091 32.3681 43.3652C32.7057 42.9508 32.8138 42.4357 32.8138 41.96H30.8138ZM30.9818 42H25.1058V44H30.9818V42ZM39.5862 13.36H40.5862V12.36H39.5862V13.36ZM47.1262 13.36V12.36H46.1262V13.36H47.1262ZM40.4182 42C40.4051 42 40.4273 41.9979 40.4689 42.0161C40.5135 42.0356 40.5541 42.067 40.5825 42.1018C40.6085 42.1339 40.6097 42.1505 40.6037 42.1298C40.5973 42.1077 40.5862 42.0542 40.5862 41.96H38.5862C38.5862 42.4357 38.6943 42.9508 39.032 43.3652C39.3937 43.8091 39.9063 44 40.4182 44V42ZM40.5862 41.96V13.36H38.5862V41.96H40.5862ZM39.5862 12.36H35.3222V14.36H39.5862V12.36ZM35.3222 12.36C35.3091 12.36 35.3313 12.3579 35.3729 12.3761C35.4175 12.3955 35.4581 12.427 35.4865 12.4618C35.5125 12.4938 35.5137 12.5105 35.5077 12.4898C35.5013 12.4677 35.4902 12.4142 35.4902 12.32H33.4902C33.4902 12.7957 33.5983 13.3108 33.936 13.7252C34.2977 14.1691 34.8103 14.36 35.3222 14.36V12.36ZM35.4902 12.32V7.64H33.4902V12.32H35.4902ZM35.4902 7.64C35.4902 7.54582 35.5013 7.49233 35.5077 7.47022C35.5137 7.44949 35.5125 7.46615 35.4865 7.49817C35.4581 7.53299 35.4175 7.56445 35.3729 7.58393C35.3313 7.60208 35.3091 7.6 35.3222 7.6V5.6C34.8103 5.6 34.2977 5.79091 33.936 6.23483C33.5983 6.6492 33.4902 7.16426 33.4902 7.64H35.4902ZM35.3222 7.6H51.3382V5.6H35.3222V7.6ZM51.3382 7.6C51.3514 7.6 51.3291 7.60208 51.2875 7.58393C51.2429 7.56445 51.2024 7.53299 51.174 7.49817C51.1479 7.46615 51.1467 7.44949 51.1527 7.47022C51.1591 7.49233 51.1702 7.54582 51.1702 7.64H53.1702C53.1702 7.16426 53.0621 6.6492 52.7245 6.23483C52.3627 5.79091 51.8501 5.6 51.3382 5.6V7.6ZM51.1702 7.64V12.32H53.1702V7.64H51.1702ZM51.1702 12.32C51.1702 12.4142 51.1591 12.4677 51.1527 12.4898C51.1467 12.5105 51.1479 12.4938 51.174 12.4618C51.2024 12.427 51.2429 12.3955 51.2875 12.3761C51.3291 12.3579 51.3514 12.36 51.3382 12.36V14.36C51.8501 14.36 52.3627 14.1691 52.7245 13.7252C53.0621 13.3108 53.1702 12.7957 53.1702 12.32H51.1702ZM51.3382 12.36H47.1262V14.36H51.3382V12.36ZM46.1262 13.36V41.96H48.1262V13.36H46.1262ZM46.1262 41.96C46.1262 42.0542 46.1151 42.1077 46.1087 42.1298C46.1027 42.1505 46.1039 42.1339 46.13 42.1018C46.1584 42.067 46.1989 42.0356 46.2435 42.0161C46.2851 41.9979 46.3074 42 46.2942 42V44C46.8061 44 47.3187 43.8091 47.6805 43.3652C48.0181 42.9508 48.1262 42.4357 48.1262 41.96H46.1262ZM46.2942 42H40.4182V44H46.2942V42ZM62.4325 13.36V12.36H61.4325V13.36H62.4325ZM62.4325 20.64H61.4325V21.64H62.4325V20.64ZM62.4325 27.296V26.296H61.4325V27.296H62.4325ZM62.4325 36.24H61.4325V37.24H62.4325V36.24ZM55.7245 42C55.7114 42 55.7336 41.9979 55.7752 42.0161C55.8198 42.0356 55.8604 42.067 55.8887 42.1018C55.9148 42.1339 55.916 42.1505 55.91 42.1298C55.9036 42.1077 55.8925 42.0542 55.8925 41.96H53.8925C53.8925 42.4357 54.0006 42.9508 54.3383 43.3652C54.7 43.8091 55.2126 44 55.7245 44V42ZM55.8925 41.96V7.64H53.8925V41.96H55.8925ZM55.8925 7.64C55.8925 7.54582 55.9036 7.49233 55.91 7.47022C55.916 7.44949 55.9148 7.46615 55.8887 7.49817C55.8604 7.53299 55.8198 7.56445 55.7752 7.58393C55.7336 7.60208 55.7114 7.6 55.7245 7.6V5.6C55.2126 5.6 54.7 5.79091 54.3383 6.23483C54.0006 6.6492 53.8925 7.16426 53.8925 7.64H55.8925ZM55.7245 7.6H69.9205V5.6H55.7245V7.6ZM69.9205 7.6C69.9336 7.6 69.9114 7.60208 69.8698 7.58393C69.8252 7.56445 69.7846 7.53299 69.7563 7.49817C69.7302 7.46615 69.729 7.44949 69.735 7.47022C69.7414 7.49233 69.7525 7.54582 69.7525 7.64H71.7525C71.7525 7.16426 71.6444 6.6492 71.3067 6.23483C70.945 5.79091 70.4324 5.6 69.9205 5.6V7.6ZM69.7525 7.64V12.32H71.7525V7.64H69.7525ZM69.7525 12.32C69.7525 12.4142 69.7414 12.4677 69.735 12.4898C69.729 12.5105 69.7302 12.4938 69.7563 12.4618C69.7846 12.427 69.8252 12.3955 69.8698 12.3761C69.9114 12.3579 69.9336 12.36 69.9205 12.36V14.36C70.4324 14.36 70.945 14.1691 71.3067 13.7252C71.6444 13.3108 71.7525 12.7957 71.7525 12.32H69.7525ZM69.9205 12.36H62.4325V14.36H69.9205V12.36ZM61.4325 13.36V20.64H63.4325V13.36H61.4325ZM62.4325 21.64H68.3085V19.64H62.4325V21.64ZM68.3085 21.64C68.3216 21.64 68.2994 21.6421 68.2578 21.6239C68.2132 21.6044 68.1726 21.573 68.1443 21.5382C68.1182 21.5061 68.117 21.4895 68.123 21.5102C68.1294 21.5323 68.1405 21.5858 68.1405 21.68H70.1405C70.1405 21.2043 70.0324 20.6892 69.6947 20.2748C69.333 19.8309 68.8204 19.64 68.3085 19.64V21.64ZM68.1405 21.68V26.256H70.1405V21.68H68.1405ZM68.1405 26.256C68.1405 26.3502 68.1294 26.4037 68.123 26.4258C68.117 26.4465 68.1182 26.4299 68.1443 26.3978C68.1726 26.363 68.2132 26.3316 68.2578 26.3121C68.2994 26.2939 68.3216 26.296 68.3085 26.296V28.296C68.8204 28.296 69.333 28.1051 69.6947 27.6612C70.0324 27.2468 70.1405 26.7317 70.1405 26.256H68.1405ZM68.3085 26.296H62.4325V28.296H68.3085V26.296ZM61.4325 27.296V36.24H63.4325V27.296H61.4325ZM62.4325 37.24H69.9205V35.24H62.4325V37.24ZM69.9205 37.24C69.9336 37.24 69.9114 37.2421 69.8698 37.2239C69.8252 37.2044 69.7846 37.173 69.7563 37.1382C69.7302 37.1061 69.729 37.0895 69.735 37.1102C69.7414 37.1323 69.7525 37.1858 69.7525 37.28H71.7525C71.7525 36.8043 71.6444 36.2892 71.3067 35.8748C70.945 35.4309 70.4324 35.24 69.9205 35.24V37.24ZM69.7525 37.28V41.96H71.7525V37.28H69.7525ZM69.7525 41.96C69.7525 42.0542 69.7414 42.1077 69.735 42.1298C69.729 42.1505 69.7302 42.1339 69.7563 42.1018C69.7846 42.067 69.8252 42.0356 69.8698 42.0161C69.9114 41.9979 69.9336 42 69.9205 42V44C70.4324 44 70.945 43.8091 71.3067 43.3652C71.6444 42.9508 71.7525 42.4357 71.7525 41.96H69.7525ZM69.9205 42H55.7245V44H69.9205V42Z" fill="#FED97C" mask="url(#path-1-outside-1_81_40)"/>
<mask id="path-3-outside-2_81_40" maskUnits="userSpaceOnUse" x="74" y="3" width="92" height="49" fill="black">
<rect fill="white" x="74" y="3" width="92" height="49"/>
<path d="M105.233 16.901C106.094 24.035 104.905 31.62 99.862 37.237C97.115 40.394 92.933 42.485 88.669 42.526C85.635 42.526 82.847 41.542 80.592 39.369C78.87 37.647 77.886 35.597 77.435 33.465C76.656 30.021 77.312 26.003 79.854 23.215C82.109 20.755 85.594 19.443 89.612 20.509C91.58 21.042 93.179 22.354 93.466 25.019C93.589 26.372 93.056 27.93 91.867 28.873C90.514 29.939 88.464 29.529 87.726 28.299C87.029 27.11 85.143 26.946 84.405 28.217C84.2 28.586 84.077 28.873 84.036 29.324C83.913 29.693 83.872 30.103 83.872 30.554C83.913 31.292 84.077 32.276 84.61 33.014C84.815 33.465 85.143 33.793 85.471 33.998C85.758 34.244 86.127 34.531 86.455 34.613C87.152 34.859 88.095 34.9 89.202 34.654C91.211 34.121 93.097 32.563 94.286 30.472C97.197 25.511 95.393 17.721 93.466 12.35C91.416 5.052 101.871 2.879 103.798 10.423C103.921 10.751 104.208 11.858 104.618 13.662C104.823 14.564 104.987 15.712 105.233 16.901ZM130.491 23.133C131.311 26.864 130.696 30.636 128.851 34.203C128.195 35.269 127.457 36.212 126.555 37.114C125.694 37.975 124.669 38.713 123.562 39.287C120.692 40.886 117.248 40.845 114.337 39.246C110.237 36.95 107.736 31.661 107.941 26.741C108.105 22.559 109.376 19.279 111.385 16.983C115.444 12.35 122.742 11.858 127.211 16.532C128.031 17.393 128.728 18.459 129.343 19.566C129.876 20.714 130.245 21.862 130.491 23.133ZM123.07 28.053C123.316 27.52 123.521 26.987 123.644 26.454C123.767 25.88 123.808 25.265 123.849 24.732C123.89 24.445 123.849 24.158 123.808 23.912C123.808 23.666 123.685 23.256 123.644 23.092C123.439 22.518 123.275 21.985 123.07 21.616C122.988 21.37 122.865 21.206 122.66 21.001C121.799 19.853 120.282 19.197 118.765 19.894C116.92 20.755 115.936 24.199 116.141 26.987C116.551 31.825 120.938 32.317 123.07 28.053ZM155.587 18.09C156.735 15.097 159.195 14.359 160.958 14.892C162.147 15.22 163.008 15.753 163.008 17.926C163.008 18.459 162.721 21.944 162.721 25.183C162.721 26.823 162.721 28.709 162.639 30.718C162.516 32.809 162.311 35.064 161.942 37.442C161.696 38.59 161.409 39.861 160.917 41.132C160.466 42.485 159.769 43.797 158.785 45.027C157.801 46.257 156.571 47.323 155.095 48.061C154.357 48.43 153.537 48.758 152.717 48.922C151.815 49.127 151.036 49.168 150.257 49.168C148.658 49.127 147.428 48.799 146.403 48.389C145.337 48.061 144.476 47.651 143.82 47.282C142.508 46.585 141.524 45.97 141.073 45.56C136.522 41.378 142.754 34.203 146.895 37.77C146.977 37.811 147.387 38.18 148.002 38.631C148.207 38.795 148.33 38.918 148.535 39C148.699 39.205 148.945 39.328 149.109 39.41C153.865 42.239 155.136 34.818 155.669 31.62C156.038 29.734 156.366 27.807 156.612 26.085C156.612 26.003 156.612 26.003 156.612 26.003C152.676 30.513 145.501 37.893 138.654 34.367C133.939 32.112 133.57 24.035 133.488 19.402C132.996 14.359 142.877 13.826 142.877 18.377C142.877 18.705 142.713 20.673 142.836 23.666C143.328 35.187 152.307 24.814 155.587 18.09Z"/>
</mask>
<path d="M105.233 16.901C106.094 24.035 104.905 31.62 99.862 37.237C97.115 40.394 92.933 42.485 88.669 42.526C85.635 42.526 82.847 41.542 80.592 39.369C78.87 37.647 77.886 35.597 77.435 33.465C76.656 30.021 77.312 26.003 79.854 23.215C82.109 20.755 85.594 19.443 89.612 20.509C91.58 21.042 93.179 22.354 93.466 25.019C93.589 26.372 93.056 27.93 91.867 28.873C90.514 29.939 88.464 29.529 87.726 28.299C87.029 27.11 85.143 26.946 84.405 28.217C84.2 28.586 84.077 28.873 84.036 29.324C83.913 29.693 83.872 30.103 83.872 30.554C83.913 31.292 84.077 32.276 84.61 33.014C84.815 33.465 85.143 33.793 85.471 33.998C85.758 34.244 86.127 34.531 86.455 34.613C87.152 34.859 88.095 34.9 89.202 34.654C91.211 34.121 93.097 32.563 94.286 30.472C97.197 25.511 95.393 17.721 93.466 12.35C91.416 5.052 101.871 2.879 103.798 10.423C103.921 10.751 104.208 11.858 104.618 13.662C104.823 14.564 104.987 15.712 105.233 16.901ZM130.491 23.133C131.311 26.864 130.696 30.636 128.851 34.203C128.195 35.269 127.457 36.212 126.555 37.114C125.694 37.975 124.669 38.713 123.562 39.287C120.692 40.886 117.248 40.845 114.337 39.246C110.237 36.95 107.736 31.661 107.941 26.741C108.105 22.559 109.376 19.279 111.385 16.983C115.444 12.35 122.742 11.858 127.211 16.532C128.031 17.393 128.728 18.459 129.343 19.566C129.876 20.714 130.245 21.862 130.491 23.133ZM123.07 28.053C123.316 27.52 123.521 26.987 123.644 26.454C123.767 25.88 123.808 25.265 123.849 24.732C123.89 24.445 123.849 24.158 123.808 23.912C123.808 23.666 123.685 23.256 123.644 23.092C123.439 22.518 123.275 21.985 123.07 21.616C122.988 21.37 122.865 21.206 122.66 21.001C121.799 19.853 120.282 19.197 118.765 19.894C116.92 20.755 115.936 24.199 116.141 26.987C116.551 31.825 120.938 32.317 123.07 28.053ZM155.587 18.09C156.735 15.097 159.195 14.359 160.958 14.892C162.147 15.22 163.008 15.753 163.008 17.926C163.008 18.459 162.721 21.944 162.721 25.183C162.721 26.823 162.721 28.709 162.639 30.718C162.516 32.809 162.311 35.064 161.942 37.442C161.696 38.59 161.409 39.861 160.917 41.132C160.466 42.485 159.769 43.797 158.785 45.027C157.801 46.257 156.571 47.323 155.095 48.061C154.357 48.43 153.537 48.758 152.717 48.922C151.815 49.127 151.036 49.168 150.257 49.168C148.658 49.127 147.428 48.799 146.403 48.389C145.337 48.061 144.476 47.651 143.82 47.282C142.508 46.585 141.524 45.97 141.073 45.56C136.522 41.378 142.754 34.203 146.895 37.77C146.977 37.811 147.387 38.18 148.002 38.631C148.207 38.795 148.33 38.918 148.535 39C148.699 39.205 148.945 39.328 149.109 39.41C153.865 42.239 155.136 34.818 155.669 31.62C156.038 29.734 156.366 27.807 156.612 26.085C156.612 26.003 156.612 26.003 156.612 26.003C152.676 30.513 145.501 37.893 138.654 34.367C133.939 32.112 133.57 24.035 133.488 19.402C132.996 14.359 142.877 13.826 142.877 18.377C142.877 18.705 142.713 20.673 142.836 23.666C143.328 35.187 152.307 24.814 155.587 18.09Z" fill="#F04521"/>
<path d="M105.233 16.901L107.715 16.6014L107.702 16.4973L107.681 16.3945L105.233 16.901ZM99.862 37.237L98.0017 35.5668L97.9888 35.5813L97.976 35.5959L99.862 37.237ZM88.669 42.526V45.026H88.681L88.693 45.0259L88.669 42.526ZM80.592 39.369L78.8242 41.1368L78.8406 41.1531L78.8573 41.1692L80.592 39.369ZM77.435 33.465L79.8809 32.9476L79.8773 32.9305L79.8734 32.9135L77.435 33.465ZM79.854 23.215L78.0111 21.5257L78.0066 21.5306L79.854 23.215ZM89.612 20.509L90.2655 18.0959L90.2531 18.0926L89.612 20.509ZM93.466 25.019L95.9557 24.7927L95.9539 24.772L95.9516 24.7513L93.466 25.019ZM91.867 28.873L93.4142 30.8367L93.4205 30.8317L91.867 28.873ZM87.726 28.299L85.5693 29.5633L85.5757 29.5743L85.5823 29.5852L87.726 28.299ZM84.405 28.217L82.243 26.9617L82.2311 26.9822L82.2196 27.0029L84.405 28.217ZM84.036 29.324L86.4077 30.1146L86.4995 29.8393L86.5257 29.5503L84.036 29.324ZM83.872 30.554H81.372V30.6234L81.3758 30.6927L83.872 30.554ZM84.61 33.014L86.8859 31.9795L86.7827 31.7525L86.6367 31.5503L84.61 33.014ZM85.471 33.998L87.098 32.0999L86.9553 31.9776L86.796 31.878L85.471 33.998ZM86.455 34.613L87.2871 32.2555L87.1758 32.2163L87.0613 32.1876L86.455 34.613ZM89.202 34.654L89.7443 37.0945L89.794 37.0834L89.8431 37.0704L89.202 34.654ZM94.286 30.472L92.1298 29.2068L92.1212 29.2215L92.1128 29.2362L94.286 30.472ZM93.466 12.35L91.0592 13.0261L91.083 13.1111L91.1129 13.1943L93.466 12.35ZM103.798 10.423L101.376 11.0417L101.409 11.1735L101.457 11.3008L103.798 10.423ZM102.751 17.2005C103.561 23.9138 102.395 30.6733 98.0017 35.5668L101.722 38.9072C107.415 32.5667 108.627 24.1562 107.715 16.6014L102.751 17.2005ZM97.976 35.5959C95.6609 38.2566 92.1389 39.9925 88.645 40.0261L88.693 45.0259C93.7271 44.9775 98.5691 42.5314 101.748 38.8781L97.976 35.5959ZM88.669 40.026C86.211 40.026 84.0671 39.2459 82.3267 37.5688L78.8573 41.1692C81.6269 43.8381 85.059 45.026 88.669 45.026V40.026ZM82.3598 37.6012C81.0205 36.262 80.2442 34.6652 79.8809 32.9476L74.9891 33.9824C75.5278 36.5288 76.7195 39.032 78.8242 41.1368L82.3598 37.6012ZM79.8734 32.9135C79.2347 30.0899 79.8217 26.961 81.7014 24.8994L78.0066 21.5306C74.8023 25.045 74.0773 29.9521 74.9966 34.0165L79.8734 32.9135ZM81.6969 24.9043C83.3496 23.1013 85.8884 22.1076 88.9709 22.9254L90.2531 18.0926C85.2996 16.7784 80.8684 18.4087 78.0111 21.5257L81.6969 24.9043ZM88.9585 22.9221C89.6151 23.0999 90.0564 23.3656 90.3447 23.6735C90.6129 23.9598 90.8879 24.4282 90.9804 25.2867L95.9516 24.7513C95.7571 22.9448 95.0891 21.4247 93.994 20.2555C92.9191 19.1079 91.5769 18.4511 90.2655 18.0959L88.9585 22.9221ZM90.9763 25.2453C91.0333 25.8732 90.7567 26.5628 90.3135 26.9143L93.4205 30.8317C95.3553 29.2972 96.1447 26.8708 95.9557 24.7927L90.9763 25.2453ZM90.3198 26.9093C90.2601 26.9564 90.1352 27.0061 89.9583 26.978C89.876 26.9649 89.8228 26.9397 89.8024 26.9272C89.7828 26.9151 89.8222 26.9335 89.8697 27.0128L85.5823 29.5852C86.4095 30.964 87.834 31.7031 89.1735 31.916C90.5443 32.1339 92.1209 31.8556 93.4142 30.8367L90.3198 26.9093ZM89.8827 27.0347C89.056 25.6244 87.5886 24.9039 86.1989 24.8383C84.7674 24.7707 83.1523 25.3957 82.243 26.9617L86.567 29.4723C86.4984 29.5904 86.3839 29.6986 86.2494 29.7654C86.127 29.8262 86.025 29.8356 85.9629 29.8327C85.8749 29.8286 85.699 29.7846 85.5693 29.5633L89.8827 27.0347ZM82.2196 27.0029C81.9187 27.5445 81.6301 28.1758 81.5463 29.0977L86.5257 29.5503C86.5279 29.527 86.5294 29.5237 86.5271 29.5343C86.5246 29.5459 86.5207 29.5598 86.5165 29.5718C86.5098 29.5907 86.5146 29.5674 86.5904 29.4311L82.2196 27.0029ZM81.6643 28.5334C81.4217 29.2612 81.372 29.9715 81.372 30.554H86.372C86.372 30.2345 86.4043 30.1248 86.4077 30.1146L81.6643 28.5334ZM81.3758 30.6927C81.4248 31.5739 81.6237 33.149 82.5833 34.4777L86.6367 31.5503C86.6019 31.5021 86.5351 31.3803 86.4749 31.1506C86.4162 30.9264 86.3823 30.6703 86.3682 30.4153L81.3758 30.6927ZM82.3341 34.0485C82.7661 34.9988 83.4523 35.6845 84.146 36.118L86.796 31.878C86.8198 31.8929 86.8349 31.9063 86.8468 31.9195C86.8602 31.9342 86.8745 31.9544 86.8859 31.9795L82.3341 34.0485ZM83.844 35.8961C84.016 36.0436 84.2683 36.2521 84.5609 36.4471C84.8284 36.6255 85.2803 36.8963 85.8487 37.0384L87.0613 32.1876C87.1323 32.2054 87.1883 32.2246 87.2281 32.2399C87.268 32.2552 87.2971 32.2688 87.3145 32.2775C87.3322 32.2862 87.3422 32.2921 87.3442 32.2932C87.3463 32.2945 87.3431 32.2927 87.3344 32.2869C87.3158 32.2745 87.2854 32.2528 87.2422 32.2189C87.1995 32.1854 87.152 32.1462 87.098 32.0999L83.844 35.8961ZM85.6229 36.9705C86.8775 37.4133 88.3179 37.4114 89.7443 37.0945L88.6597 32.2135C87.8721 32.3886 87.4265 32.3047 87.2871 32.2555L85.6229 36.9705ZM89.8431 37.0704C92.6093 36.3365 94.9987 34.2763 96.4592 31.7078L92.1128 29.2362C91.1953 30.8497 89.8127 31.9055 88.5609 32.2376L89.8431 37.0704ZM96.4422 31.7372C98.2864 28.5943 98.5287 24.7809 98.1775 21.3129C97.8216 17.7978 96.8206 14.297 95.8191 11.5057L91.1129 13.1943C92.0384 15.774 92.9029 18.8537 93.203 21.8166C93.5078 24.8266 93.1966 27.3887 92.1298 29.2068L96.4422 31.7372ZM95.8728 11.6739C95.5284 10.4477 95.761 9.70247 96.0414 9.27047C96.3499 8.79535 96.9016 8.41605 97.6244 8.27349C98.9915 8.00385 100.758 8.62404 101.376 11.0417L106.22 9.80428C104.911 4.67796 100.486 2.61265 96.6569 3.368C94.7812 3.73795 92.9832 4.79877 91.8477 6.5479C90.6842 8.34015 90.3786 10.6033 91.0592 13.0261L95.8728 11.6739ZM101.457 11.3008C101.45 11.2822 101.468 11.3311 101.516 11.4972C101.558 11.646 101.612 11.8478 101.678 12.1061C101.809 12.6216 101.978 13.327 102.18 14.2161L107.056 13.1079C106.661 11.3716 106.335 10.0691 106.139 9.54519L101.457 11.3008ZM102.18 14.2161C102.267 14.5991 102.349 15.0526 102.449 15.611C102.544 16.1495 102.653 16.7714 102.785 17.4075L107.681 16.3945C107.567 15.8416 107.471 15.295 107.372 14.7368C107.276 14.1984 107.174 13.6269 107.056 13.1079L102.18 14.2161ZM130.491 23.133L128.036 23.6081L128.042 23.6389L128.049 23.6696L130.491 23.133ZM128.851 34.203L130.98 35.5132L131.029 35.4341L131.071 35.3516L128.851 34.203ZM126.555 37.114L124.787 35.3462L124.787 35.3462L126.555 37.114ZM123.562 39.287L122.411 37.0676L122.378 37.0849L122.345 37.1031L123.562 39.287ZM114.337 39.246L113.115 41.4273L113.124 41.4323L113.133 41.4372L114.337 39.246ZM107.941 26.741L110.439 26.8451L110.439 26.839L107.941 26.741ZM111.385 16.983L109.505 15.3356L109.503 15.3367L111.385 16.983ZM127.211 16.532L129.021 14.8079L129.018 14.8043L127.211 16.532ZM129.343 19.566L131.61 18.5132L131.572 18.4311L131.528 18.3519L129.343 19.566ZM123.07 28.053L125.306 29.171L125.323 29.1361L125.34 29.1006L123.07 28.053ZM123.644 26.454L126.08 27.0162L126.084 26.997L126.088 26.9778L123.644 26.454ZM123.849 24.732L121.374 24.3785L121.363 24.4591L121.356 24.5403L123.849 24.732ZM123.808 23.912H121.308V24.1189L121.342 24.323L123.808 23.912ZM123.644 23.092L126.069 22.4857L126.04 22.3667L125.998 22.2512L123.644 23.092ZM123.07 21.616L120.698 22.4066L120.772 22.627L120.885 22.8301L123.07 21.616ZM122.66 21.001L120.66 22.501L120.767 22.6431L120.892 22.7688L122.66 21.001ZM118.765 19.894L117.721 17.6223L117.714 17.6254L117.708 17.6285L118.765 19.894ZM116.141 26.987L113.648 27.1703L113.649 27.1842L113.65 27.1981L116.141 26.987ZM128.049 23.6696C128.729 26.7621 128.241 29.9405 126.63 33.0544L131.071 35.3516C133.151 31.3315 133.893 26.9659 132.933 22.5964L128.049 23.6696ZM126.722 32.8928C126.165 33.7973 125.547 34.5859 124.787 35.3462L128.323 38.8818C129.366 37.8381 130.225 36.7407 130.98 35.5132L126.722 32.8928ZM124.787 35.3462C124.119 36.0144 123.305 36.6039 122.411 37.0676L124.713 41.5064C126.032 40.8221 127.269 39.9356 128.323 38.8818L124.787 35.3462ZM122.345 37.1031C120.258 38.2658 117.729 38.257 115.541 37.0548L113.133 41.4372C116.767 43.433 121.126 43.5062 124.779 41.4709L122.345 37.1031ZM115.558 37.0647C112.431 35.3132 110.265 31.0088 110.439 26.8451L105.443 26.6369C105.207 32.3132 108.043 38.5868 113.115 41.4273L115.558 37.0647ZM110.439 26.839C110.585 23.1102 111.705 20.4136 113.266 18.6293L109.503 15.3367C107.047 18.1444 105.625 22.0078 105.443 26.643L110.439 26.839ZM113.265 18.6304C116.419 15.0303 122.014 14.7138 125.404 18.2597L129.018 14.8043C123.47 9.00222 114.468 9.66969 109.505 15.3356L113.265 18.6304ZM125.401 18.2561C126.013 18.8992 126.591 19.7596 127.158 20.7801L131.528 18.3519C130.865 17.1584 130.049 15.8868 129.021 14.8079L125.401 18.2561ZM127.075 20.6188C127.521 21.5775 127.828 22.531 128.036 23.6081L132.945 22.6579C132.662 21.193 132.231 19.8505 131.61 18.5132L127.075 20.6188ZM125.34 29.1006C125.626 28.4813 125.904 27.7771 126.08 27.0162L121.208 25.8918C121.138 26.1969 121.006 26.5587 120.8 27.0054L125.34 29.1006ZM126.088 26.9778C126.254 26.2038 126.305 25.4006 126.342 24.9237L121.356 24.5403C121.311 25.1294 121.28 25.5562 121.199 25.9302L126.088 26.9778ZM126.324 25.0855C126.425 24.3787 126.316 23.751 126.274 23.501L121.342 24.323C121.351 24.3748 121.356 24.4106 121.36 24.4403C121.364 24.4691 121.366 24.4848 121.366 24.4913C121.366 24.4977 121.366 24.4904 121.366 24.4724C121.366 24.4541 121.368 24.4219 121.374 24.3785L126.324 25.0855ZM126.308 23.912C126.308 23.6639 126.279 23.4465 126.256 23.3057C126.232 23.1534 126.202 23.0134 126.176 22.9032C126.15 22.7909 126.123 22.6891 126.104 22.615C126.095 22.5817 126.084 22.5404 126.079 22.5214C126.075 22.5093 126.073 22.5005 126.071 22.4937C126.07 22.4868 126.069 22.4846 126.069 22.4857L121.219 23.6983C121.229 23.7387 121.239 23.779 121.247 23.8071C121.256 23.8428 121.262 23.8624 121.27 23.8944C121.285 23.951 121.297 23.9978 121.307 24.0393C121.317 24.0829 121.32 24.1017 121.32 24.1006C121.32 24.0988 121.317 24.0835 121.315 24.0571C121.312 24.0323 121.308 23.9817 121.308 23.912H126.308ZM125.998 22.2512C125.866 21.8802 125.593 21.009 125.255 20.4019L120.885 22.8301C120.882 22.8263 120.894 22.847 120.919 22.9048C120.943 22.9616 120.973 23.0369 121.01 23.1392C121.048 23.2418 121.088 23.3551 121.135 23.4916C121.18 23.6222 121.234 23.7764 121.29 23.9328L125.998 22.2512ZM125.442 20.8254C125.192 20.0751 124.784 19.5891 124.428 19.2332L120.892 22.7688C120.942 22.8184 120.904 22.7873 120.848 22.7048C120.818 22.6608 120.787 22.6093 120.759 22.5522C120.731 22.4955 120.711 22.4454 120.698 22.4066L125.442 20.8254ZM124.66 19.501C123.271 17.6487 120.556 16.3197 117.721 17.6223L119.809 22.1657C119.904 22.1218 119.972 22.1106 120.018 22.1083C120.066 22.1059 120.12 22.1118 120.184 22.1327C120.322 22.1777 120.505 22.2949 120.66 22.501L124.66 19.501ZM117.708 17.6285C115.852 18.4943 114.843 20.3791 114.319 21.908C113.756 23.5514 113.521 25.4478 113.648 27.1703L118.634 26.8037C118.556 25.7382 118.71 24.5186 119.049 23.5277C119.428 22.4224 119.832 22.1547 119.822 22.1595L117.708 17.6285ZM113.65 27.1981C113.912 30.2896 115.619 32.9968 118.619 33.4099C121.48 33.8039 123.962 31.8594 125.306 29.171L120.834 26.935C120.459 27.6851 120.052 28.0903 119.76 28.285C119.472 28.4762 119.317 28.4588 119.301 28.4566C119.286 28.4546 119.27 28.4504 119.244 28.4351C119.218 28.419 119.16 28.3775 119.086 28.28C118.935 28.0812 118.704 27.6283 118.632 26.7759L113.65 27.1981ZM155.587 18.09L157.834 19.1861L157.882 19.0876L157.921 18.9853L155.587 18.09ZM160.958 14.892L160.234 17.285L160.264 17.2939L160.293 17.302L160.958 14.892ZM162.639 30.718L165.134 30.8648L165.136 30.8424L165.137 30.82L162.639 30.718ZM161.942 37.442L164.386 37.9658L164.401 37.896L164.412 37.8253L161.942 37.442ZM160.917 41.132L158.585 40.2295L158.564 40.285L158.545 40.3414L160.917 41.132ZM158.785 45.027L156.833 43.4653L156.833 43.4653L158.785 45.027ZM155.095 48.061L153.977 45.8249L153.977 45.8249L155.095 48.061ZM152.717 48.922L152.226 46.4705L152.195 46.4769L152.163 46.4842L152.717 48.922ZM150.257 49.168L150.193 51.6672L150.225 51.668H150.257V49.168ZM146.403 48.389L147.331 46.0678L147.236 46.0297L147.138 45.9996L146.403 48.389ZM143.82 47.282L145.045 45.1031L145.019 45.0883L144.993 45.0742L143.82 47.282ZM141.073 45.56L139.381 47.4008L139.391 47.4099L141.073 45.56ZM146.895 37.77L145.263 39.6642L145.499 39.867L145.777 40.0061L146.895 37.77ZM148.002 38.631L149.564 36.6788L149.523 36.646L149.48 36.615L148.002 38.631ZM148.535 39L150.487 37.4383L150.075 36.9236L149.463 36.6788L148.535 39ZM149.109 39.41L150.387 37.2614L150.308 37.2147L150.227 37.1739L149.109 39.41ZM155.669 31.62L153.215 31.14L153.209 31.1744L153.203 31.209L155.669 31.62ZM156.612 26.085L159.087 26.4386L159.112 26.2627V26.085H156.612ZM156.612 26.003H159.112V19.3363L154.728 24.3592L156.612 26.003ZM138.654 34.367L139.798 32.1444L139.766 32.1275L139.732 32.1117L138.654 34.367ZM133.488 19.402L135.987 19.3578L135.986 19.2583L135.976 19.1592L133.488 19.402ZM142.836 23.666L140.338 23.7687L140.338 23.7727L142.836 23.666ZM157.921 18.9853C158.297 18.005 158.801 17.5849 159.164 17.4025C159.559 17.204 159.953 17.2 160.234 17.285L161.681 12.499C158.62 11.5733 154.853 13.0222 153.253 17.1947L157.921 18.9853ZM160.293 17.302C160.511 17.3621 160.595 17.4008 160.618 17.4128C160.623 17.4153 160.559 17.3806 160.492 17.2978C160.344 17.1167 160.508 17.1285 160.508 17.926H165.508C165.508 16.5505 165.241 15.2093 164.366 14.1365C163.496 13.0708 162.351 12.6829 161.623 12.482L160.293 17.302ZM160.508 17.926C160.508 17.919 160.507 17.9699 160.499 18.1296C160.491 18.2709 160.481 18.4541 160.467 18.6808C160.441 19.1287 160.404 19.7254 160.368 20.4064C160.295 21.7658 160.221 23.4979 160.221 25.183H165.221C165.221 23.6291 165.29 21.9992 165.361 20.6731C165.425 19.4617 165.508 18.2792 165.508 17.926H160.508ZM160.221 25.183C160.221 26.8273 160.22 28.665 160.141 30.616L165.137 30.82C165.221 28.753 165.221 26.8187 165.221 25.183H160.221ZM160.143 30.5712C160.023 32.6051 159.825 34.7783 159.471 37.0587L164.412 37.8253C164.796 35.3497 165.008 33.0129 165.134 30.8648L160.143 30.5712ZM159.497 36.9182C159.252 38.0614 158.999 39.1606 158.585 40.2295L163.248 42.0345C163.818 40.5614 164.139 39.1186 164.386 37.9658L159.497 36.9182ZM158.545 40.3414C158.187 41.4164 157.631 42.467 156.833 43.4653L160.737 46.5887C161.906 45.127 162.745 43.5536 163.288 41.9226L158.545 40.3414ZM156.833 43.4653C156.042 44.4538 155.085 45.2707 153.977 45.8249L156.213 50.2971C158.056 49.3753 159.56 48.0602 160.737 46.5887L156.833 43.4653ZM153.977 45.8249C153.354 46.1364 152.753 46.3653 152.226 46.4705L153.207 51.3735C154.321 51.1507 155.36 50.7236 156.213 50.2971L153.977 45.8249ZM152.163 46.4842C151.511 46.6323 150.936 46.668 150.257 46.668V51.668C151.136 51.668 152.119 51.6217 153.271 51.3598L152.163 46.4842ZM150.321 46.6688C149.055 46.6364 148.118 46.3824 147.331 46.0678L145.474 50.7102C146.738 51.2156 148.26 51.6176 150.193 51.6672L150.321 46.6688ZM147.138 45.9996C146.271 45.7329 145.575 45.4008 145.045 45.1031L142.594 49.4609C143.377 49.9012 144.402 50.3891 145.668 50.7784L147.138 45.9996ZM144.993 45.0742C143.672 44.3726 142.947 43.8851 142.754 43.7101L139.391 47.4099C140.101 48.0549 141.343 48.7974 142.647 49.4898L144.993 45.0742ZM142.764 43.7192C142.144 43.1487 141.976 42.5903 141.98 42.0955C141.984 41.5358 142.217 40.891 142.671 40.3274C143.13 39.7576 143.682 39.4336 144.125 39.338C144.486 39.2603 144.845 39.3041 145.263 39.6642L148.526 35.8758C146.874 34.4524 144.901 34.0555 143.071 34.4505C141.323 34.8277 139.825 35.89 138.777 37.1909C137.725 38.4979 136.994 40.208 136.98 42.0583C136.966 43.9736 137.727 45.8803 139.381 47.4008L142.764 43.7192ZM145.777 40.0061C145.652 39.9438 145.563 39.8855 145.535 39.8666C145.496 39.8412 145.469 39.8216 145.46 39.8145C145.441 39.8009 145.437 39.7971 145.459 39.8147C145.507 39.8528 145.562 39.898 145.674 39.9886C145.876 40.1525 146.168 40.3865 146.523 40.647L149.48 36.615C149.22 36.4245 149 36.2485 148.823 36.1049C148.745 36.0418 148.644 35.9589 148.572 35.9021C148.535 35.8723 148.48 35.8294 148.421 35.786C148.392 35.764 148.347 35.7319 148.293 35.6963C148.249 35.6673 148.148 35.6013 148.013 35.5339L145.777 40.0061ZM146.44 40.5832C146.473 40.6095 146.496 40.6292 146.553 40.6761C146.6 40.7146 146.679 40.7789 146.768 40.8462C146.969 40.9967 147.243 41.1759 147.606 41.3212L149.463 36.6788C149.535 36.7076 149.602 36.7412 149.661 36.776C149.718 36.8094 149.756 36.837 149.768 36.8463C149.774 36.8506 149.775 36.8513 149.768 36.846C149.761 36.8404 149.751 36.8319 149.732 36.8165C149.723 36.8088 149.713 36.801 149.701 36.7911C149.69 36.7816 149.677 36.7707 149.663 36.7592C149.634 36.7361 149.601 36.7087 149.564 36.6788L146.44 40.5832ZM146.583 40.5617C147.141 41.2596 147.893 41.5971 147.991 41.6461L150.227 37.1739C150.136 37.1287 150.153 37.1347 150.184 37.155C150.217 37.1764 150.347 37.2634 150.487 37.4383L146.583 40.5617ZM147.831 41.5586C149.499 42.551 151.33 42.8851 153.066 42.127C154.636 41.4411 155.6 40.0756 156.195 38.9194C157.385 36.6076 157.882 33.5455 158.135 32.031L153.203 31.209C152.922 32.8925 152.517 35.1399 151.75 36.6308C151.366 37.3761 151.087 37.5353 151.064 37.5451C151.064 37.5453 151.066 37.5443 151.07 37.5432C151.074 37.542 151.078 37.5412 151.081 37.5407C151.09 37.5396 151.08 37.5425 151.045 37.5381C150.973 37.529 150.76 37.4832 150.387 37.2614L147.831 41.5586ZM158.122 32.1C158.499 30.1759 158.834 28.2066 159.087 26.4386L154.137 25.7314C153.897 27.4074 153.577 29.2921 153.215 31.14L158.122 32.1ZM159.112 26.085C159.112 26.0848 159.112 26.0847 159.112 26.0845C159.112 26.0844 159.112 26.0842 159.112 26.084C159.112 26.0839 159.112 26.0837 159.112 26.0836C159.112 26.0834 159.112 26.0832 159.112 26.0831C159.112 26.0829 159.112 26.0828 159.112 26.0826C159.112 26.0825 159.112 26.0823 159.112 26.0821C159.112 26.082 159.112 26.0818 159.112 26.0817C159.112 26.0815 159.112 26.0814 159.112 26.0812C159.112 26.0811 159.112 26.0809 159.112 26.0808C159.112 26.0806 159.112 26.0804 159.112 26.0803C159.112 26.0801 159.112 26.08 159.112 26.0798C159.112 26.0797 159.112 26.0795 159.112 26.0794C159.112 26.0792 159.112 26.0791 159.112 26.0789C159.112 26.0788 159.112 26.0786 159.112 26.0785C159.112 26.0783 159.112 26.0782 159.112 26.078C159.112 26.0779 159.112 26.0777 159.112 26.0775C159.112 26.0774 159.112 26.0772 159.112 26.0771C159.112 26.0769 159.112 26.0768 159.112 26.0767C159.112 26.0765 159.112 26.0764 159.112 26.0762C159.112 26.0761 159.112 26.0759 159.112 26.0758C159.112 26.0756 159.112 26.0755 159.112 26.0753C159.112 26.0752 159.112 26.075 159.112 26.0749C159.112 26.0747 159.112 26.0746 159.112 26.0744C159.112 26.0743 159.112 26.0741 159.112 26.074C159.112 26.0739 159.112 26.0737 159.112 26.0736C159.112 26.0734 159.112 26.0733 159.112 26.0731C159.112 26.073 159.112 26.0728 159.112 26.0727C159.112 26.0726 159.112 26.0724 159.112 26.0723C159.112 26.0721 159.112 26.072 159.112 26.0718C159.112 26.0717 159.112 26.0716 159.112 26.0714C159.112 26.0713 159.112 26.0711 159.112 26.071C159.112 26.0708 159.112 26.0707 159.112 26.0706C159.112 26.0704 159.112 26.0703 159.112 26.0701C159.112 26.07 159.112 26.0699 159.112 26.0697C159.112 26.0696 159.112 26.0694 159.112 26.0693C159.112 26.0692 159.112 26.069 159.112 26.0689C159.112 26.0688 159.112 26.0686 159.112 26.0685C159.112 26.0683 159.112 26.0682 159.112 26.0681C159.112 26.0679 159.112 26.0678 159.112 26.0677C159.112 26.0675 159.112 26.0674 159.112 26.0672C159.112 26.0671 159.112 26.067 159.112 26.0668C159.112 26.0667 159.112 26.0666 159.112 26.0664C159.112 26.0663 159.112 26.0662 159.112 26.066C159.112 26.0659 159.112 26.0658 159.112 26.0656C159.112 26.0655 159.112 26.0654 159.112 26.0652C159.112 26.0651 159.112 26.065 159.112 26.0648C159.112 26.0647 159.112 26.0646 159.112 26.0644C159.112 26.0643 159.112 26.0642 159.112 26.064C159.112 26.0639 159.112 26.0638 159.112 26.0636C159.112 26.0635 159.112 26.0634 159.112 26.0632C159.112 26.0631 159.112 26.063 159.112 26.0629C159.112 26.0627 159.112 26.0626 159.112 26.0625C159.112 26.0623 159.112 26.0622 159.112 26.0621C159.112 26.062 159.112 26.0618 159.112 26.0617C159.112 26.0616 159.112 26.0614 159.112 26.0613C159.112 26.0612 159.112 26.0611 159.112 26.0609C159.112 26.0608 159.112 26.0607 159.112 26.0605C159.112 26.0604 159.112 26.0603 159.112 26.0602C159.112 26.06 159.112 26.0599 159.112 26.0598C159.112 26.0597 159.112 26.0595 159.112 26.0594C159.112 26.0593 159.112 26.0592 159.112 26.059C159.112 26.0589 159.112 26.0588 159.112 26.0587C159.112 26.0585 159.112 26.0584 159.112 26.0583C159.112 26.0582 159.112 26.0581 159.112 26.0579C159.112 26.0578 159.112 26.0577 159.112 26.0576C159.112 26.0574 159.112 26.0573 159.112 26.0572C159.112 26.0571 159.112 26.057 159.112 26.0568C159.112 26.0567 159.112 26.0566 159.112 26.0565C159.112 26.0564 159.112 26.0562 159.112 26.0561C159.112 26.056 159.112 26.0559 159.112 26.0558C159.112 26.0556 159.112 26.0555 159.112 26.0554C159.112 26.0553 159.112 26.0552 159.112 26.055C159.112 26.0549 159.112 26.0548 159.112 26.0547C159.112 26.0546 159.112 26.0545 159.112 26.0543C159.112 26.0542 159.112 26.0541 159.112 26.054C159.112 26.0539 159.112 26.0538 159.112 26.0536C159.112 26.0535 159.112 26.0534 159.112 26.0533C159.112 26.0532 159.112 26.0531 159.112 26.0529C159.112 26.0528 159.112 26.0527 159.112 26.0526C159.112 26.0525 159.112 26.0524 159.112 26.0523C159.112 26.0521 159.112 26.052 159.112 26.0519C159.112 26.0518 159.112 26.0517 159.112 26.0516C159.112 26.0515 159.112 26.0513 159.112 26.0512C159.112 26.0511 159.112 26.051 159.112 26.0509C159.112 26.0508 159.112 26.0507 159.112 26.0506C159.112 26.0505 159.112 26.0503 159.112 26.0502C159.112 26.0501 159.112 26.05 159.112 26.0499C159.112 26.0498 159.112 26.0497 159.112 26.0496C159.112 26.0495 159.112 26.0493 159.112 26.0492C159.112 26.0491 159.112 26.049 159.112 26.0489C159.112 26.0488 159.112 26.0487 159.112 26.0486C159.112 26.0485 159.112 26.0484 159.112 26.0483C159.112 26.0482 159.112 26.048 159.112 26.0479C159.112 26.0478 159.112 26.0477 159.112 26.0476C159.112 26.0475 159.112 26.0474 159.112 26.0473C159.112 26.0472 159.112 26.0471 159.112 26.047C159.112 26.0469 159.112 26.0468 159.112 26.0467C159.112 26.0466 159.112 26.0465 159.112 26.0464C159.112 26.0462 159.112 26.0461 159.112 26.046C159.112 26.0459 159.112 26.0458 159.112 26.0457C159.112 26.0456 159.112 26.0455 159.112 26.0454C159.112 26.0453 159.112 26.0452 159.112 26.0451C159.112 26.045 159.112 26.0449 159.112 26.0448C159.112 26.0447 159.112 26.0446 159.112 26.0445C159.112 26.0444 159.112 26.0443 159.112 26.0442C159.112 26.0441 159.112 26.044 159.112 26.0439C159.112 26.0438 159.112 26.0437 159.112 26.0436C159.112 26.0435 159.112 26.0434 159.112 26.0433C159.112 26.0432 159.112 26.0431 159.112 26.043C159.112 26.0429 159.112 26.0428 159.112 26.0427C159.112 26.0426 159.112 26.0425 159.112 26.0424C159.112 26.0423 159.112 26.0422 159.112 26.0421C159.112 26.042 159.112 26.0419 159.112 26.0418C159.112 26.0417 159.112 26.0416 159.112 26.0415C159.112 26.0414 159.112 26.0413 159.112 26.0412C159.112 26.0411 159.112 26.041 159.112 26.0409C159.112 26.0408 159.112 26.0407 159.112 26.0407C159.112 26.0406 159.112 26.0405 159.112 26.0404C159.112 26.0403 159.112 26.0402 159.112 26.0401C159.112 26.04 159.112 26.0399 159.112 26.0398C159.112 26.0397 159.112 26.0396 159.112 26.0395C159.112 26.0394 159.112 26.0393 159.112 26.0392C159.112 26.0391 159.112 26.0391 159.112 26.039C159.112 26.0389 159.112 26.0388 159.112 26.0387C159.112 26.0386 159.112 26.0385 159.112 26.0384C159.112 26.0383 159.112 26.0382 159.112 26.0381C159.112 26.038 159.112 26.038 159.112 26.0379C159.112 26.0378 159.112 26.0377 159.112 26.0376C159.112 26.0375 159.112 26.0374 159.112 26.0373C159.112 26.0372 159.112 26.0371 159.112 26.0371C159.112 26.037 159.112 26.0369 159.112 26.0368C159.112 26.0367 159.112 26.0366 159.112 26.0365C159.112 26.0364 159.112 26.0363 159.112 26.0363C159.112 26.0362 159.112 26.0361 159.112 26.036C159.112 26.0359 159.112 26.0358 159.112 26.0357C159.112 26.0356 159.112 26.0356 159.112 26.0355C159.112 26.0354 159.112 26.0353 159.112 26.0352C159.112 26.0351 159.112 26.035 159.112 26.035C159.112 26.0349 159.112 26.0348 159.112 26.0347C159.112 26.0346 159.112 26.0345 159.112 26.0345C159.112 26.0344 159.112 26.0343 159.112 26.0342C159.112 26.0341 159.112 26.034 159.112 26.0339C159.112 26.0339 159.112 26.0338 159.112 26.0337C159.112 26.0336 159.112 26.0335 159.112 26.0334C159.112 26.0334 159.112 26.0333 159.112 26.0332C159.112 26.0331 159.112 26.033 159.112 26.033C159.112 26.0329 159.112 26.0328 159.112 26.0327C159.112 26.0326 159.112 26.0325 159.112 26.0325C159.112 26.0324 159.112 26.0323 159.112 26.0322C159.112 26.0321 159.112 26.0321 159.112 26.032C159.112 26.0319 159.112 26.0318 159.112 26.0317C159.112 26.0317 159.112 26.0316 159.112 26.0315C159.112 26.0314 159.112 26.0313 159.112 26.0313C159.112 26.0312 159.112 26.0311 159.112 26.031C159.112 26.031 159.112 26.0309 159.112 26.0308C159.112 26.0307 159.112 26.0306 159.112 26.0306C159.112 26.0305 159.112 26.0304 159.112 26.0303C159.112 26.0303 159.112 26.0302 159.112 26.0301C159.112 26.03 159.112 26.0299 159.112 26.0299C159.112 26.0298 159.112 26.0297 159.112 26.0296C159.112 26.0296 159.112 26.0295 159.112 26.0294C159.112 26.0293 159.112 26.0293 159.112 26.0292C159.112 26.0291 159.112 26.029 159.112 26.029C159.112 26.0289 159.112 26.0288 159.112 26.0287C159.112 26.0287 159.112 26.0286 159.112 26.0285C159.112 26.0285 159.112 26.0284 159.112 26.0283C159.112 26.0282 159.112 26.0282 159.112 26.0281C159.112 26.028 159.112 26.0279 159.112 26.0279C159.112 26.0278 159.112 26.0277 159.112 26.0277C159.112 26.0276 159.112 26.0275 159.112 26.0274C159.112 26.0274 159.112 26.0273 159.112 26.0272C159.112 26.0272 159.112 26.0271 159.112 26.027C159.112 26.0269 159.112 26.0269 159.112 26.0268C159.112 26.0267 159.112 26.0267 159.112 26.0266C159.112 26.0265 159.112 26.0265 159.112 26.0264C159.112 26.0263 159.112 26.0262 159.112 26.0262C159.112 26.0261 159.112 26.026 159.112 26.026C159.112 26.0259 159.112 26.0258 159.112 26.0258C159.112 26.0257 159.112 26.0256 159.112 26.0256C159.112 26.0255 159.112 26.0254 159.112 26.0254C159.112 26.0253 159.112 26.0252 159.112 26.0252C159.112 26.0251 159.112 26.025 159.112 26.025C159.112 26.0249 159.112 26.0248 159.112 26.0248C159.112 26.0247 159.112 26.0246 159.112 26.0246C159.112 26.0245 159.112 26.0244 159.112 26.0244C159.112 26.0243 159.112 26.0242 159.112 26.0242C159.112 26.0241 159.112 26.024 159.112 26.024C159.112 26.0239 159.112 26.0238 159.112 26.0238C159.112 26.0237 159.112 26.0237 159.112 26.0236C159.112 26.0235 159.112 26.0235 159.112 26.0234C159.112 26.0233 159.112 26.0233 159.112 26.0232C159.112 26.0231 159.112 26.0231 159.112 26.023C159.112 26.023 159.112 26.0229 159.112 26.0228C159.112 26.0228 159.112 26.0227 159.112 26.0226C159.112 26.0226 159.112 26.0225 159.112 26.0225C159.112 26.0224 159.112 26.0223 159.112 26.0223C159.112 26.0222 159.112 26.0222 159.112 26.0221C159.112 26.022 159.112 26.022 159.112 26.0219C159.112 26.0219 159.112 26.0218 159.112 26.0217C159.112 26.0217 159.112 26.0216 159.112 26.0216C159.112 26.0215 159.112 26.0214 159.112 26.0214C159.112 26.0213 159.112 26.0213 159.112 26.0212C159.112 26.0211 159.112 26.0211 159.112 26.021C159.112 26.021 159.112 26.0209 159.112 26.0209C159.112 26.0208 159.112 26.0207 159.112 26.0207C159.112 26.0206 159.112 26.0206 159.112 26.0205C159.112 26.0204 159.112 26.0204 159.112 26.0203C159.112 26.0203 159.112 26.0202 159.112 26.0202C159.112 26.0201 159.112 26.0201 159.112 26.02C159.112 26.0199 159.112 26.0199 159.112 26.0198C159.112 26.0198 159.112 26.0197 159.112 26.0197C159.112 26.0196 159.112 26.0196 159.112 26.0195C159.112 26.0194 159.112 26.0194 159.112 26.0193C159.112 26.0193 159.112 26.0192 159.112 26.0192C159.112 26.0191 159.112 26.0191 159.112 26.019C159.112 26.019 159.112 26.0189 159.112 26.0188C159.112 26.0188 159.112 26.0187 159.112 26.0187C159.112 26.0186 159.112 26.0186 159.112 26.0185C159.112 26.0185 159.112 26.0184 159.112 26.0184C159.112 26.0183 159.112 26.0183 159.112 26.0182C159.112 26.0182 159.112 26.0181 159.112 26.0181C159.112 26.018 159.112 26.018 159.112 26.0179C159.112 26.0178 159.112 26.0178 159.112 26.0177C159.112 26.0177 159.112 26.0176 159.112 26.0176C159.112 26.0175 159.112 26.0175 159.112 26.0174C159.112 26.0174 159.112 26.0173 159.112 26.0173C159.112 26.0172 159.112 26.0172 159.112 26.0171C159.112 26.0171 159.112 26.017 159.112 26.017C159.112 26.0169 159.112 26.0169 159.112 26.0168C159.112 26.0168 159.112 26.0167 159.112 26.0167C159.112 26.0167 159.112 26.0166 159.112 26.0166C159.112 26.0165 159.112 26.0165 159.112 26.0164C159.112 26.0164 159.112 26.0163 159.112 26.0163C159.112 26.0162 159.112 26.0162 159.112 26.0161C159.112 26.0161 159.112 26.016 159.112 26.016C159.112 26.0159 159.112 26.0159 159.112 26.0158C159.112 26.0158 159.112 26.0158 159.112 26.0157C159.112 26.0157 159.112 26.0156 159.112 26.0156C159.112 26.0155 159.112 26.0155 159.112 26.0154C159.112 26.0154 159.112 26.0153 159.112 26.0153C159.112 26.0152 159.112 26.0152 159.112 26.0152C159.112 26.0151 159.112 26.0151 159.112 26.015C159.112 26.015 159.112 26.0149 159.112 26.0149C159.112 26.0148 159.112 26.0148 159.112 26.0148C159.112 26.0147 159.112 26.0147 159.112 26.0146C159.112 26.0146 159.112 26.0145 159.112 26.0145C159.112 26.0145 159.112 26.0144 159.112 26.0144C159.112 26.0143 159.112 26.0143 159.112 26.0142C159.112 26.0142 159.112 26.0142 159.112 26.0141C159.112 26.0141 159.112 26.014 159.112 26.014C159.112 26.0139 159.112 26.0139 159.112 26.0139C159.112 26.0138 159.112 26.0138 159.112 26.0137C159.112 26.0137 159.112 26.0137 159.112 26.0136C159.112 26.0136 159.112 26.0135 159.112 26.0135C159.112 26.0135 159.112 26.0134 159.112 26.0134C159.112 26.0133 159.112 26.0133 159.112 26.0132C159.112 26.0132 159.112 26.0132 159.112 26.0131C159.112 26.0131 159.112 26.0131 159.112 26.013C159.112 26.013 159.112 26.0129 159.112 26.0129C159.112 26.0129 159.112 26.0128 159.112 26.0128C159.112 26.0127 159.112 26.0127 159.112 26.0127C159.112 26.0126 159.112 26.0126 159.112 26.0125C159.112 26.0125 159.112 26.0125 159.112 26.0124C159.112 26.0124 159.112 26.0124 159.112 26.0123C159.112 26.0123 159.112 26.0122 159.112 26.0122C159.112 26.0122 159.112 26.0121 159.112 26.0121C159.112 26.0121 159.112 26.012 159.112 26.012C159.112 26.0119 159.112 26.0119 159.112 26.0119C159.112 26.0118 159.112 26.0118 159.112 26.0118C159.112 26.0117 159.112 26.0117 159.112 26.0117C159.112 26.0116 159.112 26.0116 159.112 26.0116C159.112 26.0115 159.112 26.0115 159.112 26.0114C159.112 26.0114 159.112 26.0114 159.112 26.0113C159.112 26.0113 159.112 26.0113 159.112 26.0112C159.112 26.0112 159.112 26.0112 159.112 26.0111C159.112 26.0111 159.112 26.0111 159.112 26.011C159.112 26.011 159.112 26.011 159.112 26.0109C159.112 26.0109 159.112 26.0109 159.112 26.0108C159.112 26.0108 159.112 26.0108 159.112 26.0107C159.112 26.0107 159.112 26.0107 159.112 26.0106C159.112 26.0106 159.112 26.0106 159.112 26.0105C159.112 26.0105 159.112 26.0105 159.112 26.0104C159.112 26.0104 159.112 26.0104 159.112 26.0103C159.112 26.0103 159.112 26.0103 159.112 26.0102C159.112 26.0102 159.112 26.0102 159.112 26.0101C159.112 26.0101 159.112 26.0101 159.112 26.0101C159.112 26.01 159.112 26.01 159.112 26.01C159.112 26.0099 159.112 26.0099 159.112 26.0099C159.112 26.0098 159.112 26.0098 159.112 26.0098C159.112 26.0097 159.112 26.0097 159.112 26.0097C159.112 26.0097 159.112 26.0096 159.112 26.0096C159.112 26.0096 159.112 26.0095 159.112 26.0095C159.112 26.0095 159.112 26.0094 159.112 26.0094C159.112 26.0094 159.112 26.0094 159.112 26.0093C159.112 26.0093 159.112 26.0093 159.112 26.0092C159.112 26.0092 159.112 26.0092 159.112 26.0092C159.112 26.0091 159.112 26.0091 159.112 26.0091C159.112 26.009 159.112 26.009 159.112 26.009C159.112 26.009 159.112 26.0089 159.112 26.0089C159.112 26.0089 159.112 26.0088 159.112 26.0088C159.112 26.0088 159.112 26.0088 159.112 26.0087C159.112 26.0087 159.112 26.0087 159.112 26.0087C159.112 26.0086 159.112 26.0086 159.112 26.0086C159.112 26.0086 159.112 26.0085 159.112 26.0085C159.112 26.0085 159.112 26.0084 159.112 26.0084C159.112 26.0084 159.112 26.0084 159.112 26.0083C159.112 26.0083 159.112 26.0083 159.112 26.0083C159.112 26.0082 159.112 26.0082 159.112 26.0082C159.112 26.0082 159.112 26.0081 159.112 26.0081C159.112 26.0081 159.112 26.0081 159.112 26.008C159.112 26.008 159.112 26.008 159.112 26.008C159.112 26.0079 159.112 26.0079 159.112 26.0079C159.112 26.0079 159.112 26.0078 159.112 26.0078C159.112 26.0078 159.112 26.0078 159.112 26.0077C159.112 26.0077 159.112 26.0077 159.112 26.0077C159.112 26.0076 159.112 26.0076 159.112 26.0076C159.112 26.0076 159.112 26.0076 159.112 26.0075C159.112 26.0075 159.112 26.0075 159.112 26.0075C159.112 26.0074 159.112 26.0074 159.112 26.0074C159.112 26.0074 159.112 26.0073 159.112 26.0073C159.112 26.0073 159.112 26.0073 159.112 26.0073C159.112 26.0072 159.112 26.0072 159.112 26.0072C159.112 26.0072 159.112 26.0071 159.112 26.0071C159.112 26.0071 159.112 26.0071 159.112 26.0071C159.112 26.007 159.112 26.007 159.112 26.007C159.112 26.007 159.112 26.007 159.112 26.0069C159.112 26.0069 159.112 26.0069 159.112 26.0069C159.112 26.0068 159.112 26.0068 159.112 26.0068C159.112 26.0068 159.112 26.0068 159.112 26.0067C159.112 26.0067 159.112 26.0067 159.112 26.0067C159.112 26.0067 159.112 26.0066 159.112 26.0066C159.112 26.0066 159.112 26.0066 159.112 26.0066C159.112 26.0065 159.112 26.0065 159.112 26.0065C159.112 26.0065 159.112 26.0065 159.112 26.0064C159.112 26.0064 159.112 26.0064 159.112 26.0064C159.112 26.0064 159.112 26.0063 159.112 26.0063C159.112 26.0063 159.112 26.0063 159.112 26.0063C159.112 26.0063 159.112 26.0062 159.112 26.0062C159.112 26.0062 159.112 26.0062 159.112 26.0062C159.112 26.0061 159.112 26.0061 159.112 26.0061C159.112 26.0061 159.112 26.0061 159.112 26.0061C159.112 26.006 159.112 26.006 159.112 26.006C159.112 26.006 159.112 26.006 159.112 26.0059C159.112 26.0059 159.112 26.0059 159.112 26.0059C159.112 26.0059 159.112 26.0059 159.112 26.0058C159.112 26.0058 159.112 26.0058 159.112 26.0058C159.112 26.0058 159.112 26.0058 159.112 26.0057C159.112 26.0057 159.112 26.0057 159.112 26.0057C159.112 26.0057 159.112 26.0057 159.112 26.0056C159.112 26.0056 159.112 26.0056 159.112 26.0056C159.112 26.0056 159.112 26.0056 159.112 26.0055C159.112 26.0055 159.112 26.0055 159.112 26.0055C159.112 26.0055 159.112 26.0055 159.112 26.0055C159.112 26.0054 159.112 26.0054 159.112 26.0054C159.112 26.0054 159.112 26.0054 159.112 26.0054C159.112 26.0053 159.112 26.0053 159.112 26.0053C159.112 26.0053 159.112 26.0053 159.112 26.0053C159.112 26.0053 159.112 26.0052 159.112 26.0052C159.112 26.0052 159.112 26.0052 159.112 26.0052C159.112 26.0052 159.112 26.0052 159.112 26.0051C159.112 26.0051 159.112 26.0051 159.112 26.0051C159.112 26.0051 159.112 26.0051 159.112 26.0051C159.112 26.005 159.112 26.005 159.112 26.005C159.112 26.005 159.112 26.005 159.112 26.005C159.112 26.005 159.112 26.005 159.112 26.0049C159.112 26.0049 159.112 26.0049 159.112 26.0049C159.112 26.0049 159.112 26.0049 159.112 26.0049C159.112 26.0048 159.112 26.0048 159.112 26.0048C159.112 26.0048 159.112 26.0048 159.112 26.0048C159.112 26.0048 159.112 26.0048 159.112 26.0047C159.112 26.0047 159.112 26.0047 159.112 26.0047C159.112 26.0047 159.112 26.0047 159.112 26.0047C159.112 26.0047 159.112 26.0047 159.112 26.0046C159.112 26.0046 159.112 26.0046 159.112 26.0046C159.112 26.0046 159.112 26.0046 159.112 26.0046C159.112 26.0046 159.112 26.0045 159.112 26.0045C159.112 26.0045 159.112 26.0045 159.112 26.0045C159.112 26.0045 159.112 26.0045 159.112 26.0045C159.112 26.0045 159.112 26.0044 159.112 26.0044C159.112 26.0044 159.112 26.0044 159.112 26.0044C159.112 26.0044 159.112 26.0044 159.112 26.0044C159.112 26.0044 159.112 26.0044 159.112 26.0043C159.112 26.0043 159.112 26.0043 159.112 26.0043C159.112 26.0043 159.112 26.0043 159.112 26.0043C159.112 26.0043 159.112 26.0043 159.112 26.0043C159.112 26.0042 159.112 26.0042 159.112 26.0042C159.112 26.0042 159.112 26.0042 159.112 26.0042C159.112 26.0042 159.112 26.0042 159.112 26.0042C159.112 26.0042 159.112 26.0041 159.112 26.0041C159.112 26.0041 159.112 26.0041 159.112 26.0041C159.112 26.0041 159.112 26.0041 159.112 26.0041C159.112 26.0041 159.112 26.0041 159.112 26.0041C159.112 26.004 159.112 26.004 159.112 26.004C159.112 26.004 159.112 26.004 159.112 26.004C159.112 26.004 159.112 26.004 159.112 26.004C159.112 26.004 159.112 26.004 159.112 26.004C159.112 26.0039 159.112 26.0039 159.112 26.0039C159.112 26.0039 159.112 26.0039 159.112 26.0039C159.112 26.0039 159.112 26.0039 159.112 26.0039C159.112 26.0039 159.112 26.0039 159.112 26.0039C159.112 26.0039 159.112 26.0038 159.112 26.0038C159.112 26.0038 159.112 26.0038 159.112 26.0038C159.112 26.0038 159.112 26.0038 159.112 26.0038C159.112 26.0038 159.112 26.0038 159.112 26.0038C159.112 26.0038 159.112 26.0038 159.112 26.0037C159.112 26.0037 159.112 26.0037 159.112 26.0037C159.112 26.0037 159.112 26.0037 159.112 26.0037C159.112 26.0037 159.112 26.0037 159.112 26.0037C159.112 26.0037 159.112 26.0037 159.112 26.0037C159.112 26.0037 159.112 26.0037 159.112 26.0036C159.112 26.0036 159.112 26.0036 159.112 26.0036C159.112 26.0036 159.112 26.0036 159.112 26.0036C159.112 26.0036 159.112 26.0036 159.112 26.0036C159.112 26.0036 159.112 26.0036 159.112 26.0036C159.112 26.0036 159.112 26.0036 159.112 26.0036C159.112 26.0036 159.112 26.0035 159.112 26.0035C159.112 26.0035 159.112 26.0035 159.112 26.0035C159.112 26.0035 159.112 26.0035 159.112 26.0035C159.112 26.0035 159.112 26.0035 159.112 26.0035C159.112 26.0035 159.112 26.0035 159.112 26.0035C159.112 26.0035 159.112 26.0035 159.112 26.0035C159.112 26.0035 159.112 26.0035 159.112 26.0034C159.112 26.0034 159.112 26.0034 159.112 26.0034C159.112 26.0034 159.112 26.0034 159.112 26.0034C159.112 26.0034 159.112 26.0034 159.112 26.0034C159.112 26.0034 159.112 26.0034 159.112 26.0034C159.112 26.0034 159.112 26.0034 159.112 26.0034C159.112 26.0034 159.112 26.0034 159.112 26.0034C159.112 26.0034 159.112 26.0034 159.112 26.0033C159.112 26.0033 159.112 26.0033 159.112 26.0033C159.112 26.0033 159.112 26.0033 159.112 26.0033C159.112 26.0033 159.112 26.0033 159.112 26.0033C159.112 26.0033 159.112 26.0033 159.112 26.0033C159.112 26.0033 159.112 26.0033 159.112 26.0033C159.112 26.0033 159.112 26.0033 159.112 26.0033C159.112 26.0033 159.112 26.0033 159.112 26.0033C159.112 26.0033 159.112 26.0033 159.112 26.0033C159.112 26.0033 159.112 26.0033 159.112 26.0032C159.112 26.0032 159.112 26.0032 159.112 26.0032C159.112 26.0032 159.112 26.0032 159.112 26.0032C159.112 26.0032 159.112 26.0032 159.112 26.0032C159.112 26.0032 159.112 26.0032 159.112 26.0032C159.112 26.0032 159.112 26.0032 159.112 26.0032C159.112 26.0032 159.112 26.0032 159.112 26.0032C159.112 26.0032 159.112 26.0032 159.112 26.0032C159.112 26.0032 159.112 26.0032 159.112 26.0032C159.112 26.0032 159.112 26.0032 159.112 26.0032C159.112 26.0032 159.112 26.0032 159.112 26.0032C159.112 26.0032 159.112 26.0032 159.112 26.0032C159.112 26.0032 159.112 26.0031 159.112 26.0031C159.112 26.0031 159.112 26.0031 159.112 26.0031C159.112 26.0031 159.112 26.0031 159.112 26.0031C159.112 26.0031 159.112 26.0031 159.112 26.0031C159.112 26.0031 159.112 26.0031 159.112 26.0031C159.112 26.0031 159.112 26.0031 159.112 26.0031C159.112 26.0031 159.112 26.0031 159.112 26.0031C159.112 26.0031 159.112 26.0031 159.112 26.0031C159.112 26.0031 159.112 26.0031 159.112 26.0031C159.112 26.0031 159.112 26.0031 159.112 26.0031C159.112 26.0031 159.112 26.0031 159.112 26.0031C159.112 26.0031 159.112 26.0031 159.112 26.0031C159.112 26.0031 159.112 26.0031 159.112 26.0031C159.112 26.0031 159.112 26.0031 159.112 26.0031C159.112 26.0031 159.112 26.0031 159.112 26.0031C159.112 26.0031 159.112 26.0031 159.112 26.0031C159.112 26.0031 159.112 26.0031 159.112 26.0031C159.112 26.0031 159.112 26.0031 159.112 26.0031C159.112 26.0031 159.112 26.0031 159.112 26.0031C159.112 26.0031 159.112 26.003 159.112 26.003C159.112 26.003 159.112 26.003 159.112 26.003C159.112 26.003 159.112 26.003 159.112 26.003C159.112 26.003 159.112 26.003 159.112 26.003C159.112 26.003 159.112 26.003 159.112 26.003C159.112 26.003 159.112 26.003 159.112 26.003C159.112 26.003 159.112 26.003 159.112 26.003C159.112 26.003 159.112 26.003 159.112 26.003C159.112 26.003 159.112 26.003 159.112 26.003C159.112 26.003 159.112 26.003 159.112 26.003C159.112 26.003 159.112 26.003 159.112 26.003C159.112 26.003 159.112 26.003 159.112 26.003C159.112 26.003 159.112 26.003 159.112 26.003C159.112 26.003 159.112 26.003 159.112 26.003C159.112 26.003 159.112 26.003 159.112 26.003C159.112 26.003 159.112 26.003 159.112 26.003C159.112 26.003 159.112 26.003 159.112 26.003C159.112 26.003 159.112 26.003 159.112 26.003C159.112 26.003 159.112 26.003 159.112 26.003C159.112 26.003 159.112 26.003 159.112 26.003C159.112 26.003 159.112 26.003 159.112 26.003C159.112 26.003 159.112 26.003 159.112 26.003C159.112 26.003 159.112 26.003 159.112 26.003C159.112 26.003 159.112 26.003 159.112 26.003C159.112 26.003 159.112 26.003 159.112 26.003C159.112 26.003 159.112 26.003 159.112 26.003C159.112 26.003 159.112 26.003 159.112 26.003C159.112 26.003 159.112 26.003 159.112 26.003C159.112 26.003 159.112 26.003 159.112 26.003C159.112 26.003 159.112 26.003 159.112 26.003C159.112 26.003 159.112 26.003 159.112 26.003C159.112 26.003 159.112 26.003 159.112 26.003C159.112 26.003 159.112 26.003 159.112 26.003C159.112 26.003 159.112 26.003 159.112 26.003C159.112 26.003 159.112 26.003 159.112 26.003C159.112 26.003 159.112 26.003 159.112 26.003C159.112 26.003 159.112 26.003 159.112 26.003C159.112 26.003 159.112 26.003 159.112 26.003C159.112 26.003 159.112 26.003 159.112 26.003C159.112 26.003 159.112 26.003 159.112 26.003C159.112 26.003 159.112 26.003 159.112 26.003C159.112 26.003 159.112 26.003 159.112 26.003C159.112 26.003 159.112 26.003 159.112 26.003C159.112 26.003 156.612 26.003 156.612 26.003C156.612 26.003 154.112 26.003 154.112 26.003C154.112 26.003 154.112 26.003 154.112 26.003C154.112 26.003 154.112 26.003 154.112 26.003C154.112 26.003 154.112 26.003 154.112 26.003C154.112 26.003 154.112 26.003 154.112 26.003C154.112 26.003 154.112 26.003 154.112 26.003C154.112 26.003 154.112 26.003 154.112 26.003C154.112 26.003 154.112 26.003 154.112 26.003C154.112 26.003 154.112 26.003 154.112 26.003C154.112 26.003 154.112 26.003 154.112 26.003C154.112 26.003 154.112 26.003 154.112 26.003C154.112 26.003 154.112 26.003 154.112 26.003C154.112 26.003 154.112 26.003 154.112 26.003C154.112 26.003 154.112 26.003 154.112 26.003C154.112 26.003 154.112 26.003 154.112 26.003C154.112 26.003 154.112 26.003 154.112 26.003C154.112 26.003 154.112 26.003 154.112 26.003C154.112 26.003 154.112 26.003 154.112 26.003C154.112 26.003 154.112 26.003 154.112 26.003C154.112 26.003 154.112 26.003 154.112 26.003C154.112 26.003 154.112 26.003 154.112 26.003C154.112 26.003 154.112 26.003 154.112 26.003C154.112 26.003 154.112 26.003 154.112 26.003C154.112 26.003 154.112 26.003 154.112 26.003C154.112 26.003 154.112 26.003 154.112 26.003C154.112 26.003 154.112 26.003 154.112 26.003C154.112 26.003 154.112 26.003 154.112 26.003C154.112 26.003 154.112 26.003 154.112 26.003C154.112 26.003 154.112 26.003 154.112 26.003C154.112 26.003 154.112 26.003 154.112 26.003C154.112 26.003 154.112 26.003 154.112 26.003C154.112 26.003 154.112 26.003 154.112 26.003C154.112 26.003 154.112 26.003 154.112 26.003C154.112 26.003 154.112 26.003 154.112 26.003C154.112 26.003 154.112 26.003 154.112 26.003C154.112 26.003 154.112 26.003 154.112 26.003C154.112 26.003 154.112 26.003 154.112 26.003C154.112 26.003 154.112 26.003 154.112 26.003C154.112 26.003 154.112 26.003 154.112 26.003C154.112 26.003 154.112 26.003 154.112 26.003C154.112 26.003 154.112 26.003 154.112 26.003C154.112 26.003 154.112 26.003 154.112 26.003C154.112 26.003 154.112 26.003 154.112 26.003C154.112 26.003 154.112 26.0031 154.112 26.0031C154.112 26.0031 154.112 26.0031 154.112 26.0031C154.112 26.0031 154.112 26.0031 154.112 26.0031C154.112 26.0031 154.112 26.0031 154.112 26.0031C154.112 26.0031 154.112 26.0031 154.112 26.0031C154.112 26.0031 154.112 26.0031 154.112 26.0031C154.112 26.0031 154.112 26.0031 154.112 26.0031C154.112 26.0031 154.112 26.0031 154.112 26.0031C154.112 26.0031 154.112 26.0031 154.112 26.0031C154.112 26.0031 154.112 26.0031 154.112 26.0031C154.112 26.0031 154.112 26.0031 154.112 26.0031C154.112 26.0031 154.112 26.0031 154.112 26.0031C154.112 26.0031 154.112 26.0031 154.112 26.0031C154.112 26.0031 154.112 26.0031 154.112 26.0031C154.112 26.0031 154.112 26.0031 154.112 26.0031C154.112 26.0031 154.112 26.0031 154.112 26.0031C154.112 26.0031 154.112 26.0031 154.112 26.0031C154.112 26.0031 154.112 26.0031 154.112 26.0031C154.112 26.0031 154.112 26.0031 154.112 26.0031C154.112 26.0031 154.112 26.0032 154.112 26.0032C154.112 26.0032 154.112 26.0032 154.112 26.0032C154.112 26.0032 154.112 26.0032 154.112 26.0032C154.112 26.0032 154.112 26.0032 154.112 26.0032C154.112 26.0032 154.112 26.0032 154.112 26.0032C154.112 26.0032 154.112 26.0032 154.112 26.0032C154.112 26.0032 154.112 26.0032 154.112 26.0032C154.112 26.0032 154.112 26.0032 154.112 26.0032C154.112 26.0032 154.112 26.0032 154.112 26.0032C154.112 26.0032 154.112 26.0032 154.112 26.0032C154.112 26.0032 154.112 26.0032 154.112 26.0032C154.112 26.0032 154.112 26.0032 154.112 26.0032C154.112 26.0033 154.112 26.0033 154.112 26.0033C154.112 26.0033 154.112 26.0033 154.112 26.0033C154.112 26.0033 154.112 26.0033 154.112 26.0033C154.112 26.0033 154.112 26.0033 154.112 26.0033C154.112 26.0033 154.112 26.0033 154.112 26.0033C154.112 26.0033 154.112 26.0033 154.112 26.0033C154.112 26.0033 154.112 26.0033 154.112 26.0033C154.112 26.0033 154.112 26.0033 154.112 26.0033C154.112 26.0033 154.112 26.0033 154.112 26.0033C154.112 26.0034 154.112 26.0034 154.112 26.0034C154.112 26.0034 154.112 26.0034 154.112 26.0034C154.112 26.0034 154.112 26.0034 154.112 26.0034C154.112 26.0034 154.112 26.0034 154.112 26.0034C154.112 26.0034 154.112 26.0034 154.112 26.0034C154.112 26.0034 154.112 26.0034 154.112 26.0034C154.112 26.0034 154.112 26.0034 154.112 26.0034C154.112 26.0035 154.112 26.0035 154.112 26.0035C154.112 26.0035 154.112 26.0035 154.112 26.0035C154.112 26.0035 154.112 26.0035 154.112 26.0035C154.112 26.0035 154.112 26.0035 154.112 26.0035C154.112 26.0035 154.112 26.0035 154.112 26.0035C154.112 26.0035 154.112 26.0035 154.112 26.0035C154.112 26.0035 154.112 26.0036 154.112 26.0036C154.112 26.0036 154.112 26.0036 154.112 26.0036C154.112 26.0036 154.112 26.0036 154.112 26.0036C154.112 26.0036 154.112 26.0036 154.112 26.0036C154.112 26.0036 154.112 26.0036 154.112 26.0036C154.112 26.0036 154.112 26.0036 154.112 26.0036C154.112 26.0037 154.112 26.0037 154.112 26.0037C154.112 26.0037 154.112 26.0037 154.112 26.0037C154.112 26.0037 154.112 26.0037 154.112 26.0037C154.112 26.0037 154.112 26.0037 154.112 26.0037C154.112 26.0037 154.112 26.0037 154.112 26.0037C154.112 26.0038 154.112 26.0038 154.112 26.0038C154.112 26.0038 154.112 26.0038 154.112 26.0038C154.112 26.0038 154.112 26.0038 154.112 26.0038C154.112 26.0038 154.112 26.0038 154.112 26.0038C154.112 26.0038 154.112 26.0039 154.112 26.0039C154.112 26.0039 154.112 26.0039 154.112 26.0039C154.112 26.0039 154.112 26.0039 154.112 26.0039C154.112 26.0039 154.112 26.0039 154.112 26.0039C154.112 26.0039 154.112 26.0039 154.112 26.004C154.112 26.004 154.112 26.004 154.112 26.004C154.112 26.004 154.112 26.004 154.112 26.004C154.112 26.004 154.112 26.004 154.112 26.004C154.112 26.004 154.112 26.004 154.112 26.0041C154.112 26.0041 154.112 26.0041 154.112 26.0041C154.112 26.0041 154.112 26.0041 154.112 26.0041C154.112 26.0041 154.112 26.0041 154.112 26.0041C154.112 26.0041 154.112 26.0042 154.112 26.0042C154.112 26.0042 154.112 26.0042 154.112 26.0042C154.112 26.0042 154.112 26.0042 154.112 26.0042C154.112 26.0042 154.112 26.0042 154.112 26.0043C154.112 26.0043 154.112 26.0043 154.112 26.0043C154.112 26.0043 154.112 26.0043 154.112 26.0043C154.112 26.0043 154.112 26.0043 154.112 26.0043C154.112 26.0044 154.112 26.0044 154.112 26.0044C154.112 26.0044 154.112 26.0044 154.112 26.0044C154.112 26.0044 154.112 26.0044 154.112 26.0044C154.112 26.0044 154.112 26.0045 154.112 26.0045C154.112 26.0045 154.112 26.0045 154.112 26.0045C154.112 26.0045 154.112 26.0045 154.112 26.0045C154.112 26.0045 154.112 26.0046 154.112 26.0046C154.112 26.0046 154.112 26.0046 154.112 26.0046C154.112 26.0046 154.112 26.0046 154.112 26.0046C154.112 26.0047 154.112 26.0047 154.112 26.0047C154.112 26.0047 154.112 26.0047 154.112 26.0047C154.112 26.0047 154.112 26.0047 154.112 26.0047C154.112 26.0048 154.112 26.0048 154.112 26.0048C154.112 26.0048 154.112 26.0048 154.112 26.0048C154.112 26.0048 154.112 26.0048 154.112 26.0049C154.112 26.0049 154.112 26.0049 154.112 26.0049C154.112 26.0049 154.112 26.0049 154.112 26.0049C154.112 26.005 154.112 26.005 154.112 26.005C154.112 26.005 154.112 26.005 154.112 26.005C154.112 26.005 154.112 26.005 154.112 26.0051C154.112 26.0051 154.112 26.0051 154.112 26.0051C154.112 26.0051 154.112 26.0051 154.112 26.0051C154.112 26.0052 154.112 26.0052 154.112 26.0052C154.112 26.0052 154.112 26.0052 154.112 26.0052C154.112 26.0052 154.112 26.0053 154.112 26.0053C154.112 26.0053 154.112 26.0053 154.112 26.0053C154.112 26.0053 154.112 26.0053 154.112 26.0054C154.112 26.0054 154.112 26.0054 154.112 26.0054C154.112 26.0054 154.112 26.0054 154.112 26.0055C154.112 26.0055 154.112 26.0055 154.112 26.0055C154.112 26.0055 154.112 26.0055 154.112 26.0055C154.112 26.0056 154.112 26.0056 154.112 26.0056C154.112 26.0056 154.112 26.0056 154.112 26.0056C154.112 26.0057 154.112 26.0057 154.112 26.0057C154.112 26.0057 154.112 26.0057 154.112 26.0057C154.112 26.0058 154.112 26.0058 154.112 26.0058C154.112 26.0058 154.112 26.0058 154.112 26.0058C154.112 26.0059 154.112 26.0059 154.112 26.0059C154.112 26.0059 154.112 26.0059 154.112 26.0059C154.112 26.006 154.112 26.006 154.112 26.006C154.112 26.006 154.112 26.006 154.112 26.0061C154.112 26.0061 154.112 26.0061 154.112 26.0061C154.112 26.0061 154.112 26.0061 154.112 26.0062C154.112 26.0062 154.112 26.0062 154.112 26.0062C154.112 26.0062 154.112 26.0063 154.112 26.0063C154.112 26.0063 154.112 26.0063 154.112 26.0063C154.112 26.0063 154.112 26.0064 154.112 26.0064C154.112 26.0064 154.112 26.0064 154.112 26.0064C154.112 26.0065 154.112 26.0065 154.112 26.0065C154.112 26.0065 154.112 26.0065 154.112 26.0066C154.112 26.0066 154.112 26.0066 154.112 26.0066C154.112 26.0066 154.112 26.0067 154.112 26.0067C154.112 26.0067 154.112 26.0067 154.112 26.0067C154.112 26.0068 154.112 26.0068 154.112 26.0068C154.112 26.0068 154.112 26.0068 154.112 26.0069C154.112 26.0069 154.112 26.0069 154.112 26.0069C154.112 26.007 154.112 26.007 154.112 26.007C154.112 26.007 154.112 26.007 154.112 26.0071C154.112 26.0071 154.112 26.0071 154.112 26.0071C154.112 26.0071 154.112 26.0072 154.112 26.0072C154.112 26.0072 154.112 26.0072 154.112 26.0073C154.112 26.0073 154.112 26.0073 154.112 26.0073C154.112 26.0073 154.112 26.0074 154.112 26.0074C154.112 26.0074 154.112 26.0074 154.112 26.0075C154.112 26.0075 154.112 26.0075 154.112 26.0075C154.112 26.0076 154.112 26.0076 154.112 26.0076C154.112 26.0076 154.112 26.0076 154.112 26.0077C154.112 26.0077 154.112 26.0077 154.112 26.0077C154.112 26.0078 154.112 26.0078 154.112 26.0078C154.112 26.0078 154.112 26.0079 154.112 26.0079C154.112 26.0079 154.112 26.0079 154.112 26.008C154.112 26.008 154.112 26.008 154.112 26.008C154.112 26.0081 154.112 26.0081 154.112 26.0081C154.112 26.0081 154.112 26.0082 154.112 26.0082C154.112 26.0082 154.112 26.0082 154.112 26.0083C154.112 26.0083 154.112 26.0083 154.112 26.0083C154.112 26.0084 154.112 26.0084 154.112 26.0084C154.112 26.0084 154.112 26.0085 154.112 26.0085C154.112 26.0085 154.112 26.0086 154.112 26.0086C154.112 26.0086 154.112 26.0086 154.112 26.0087C154.112 26.0087 154.112 26.0087 154.112 26.0087C154.112 26.0088 154.112 26.0088 154.112 26.0088C154.112 26.0088 154.112 26.0089 154.112 26.0089C154.112 26.0089 154.112 26.009 154.112 26.009C154.112 26.009 154.112 26.009 154.112 26.0091C154.112 26.0091 154.112 26.0091 154.112 26.0092C154.112 26.0092 154.112 26.0092 154.112 26.0092C154.112 26.0093 154.112 26.0093 154.112 26.0093C154.112 26.0094 154.112 26.0094 154.112 26.0094C154.112 26.0094 154.112 26.0095 154.112 26.0095C154.112 26.0095 154.112 26.0096 154.112 26.0096C154.112 26.0096 154.112 26.0097 154.112 26.0097C154.112 26.0097 154.112 26.0097 154.112 26.0098C154.112 26.0098 154.112 26.0098 154.112 26.0099C154.112 26.0099 154.112 26.0099 154.112 26.01C154.112 26.01 154.112 26.01 154.112 26.0101C154.112 26.0101 154.112 26.0101 154.112 26.0101C154.112 26.0102 154.112 26.0102 154.112 26.0102C154.112 26.0103 154.112 26.0103 154.112 26.0103C154.112 26.0104 154.112 26.0104 154.112 26.0104C154.112 26.0105 154.112 26.0105 154.112 26.0105C154.112 26.0106 154.112 26.0106 154.112 26.0106C154.112 26.0107 154.112 26.0107 154.112 26.0107C154.112 26.0108 154.112 26.0108 154.112 26.0108C154.112 26.0109 154.112 26.0109 154.112 26.0109C154.112 26.011 154.112 26.011 154.112 26.011C154.112 26.0111 154.112 26.0111 154.112 26.0111C154.112 26.0112 154.112 26.0112 154.112 26.0112C154.112 26.0113 154.112 26.0113 154.112 26.0113C154.112 26.0114 154.112 26.0114 154.112 26.0114C154.112 26.0115 154.112 26.0115 154.112 26.0116C154.112 26.0116 154.112 26.0116 154.112 26.0117C154.112 26.0117 154.112 26.0117 154.112 26.0118C154.112 26.0118 154.112 26.0118 154.112 26.0119C154.112 26.0119 154.112 26.0119 154.112 26.012C154.112 26.012 154.112 26.0121 154.112 26.0121C154.112 26.0121 154.112 26.0122 154.112 26.0122C154.112 26.0122 154.112 26.0123 154.112 26.0123C154.112 26.0124 154.112 26.0124 154.112 26.0124C154.112 26.0125 154.112 26.0125 154.112 26.0125C154.112 26.0126 154.112 26.0126 154.112 26.0127C154.112 26.0127 154.112 26.0127 154.112 26.0128C154.112 26.0128 154.112 26.0129 154.112 26.0129C154.112 26.0129 154.112 26.013 154.112 26.013C154.112 26.0131 154.112 26.0131 154.112 26.0131C154.112 26.0132 154.112 26.0132 154.112 26.0132C154.112 26.0133 154.112 26.0133 154.112 26.0134C154.112 26.0134 154.112 26.0135 154.112 26.0135C154.112 26.0135 154.112 26.0136 154.112 26.0136C154.112 26.0137 154.112 26.0137 154.112 26.0137C154.112 26.0138 154.112 26.0138 154.112 26.0139C154.112 26.0139 154.112 26.0139 154.112 26.014C154.112 26.014 154.112 26.0141 154.112 26.0141C154.112 26.0142 154.112 26.0142 154.112 26.0142C154.112 26.0143 154.112 26.0143 154.112 26.0144C154.112 26.0144 154.112 26.0145 154.112 26.0145C154.112 26.0145 154.112 26.0146 154.112 26.0146C154.112 26.0147 154.112 26.0147 154.112 26.0148C154.112 26.0148 154.112 26.0148 154.112 26.0149C154.112 26.0149 154.112 26.015 154.112 26.015C154.112 26.0151 154.112 26.0151 154.112 26.0152C154.112 26.0152 154.112 26.0152 154.112 26.0153C154.112 26.0153 154.112 26.0154 154.112 26.0154C154.112 26.0155 154.112 26.0155 154.112 26.0156C154.112 26.0156 154.112 26.0157 154.112 26.0157C154.112 26.0158 154.112 26.0158 154.112 26.0158C154.112 26.0159 154.112 26.0159 154.112 26.016C154.112 26.016 154.112 26.0161 154.112 26.0161C154.112 26.0162 154.112 26.0162 154.112 26.0163C154.112 26.0163 154.112 26.0164 154.112 26.0164C154.112 26.0165 154.112 26.0165 154.112 26.0166C154.112 26.0166 154.112 26.0167 154.112 26.0167C154.112 26.0167 154.112 26.0168 154.112 26.0168C154.112 26.0169 154.112 26.0169 154.112 26.017C154.112 26.017 154.112 26.0171 154.112 26.0171C154.112 26.0172 154.112 26.0172 154.112 26.0173C154.112 26.0173 154.112 26.0174 154.112 26.0174C154.112 26.0175 154.112 26.0175 154.112 26.0176C154.112 26.0176 154.112 26.0177 154.112 26.0177C154.112 26.0178 154.112 26.0178 154.112 26.0179C154.112 26.018 154.112 26.018 154.112 26.0181C154.112 26.0181 154.112 26.0182 154.112 26.0182C154.112 26.0183 154.112 26.0183 154.112 26.0184C154.112 26.0184 154.112 26.0185 154.112 26.0185C154.112 26.0186 154.112 26.0186 154.112 26.0187C154.112 26.0187 154.112 26.0188 154.112 26.0188C154.112 26.0189 154.112 26.019 154.112 26.019C154.112 26.0191 154.112 26.0191 154.112 26.0192C154.112 26.0192 154.112 26.0193 154.112 26.0193C154.112 26.0194 154.112 26.0194 154.112 26.0195C154.112 26.0196 154.112 26.0196 154.112 26.0197C154.112 26.0197 154.112 26.0198 154.112 26.0198C154.112 26.0199 154.112 26.0199 154.112 26.02C154.112 26.0201 154.112 26.0201 154.112 26.0202C154.112 26.0202 154.112 26.0203 154.112 26.0203C154.112 26.0204 154.112 26.0204 154.112 26.0205C154.112 26.0206 154.112 26.0206 154.112 26.0207C154.112 26.0207 154.112 26.0208 154.112 26.0209C154.112 26.0209 154.112 26.021 154.112 26.021C154.112 26.0211 154.112 26.0211 154.112 26.0212C154.112 26.0213 154.112 26.0213 154.112 26.0214C154.112 26.0214 154.112 26.0215 154.112 26.0216C154.112 26.0216 154.112 26.0217 154.112 26.0217C154.112 26.0218 154.112 26.0219 154.112 26.0219C154.112 26.022 154.112 26.022 154.112 26.0221C154.112 26.0222 154.112 26.0222 154.112 26.0223C154.112 26.0223 154.112 26.0224 154.112 26.0225C154.112 26.0225 154.112 26.0226 154.112 26.0226C154.112 26.0227 154.112 26.0228 154.112 26.0228C154.112 26.0229 154.112 26.023 154.112 26.023C154.112 26.0231 154.112 26.0231 154.112 26.0232C154.112 26.0233 154.112 26.0233 154.112 26.0234C154.112 26.0235 154.112 26.0235 154.112 26.0236C154.112 26.0237 154.112 26.0237 154.112 26.0238C154.112 26.0238 154.112 26.0239 154.112 26.024C154.112 26.024 154.112 26.0241 154.112 26.0242C154.112 26.0242 154.112 26.0243 154.112 26.0244C154.112 26.0244 154.112 26.0245 154.112 26.0246C154.112 26.0246 154.112 26.0247 154.112 26.0248C154.112 26.0248 154.112 26.0249 154.112 26.025C154.112 26.025 154.112 26.0251 154.112 26.0252C154.112 26.0252 154.112 26.0253 154.112 26.0254C154.112 26.0254 154.112 26.0255 154.112 26.0256C154.112 26.0256 154.112 26.0257 154.112 26.0258C154.112 26.0258 154.112 26.0259 154.112 26.026C154.112 26.026 154.112 26.0261 154.112 26.0262C154.112 26.0262 154.112 26.0263 154.112 26.0264C154.112 26.0265 154.112 26.0265 154.112 26.0266C154.112 26.0267 154.112 26.0267 154.112 26.0268C154.112 26.0269 154.112 26.0269 154.112 26.027C154.112 26.0271 154.112 26.0272 154.112 26.0272C154.112 26.0273 154.112 26.0274 154.112 26.0274C154.112 26.0275 154.112 26.0276 154.112 26.0277C154.112 26.0277 154.112 26.0278 154.112 26.0279C154.112 26.0279 154.112 26.028 154.112 26.0281C154.112 26.0282 154.112 26.0282 154.112 26.0283C154.112 26.0284 154.112 26.0285 154.112 26.0285C154.112 26.0286 154.112 26.0287 154.112 26.0287C154.112 26.0288 154.112 26.0289 154.112 26.029C154.112 26.029 154.112 26.0291 154.112 26.0292C154.112 26.0293 154.112 26.0293 154.112 26.0294C154.112 26.0295 154.112 26.0296 154.112 26.0296C154.112 26.0297 154.112 26.0298 154.112 26.0299C154.112 26.0299 154.112 26.03 154.112 26.0301C154.112 26.0302 154.112 26.0303 154.112 26.0303C154.112 26.0304 154.112 26.0305 154.112 26.0306C154.112 26.0306 154.112 26.0307 154.112 26.0308C154.112 26.0309 154.112 26.031 154.112 26.031C154.112 26.0311 154.112 26.0312 154.112 26.0313C154.112 26.0313 154.112 26.0314 154.112 26.0315C154.112 26.0316 154.112 26.0317 154.112 26.0317C154.112 26.0318 154.112 26.0319 154.112 26.032C154.112 26.0321 154.112 26.0321 154.112 26.0322C154.112 26.0323 154.112 26.0324 154.112 26.0325C154.112 26.0325 154.112 26.0326 154.112 26.0327C154.112 26.0328 154.112 26.0329 154.112 26.033C154.112 26.033 154.112 26.0331 154.112 26.0332C154.112 26.0333 154.112 26.0334 154.112 26.0334C154.112 26.0335 154.112 26.0336 154.112 26.0337C154.112 26.0338 154.112 26.0339 154.112 26.0339C154.112 26.034 154.112 26.0341 154.112 26.0342C154.112 26.0343 154.112 26.0344 154.112 26.0345C154.112 26.0345 154.112 26.0346 154.112 26.0347C154.112 26.0348 154.112 26.0349 154.112 26.035C154.112 26.035 154.112 26.0351 154.112 26.0352C154.112 26.0353 154.112 26.0354 154.112 26.0355C154.112 26.0356 154.112 26.0356 154.112 26.0357C154.112 26.0358 154.112 26.0359 154.112 26.036C154.112 26.0361 154.112 26.0362 154.112 26.0363C154.112 26.0363 154.112 26.0364 154.112 26.0365C154.112 26.0366 154.112 26.0367 154.112 26.0368C154.112 26.0369 154.112 26.037 154.112 26.0371C154.112 26.0371 154.112 26.0372 154.112 26.0373C154.112 26.0374 154.112 26.0375 154.112 26.0376C154.112 26.0377 154.112 26.0378 154.112 26.0379C154.112 26.038 154.112 26.038 154.112 26.0381C154.112 26.0382 154.112 26.0383 154.112 26.0384C154.112 26.0385 154.112 26.0386 154.112 26.0387C154.112 26.0388 154.112 26.0389 154.112 26.039C154.112 26.0391 154.112 26.0391 154.112 26.0392C154.112 26.0393 154.112 26.0394 154.112 26.0395C154.112 26.0396 154.112 26.0397 154.112 26.0398C154.112 26.0399 154.112 26.04 154.112 26.0401C154.112 26.0402 154.112 26.0403 154.112 26.0404C154.112 26.0405 154.112 26.0406 154.112 26.0407C154.112 26.0407 154.112 26.0408 154.112 26.0409C154.112 26.041 154.112 26.0411 154.112 26.0412C154.112 26.0413 154.112 26.0414 154.112 26.0415C154.112 26.0416 154.112 26.0417 154.112 26.0418C154.112 26.0419 154.112 26.042 154.112 26.0421C154.112 26.0422 154.112 26.0423 154.112 26.0424C154.112 26.0425 154.112 26.0426 154.112 26.0427C154.112 26.0428 154.112 26.0429 154.112 26.043C154.112 26.0431 154.112 26.0432 154.112 26.0433C154.112 26.0434 154.112 26.0435 154.112 26.0436C154.112 26.0437 154.112 26.0438 154.112 26.0439C154.112 26.044 154.112 26.0441 154.112 26.0442C154.112 26.0443 154.112 26.0444 154.112 26.0445C154.112 26.0446 154.112 26.0447 154.112 26.0448C154.112 26.0449 154.112 26.045 154.112 26.0451C154.112 26.0452 154.112 26.0453 154.112 26.0454C154.112 26.0455 154.112 26.0456 154.112 26.0457C154.112 26.0458 154.112 26.0459 154.112 26.046C154.112 26.0461 154.112 26.0462 154.112 26.0464C154.112 26.0465 154.112 26.0466 154.112 26.0467C154.112 26.0468 154.112 26.0469 154.112 26.047C154.112 26.0471 154.112 26.0472 154.112 26.0473C154.112 26.0474 154.112 26.0475 154.112 26.0476C154.112 26.0477 154.112 26.0478 154.112 26.0479C154.112 26.048 154.112 26.0482 154.112 26.0483C154.112 26.0484 154.112 26.0485 154.112 26.0486C154.112 26.0487 154.112 26.0488 154.112 26.0489C154.112 26.049 154.112 26.0491 154.112 26.0492C154.112 26.0493 154.112 26.0495 154.112 26.0496C154.112 26.0497 154.112 26.0498 154.112 26.0499C154.112 26.05 154.112 26.0501 154.112 26.0502C154.112 26.0503 154.112 26.0505 154.112 26.0506C154.112 26.0507 154.112 26.0508 154.112 26.0509C154.112 26.051 154.112 26.0511 154.112 26.0512C154.112 26.0513 154.112 26.0515 154.112 26.0516C154.112 26.0517 154.112 26.0518 154.112 26.0519C154.112 26.052 154.112 26.0521 154.112 26.0523C154.112 26.0524 154.112 26.0525 154.112 26.0526C154.112 26.0527 154.112 26.0528 154.112 26.0529C154.112 26.0531 154.112 26.0532 154.112 26.0533C154.112 26.0534 154.112 26.0535 154.112 26.0536C154.112 26.0538 154.112 26.0539 154.112 26.054C154.112 26.0541 154.112 26.0542 154.112 26.0543C154.112 26.0545 154.112 26.0546 154.112 26.0547C154.112 26.0548 154.112 26.0549 154.112 26.055C154.112 26.0552 154.112 26.0553 154.112 26.0554C154.112 26.0555 154.112 26.0556 154.112 26.0558C154.112 26.0559 154.112 26.056 154.112 26.0561C154.112 26.0562 154.112 26.0564 154.112 26.0565C154.112 26.0566 154.112 26.0567 154.112 26.0568C154.112 26.057 154.112 26.0571 154.112 26.0572C154.112 26.0573 154.112 26.0574 154.112 26.0576C154.112 26.0577 154.112 26.0578 154.112 26.0579C154.112 26.0581 154.112 26.0582 154.112 26.0583C154.112 26.0584 154.112 26.0585 154.112 26.0587C154.112 26.0588 154.112 26.0589 154.112 26.059C154.112 26.0592 154.112 26.0593 154.112 26.0594C154.112 26.0595 154.112 26.0597 154.112 26.0598C154.112 26.0599 154.112 26.06 154.112 26.0602C154.112 26.0603 154.112 26.0604 154.112 26.0605C154.112 26.0607 154.112 26.0608 154.112 26.0609C154.112 26.0611 154.112 26.0612 154.112 26.0613C154.112 26.0614 154.112 26.0616 154.112 26.0617C154.112 26.0618 154.112 26.062 154.112 26.0621C154.112 26.0622 154.112 26.0623 154.112 26.0625C154.112 26.0626 154.112 26.0627 154.112 26.0629C154.112 26.063 154.112 26.0631 154.112 26.0632C154.112 26.0634 154.112 26.0635 154.112 26.0636C154.112 26.0638 154.112 26.0639 154.112 26.064C154.112 26.0642 154.112 26.0643 154.112 26.0644C154.112 26.0646 154.112 26.0647 154.112 26.0648C154.112 26.065 154.112 26.0651 154.112 26.0652C154.112 26.0654 154.112 26.0655 154.112 26.0656C154.112 26.0658 154.112 26.0659 154.112 26.066C154.112 26.0662 154.112 26.0663 154.112 26.0664C154.112 26.0666 154.112 26.0667 154.112 26.0668C154.112 26.067 154.112 26.0671 154.112 26.0672C154.112 26.0674 154.112 26.0675 154.112 26.0677C154.112 26.0678 154.112 26.0679 154.112 26.0681C154.112 26.0682 154.112 26.0683 154.112 26.0685C154.112 26.0686 154.112 26.0688 154.112 26.0689C154.112 26.069 154.112 26.0692 154.112 26.0693C154.112 26.0694 154.112 26.0696 154.112 26.0697C154.112 26.0699 154.112 26.07 154.112 26.0701C154.112 26.0703 154.112 26.0704 154.112 26.0706C154.112 26.0707 154.112 26.0708 154.112 26.071C154.112 26.0711 154.112 26.0713 154.112 26.0714C154.112 26.0716 154.112 26.0717 154.112 26.0718C154.112 26.072 154.112 26.0721 154.112 26.0723C154.112 26.0724 154.112 26.0726 154.112 26.0727C154.112 26.0728 154.112 26.073 154.112 26.0731C154.112 26.0733 154.112 26.0734 154.112 26.0736C154.112 26.0737 154.112 26.0739 154.112 26.074C154.112 26.0741 154.112 26.0743 154.112 26.0744C154.112 26.0746 154.112 26.0747 154.112 26.0749C154.112 26.075 154.112 26.0752 154.112 26.0753C154.112 26.0755 154.112 26.0756 154.112 26.0758C154.112 26.0759 154.112 26.0761 154.112 26.0762C154.112 26.0764 154.112 26.0765 154.112 26.0767C154.112 26.0768 154.112 26.0769 154.112 26.0771C154.112 26.0772 154.112 26.0774 154.112 26.0775C154.112 26.0777 154.112 26.0779 154.112 26.078C154.112 26.0782 154.112 26.0783 154.112 26.0785C154.112 26.0786 154.112 26.0788 154.112 26.0789C154.112 26.0791 154.112 26.0792 154.112 26.0794C154.112 26.0795 154.112 26.0797 154.112 26.0798C154.112 26.08 154.112 26.0801 154.112 26.0803C154.112 26.0804 154.112 26.0806 154.112 26.0808C154.112 26.0809 154.112 26.0811 154.112 26.0812C154.112 26.0814 154.112 26.0815 154.112 26.0817C154.112 26.0818 154.112 26.082 154.112 26.0821C154.112 26.0823 154.112 26.0825 154.112 26.0826C154.112 26.0828 154.112 26.0829 154.112 26.0831C154.112 26.0832 154.112 26.0834 154.112 26.0836C154.112 26.0837 154.112 26.0839 154.112 26.084C154.112 26.0842 154.112 26.0844 154.112 26.0845C154.112 26.0847 154.112 26.0848 154.112 26.085H159.112ZM154.728 24.3592C152.777 26.5953 150.203 29.3222 147.397 31.0799C144.598 32.8336 142.089 33.324 139.798 32.1444L137.509 36.5896C142.066 38.936 146.568 37.4994 150.052 35.3171C153.529 33.1388 156.511 29.9207 158.495 27.6468L154.728 24.3592ZM139.732 32.1117C138.434 31.4907 137.41 29.8821 136.764 27.1923C136.142 24.6034 136.028 21.6693 135.987 19.3578L130.988 19.4462C131.029 21.7677 131.141 25.1886 131.903 28.3602C132.64 31.4309 134.159 34.9883 137.575 36.6223L139.732 32.1117ZM135.976 19.1592C135.946 18.8482 136.022 18.6569 136.312 18.424C136.686 18.1242 137.358 17.8516 138.199 17.7836C139.044 17.7153 139.741 17.8789 140.125 18.0926C140.421 18.2571 140.377 18.3255 140.377 18.377H145.377C145.377 16.153 144.098 14.5814 142.556 13.7235C141.103 12.9147 139.361 12.6734 137.796 12.7999C136.228 12.9266 134.523 13.4484 133.182 14.5247C131.758 15.6679 130.784 17.4343 131 19.6447L135.976 19.1592ZM140.377 18.377C140.377 18.3495 140.377 18.3567 140.373 18.4593C140.368 18.5491 140.363 18.6491 140.356 18.7998C140.342 19.0862 140.325 19.4748 140.311 19.9515C140.284 20.905 140.274 22.2041 140.338 23.7687L145.334 23.5633C145.211 20.5741 145.377 19.0264 145.377 18.377H140.377ZM140.338 23.7727C140.406 25.3548 140.623 26.7381 141.047 27.8797C141.471 29.0242 142.181 30.1209 143.346 30.7784C144.546 31.4549 145.816 31.4354 146.871 31.1518C147.889 30.878 148.83 30.3332 149.645 29.7353C152.811 27.4114 156.098 22.7438 157.834 19.1861L153.34 16.9939C151.795 20.1602 148.953 24.0411 146.687 25.7045C146.143 26.1034 145.77 26.2703 145.572 26.3234C145.411 26.3666 145.565 26.2892 145.802 26.4231C146.006 26.538 145.908 26.6074 145.734 26.1403C145.56 25.6702 145.389 24.8575 145.333 23.5593L140.338 23.7727Z" fill="#FED97C" mask="url(#path-3-outside-2_81_40)"/>
</g>
<defs>
<clipPath id="clip0_81_40">
<rect width="176" height="56" fill="white"/>
</clipPath>
</defs>
</svg>
