<svg width="176" height="56" viewBox="0 0 176 56" fill="none" xmlns="http://www.w3.org/2000/svg">
<g clip-path="url(#clip0_71_24)">
<mask id="path-1-outside-1_71_24" maskUnits="userSpaceOnUse" x="1" y="5" width="71" height="39" fill="black">
<rect fill="white" x="1" y="5" width="71" height="39"/>
<path d="M2.912 43C2.392 43 2.08 42.688 2.08 42.064V7.328C2.08 6.86 2.34 6.6 2.808 6.6H12.428C18.98 6.6 20.28 10.812 20.28 14.66V16.116C20.28 19.548 18.876 21.628 16.016 22.772C19.708 23.448 21.216 26.776 21.216 31.092V33.432C21.216 38.008 19.708 43 12.428 43H2.912ZM11.492 37.28C13.104 37.28 13.676 36.136 13.676 33.952V29.896C13.676 27.712 13.104 26.516 11.492 26.516H9.62V37.28H11.492ZM11.492 21.16C13.104 21.16 13.676 20.224 13.676 18.56V14.868C13.676 13.204 13.104 12.32 11.492 12.32H9.62V21.16H11.492ZM25.1058 43C24.5338 43 24.2738 42.636 24.2738 41.96V7.64C24.2738 6.964 24.5338 6.6 25.1058 6.6H30.9818C31.5018 6.6 31.8138 6.964 31.8138 7.64V41.96C31.8138 42.636 31.5018 43 30.9818 43H25.1058ZM40.4182 43C39.8982 43 39.5862 42.636 39.5862 41.96V13.36H35.3222C34.8022 13.36 34.4902 12.996 34.4902 12.32V7.64C34.4902 6.964 34.8022 6.6 35.3222 6.6H51.3382C51.8582 6.6 52.1702 6.964 52.1702 7.64V12.32C52.1702 12.996 51.8582 13.36 51.3382 13.36H47.1262V41.96C47.1262 42.636 46.8142 43 46.2942 43H40.4182ZM55.7245 43C55.2045 43 54.8925 42.636 54.8925 41.96V7.64C54.8925 6.964 55.2045 6.6 55.7245 6.6H69.9205C70.4405 6.6 70.7525 6.964 70.7525 7.64V12.32C70.7525 12.996 70.4405 13.36 69.9205 13.36H62.4325V20.64H68.3085C68.8285 20.64 69.1405 21.004 69.1405 21.68V26.256C69.1405 26.932 68.8285 27.296 68.3085 27.296H62.4325V36.24H69.9205C70.4405 36.24 70.7525 36.604 70.7525 37.28V41.96C70.7525 42.636 70.4405 43 69.9205 43H55.7245Z"/>
</mask>
<path d="M2.912 43C2.392 43 2.08 42.688 2.08 42.064V7.328C2.08 6.86 2.34 6.6 2.808 6.6H12.428C18.98 6.6 20.28 10.812 20.28 14.66V16.116C20.28 19.548 18.876 21.628 16.016 22.772C19.708 23.448 21.216 26.776 21.216 31.092V33.432C21.216 38.008 19.708 43 12.428 43H2.912ZM11.492 37.28C13.104 37.28 13.676 36.136 13.676 33.952V29.896C13.676 27.712 13.104 26.516 11.492 26.516H9.62V37.28H11.492ZM11.492 21.16C13.104 21.16 13.676 20.224 13.676 18.56V14.868C13.676 13.204 13.104 12.32 11.492 12.32H9.62V21.16H11.492ZM25.1058 43C24.5338 43 24.2738 42.636 24.2738 41.96V7.64C24.2738 6.964 24.5338 6.6 25.1058 6.6H30.9818C31.5018 6.6 31.8138 6.964 31.8138 7.64V41.96C31.8138 42.636 31.5018 43 30.9818 43H25.1058ZM40.4182 43C39.8982 43 39.5862 42.636 39.5862 41.96V13.36H35.3222C34.8022 13.36 34.4902 12.996 34.4902 12.32V7.64C34.4902 6.964 34.8022 6.6 35.3222 6.6H51.3382C51.8582 6.6 52.1702 6.964 52.1702 7.64V12.32C52.1702 12.996 51.8582 13.36 51.3382 13.36H47.1262V41.96C47.1262 42.636 46.8142 43 46.2942 43H40.4182ZM55.7245 43C55.2045 43 54.8925 42.636 54.8925 41.96V7.64C54.8925 6.964 55.2045 6.6 55.7245 6.6H69.9205C70.4405 6.6 70.7525 6.964 70.7525 7.64V12.32C70.7525 12.996 70.4405 13.36 69.9205 13.36H62.4325V20.64H68.3085C68.8285 20.64 69.1405 21.004 69.1405 21.68V26.256C69.1405 26.932 68.8285 27.296 68.3085 27.296H62.4325V36.24H69.9205C70.4405 36.24 70.7525 36.604 70.7525 37.28V41.96C70.7525 42.636 70.4405 43 69.9205 43H55.7245Z" fill="black"/>
<path d="M16.016 22.772L15.6446 21.8435L12.4254 23.1312L15.8359 23.7556L16.016 22.772ZM9.62 26.516V25.516H8.62V26.516H9.62ZM9.62 37.28H8.62V38.28H9.62V37.28ZM9.62 12.32V11.32H8.62V12.32H9.62ZM9.62 21.16H8.62V22.16H9.62V21.16ZM2.912 42C2.88062 42 2.8876 41.9952 2.91862 42.007C2.95357 42.0203 2.99875 42.0473 3.03815 42.0903C3.11916 42.1786 3.08 42.2211 3.08 42.064H1.08C1.08 42.5309 1.19684 43.0414 1.56385 43.4417C1.94304 43.8554 2.44936 44 2.912 44V42ZM3.08 42.064V7.328H1.08V42.064H3.08ZM3.08 7.328C3.08 7.2749 3.09186 7.37935 2.97561 7.4956C2.85936 7.61186 2.7549 7.6 2.808 7.6V5.6C2.3931 5.6 1.92464 5.71814 1.56139 6.08139C1.19814 6.44464 1.08 6.91309 1.08 7.328H3.08ZM2.808 7.6H12.428V5.6H2.808V7.6ZM12.428 7.6C15.4727 7.6 17.0994 8.5647 18.0094 9.78482C18.9623 11.0626 19.28 12.8165 19.28 14.66H21.28C21.28 12.6555 20.9477 10.3794 19.6126 8.58917C18.2346 6.7413 15.9353 5.6 12.428 5.6V7.6ZM19.28 14.66V16.116H21.28V14.66H19.28ZM19.28 16.116C19.28 17.6974 18.9571 18.8708 18.3816 19.7577C17.8097 20.6392 16.9287 21.3299 15.6446 21.8435L16.3874 23.7005C17.9633 23.0701 19.2143 22.1488 20.0594 20.8463C20.9009 19.5492 21.28 17.9666 21.28 16.116H19.28ZM15.8359 23.7556C17.3812 24.0386 18.4359 24.854 19.1339 26.0661C19.8537 27.3158 20.216 29.0333 20.216 31.092H22.216C22.216 28.8347 21.8244 26.7302 20.8671 25.0679C19.8881 23.368 18.3428 22.1814 16.1961 21.7884L15.8359 23.7556ZM20.216 31.092V33.432H22.216V31.092H20.216ZM20.216 33.432C20.216 35.6428 19.8454 37.7851 18.7355 39.3546C17.6725 40.8579 15.8122 42 12.428 42V44C16.3238 44 18.8575 42.646 20.3685 40.5094C21.8326 38.4389 22.216 35.7972 22.216 33.432H20.216ZM12.428 42H2.912V44H12.428V42ZM11.492 38.28C12.5783 38.28 13.4808 37.8668 14.0398 36.9596C14.5356 36.1552 14.676 35.0882 14.676 33.952H12.676C12.676 34.9998 12.5304 35.5968 12.3372 35.9104C12.2072 36.1212 12.0177 36.28 11.492 36.28V38.28ZM14.676 33.952V29.896H12.676V33.952H14.676ZM14.676 29.896C14.676 28.7581 14.5349 27.6842 14.0451 26.8711C13.4941 25.9561 12.5959 25.516 11.492 25.516V27.516C12.0001 27.516 12.1939 27.6739 12.3319 27.9029C12.5311 28.2338 12.676 28.8499 12.676 29.896H14.676ZM11.492 25.516H9.62V27.516H11.492V25.516ZM8.62 26.516V37.28H10.62V26.516H8.62ZM9.62 38.28H11.492V36.28H9.62V38.28ZM11.492 22.16C12.4969 22.16 13.3849 21.8587 13.9772 21.0987C14.5269 20.3936 14.676 19.47 14.676 18.56H12.676C12.676 19.314 12.5391 19.6904 12.3998 19.8693C12.3031 19.9933 12.0991 20.16 11.492 20.16V22.16ZM14.676 18.56V14.868H12.676V18.56H14.676ZM14.676 14.868C14.676 13.9596 14.5276 13.0404 13.9682 12.3439C13.3687 11.5973 12.4789 11.32 11.492 11.32V13.32C12.1171 13.32 12.3193 13.4847 12.4088 13.5961C12.5384 13.7576 12.676 14.1124 12.676 14.868H14.676ZM11.492 11.32H9.62V13.32H11.492V11.32ZM8.62 12.32V21.16H10.62V12.32H8.62ZM9.62 22.16H11.492V20.16H9.62V22.16ZM25.1058 42C25.0673 42 25.0824 41.9938 25.1267 42.0127C25.1492 42.0222 25.175 42.0366 25.201 42.0566C25.2271 42.0767 25.2484 42.0986 25.2647 42.1196C25.2971 42.1612 25.2984 42.184 25.2917 42.158C25.2846 42.1304 25.2738 42.0683 25.2738 41.96H23.2738C23.2738 42.3978 23.3531 42.9194 23.686 43.3474C24.0567 43.824 24.5923 44 25.1058 44V42ZM25.2738 41.96V7.64H23.2738V41.96H25.2738ZM25.2738 7.64C25.2738 7.53173 25.2846 7.46964 25.2917 7.44201C25.2984 7.41595 25.2971 7.43876 25.2647 7.48044C25.2484 7.50138 25.2271 7.5233 25.201 7.54337C25.175 7.56343 25.1492 7.57775 25.1267 7.58732C25.0824 7.60623 25.0673 7.6 25.1058 7.6V5.6C24.5923 5.6 24.0567 5.77596 23.686 6.25256C23.3531 6.68057 23.2738 7.20223 23.2738 7.64H25.2738ZM25.1058 7.6H30.9818V5.6H25.1058V7.6ZM30.9818 7.6C30.995 7.6 30.9727 7.60208 30.9312 7.58393C30.8865 7.56445 30.846 7.53299 30.8176 7.49817C30.7915 7.46614 30.7904 7.44949 30.7964 7.47022C30.8028 7.49233 30.8138 7.54582 30.8138 7.64H32.8138C32.8138 7.16426 32.7057 6.6492 32.3681 6.23483C32.0064 5.79091 31.4937 5.6 30.9818 5.6V7.6ZM30.8138 7.64V41.96H32.8138V7.64H30.8138ZM30.8138 41.96C30.8138 42.0542 30.8028 42.1077 30.7964 42.1298C30.7904 42.1505 30.7915 42.1339 30.8176 42.1018C30.846 42.067 30.8865 42.0355 30.9312 42.0161C30.9728 41.9979 30.995 42 30.9818 42V44C31.4937 44 32.0064 43.8091 32.3681 43.3652C32.7057 42.9508 32.8138 42.4357 32.8138 41.96H30.8138ZM30.9818 42H25.1058V44H30.9818V42ZM39.5862 13.36H40.5862V12.36H39.5862V13.36ZM47.1262 13.36V12.36H46.1262V13.36H47.1262ZM40.4182 42C40.4051 42 40.4273 41.9979 40.4689 42.0161C40.5135 42.0355 40.5541 42.067 40.5825 42.1018C40.6085 42.1339 40.6097 42.1505 40.6037 42.1298C40.5973 42.1077 40.5862 42.0542 40.5862 41.96H38.5862C38.5862 42.4357 38.6943 42.9508 39.032 43.3652C39.3937 43.8091 39.9063 44 40.4182 44V42ZM40.5862 41.96V13.36H38.5862V41.96H40.5862ZM39.5862 12.36H35.3222V14.36H39.5862V12.36ZM35.3222 12.36C35.3091 12.36 35.3313 12.3579 35.3729 12.3761C35.4175 12.3955 35.4581 12.427 35.4865 12.4618C35.5125 12.4939 35.5137 12.5105 35.5077 12.4898C35.5013 12.4677 35.4902 12.4142 35.4902 12.32H33.4902C33.4902 12.7957 33.5983 13.3108 33.936 13.7252C34.2977 14.1691 34.8103 14.36 35.3222 14.36V12.36ZM35.4902 12.32V7.64H33.4902V12.32H35.4902ZM35.4902 7.64C35.4902 7.54582 35.5013 7.49233 35.5077 7.47022C35.5137 7.44949 35.5126 7.46614 35.4865 7.49817C35.4581 7.53299 35.4175 7.56445 35.3729 7.58393C35.3313 7.60208 35.3091 7.6 35.3222 7.6V5.6C34.8103 5.6 34.2977 5.79091 33.936 6.23483C33.5983 6.6492 33.4902 7.16426 33.4902 7.64H35.4902ZM35.3222 7.6H51.3382V5.6H35.3222V7.6ZM51.3382 7.6C51.3514 7.6 51.3291 7.60208 51.2875 7.58393C51.2429 7.56445 51.2024 7.53299 51.174 7.49817C51.1479 7.46615 51.1467 7.44949 51.1527 7.47022C51.1591 7.49233 51.1702 7.54582 51.1702 7.64H53.1702C53.1702 7.16426 53.0621 6.6492 52.7245 6.23483C52.3628 5.79091 51.8501 5.6 51.3382 5.6V7.6ZM51.1702 7.64V12.32H53.1702V7.64H51.1702ZM51.1702 12.32C51.1702 12.4142 51.1591 12.4677 51.1527 12.4898C51.1467 12.5105 51.1479 12.4938 51.174 12.4618C51.2024 12.427 51.2429 12.3955 51.2875 12.3761C51.3291 12.3579 51.3514 12.36 51.3382 12.36V14.36C51.8501 14.36 52.3627 14.1691 52.7245 13.7252C53.0621 13.3108 53.1702 12.7957 53.1702 12.32H51.1702ZM51.3382 12.36H47.1262V14.36H51.3382V12.36ZM46.1262 13.36V41.96H48.1262V13.36H46.1262ZM46.1262 41.96C46.1262 42.0542 46.1151 42.1077 46.1087 42.1298C46.1027 42.1505 46.1039 42.1339 46.13 42.1018C46.1584 42.067 46.1989 42.0355 46.2435 42.0161C46.2851 41.9979 46.3074 42 46.2942 42V44C46.8061 44 47.3187 43.8091 47.6805 43.3652C48.0181 42.9508 48.1262 42.4357 48.1262 41.96H46.1262ZM46.2942 42H40.4182V44H46.2942V42ZM62.4325 13.36V12.36H61.4325V13.36H62.4325ZM62.4325 20.64H61.4325V21.64H62.4325V20.64ZM62.4325 27.296V26.296H61.4325V27.296H62.4325ZM62.4325 36.24H61.4325V37.24H62.4325V36.24ZM55.7245 42C55.7114 42 55.7336 41.9979 55.7752 42.0161C55.8198 42.0355 55.8604 42.067 55.8887 42.1018C55.9148 42.1339 55.916 42.1505 55.91 42.1298C55.9036 42.1077 55.8925 42.0542 55.8925 41.96H53.8925C53.8925 42.4357 54.0006 42.9508 54.3383 43.3652C54.7 43.8091 55.2126 44 55.7245 44V42ZM55.8925 41.96V7.64H53.8925V41.96H55.8925ZM55.8925 7.64C55.8925 7.54582 55.9036 7.49233 55.91 7.47022C55.916 7.44949 55.9148 7.46614 55.8887 7.49817C55.8604 7.53299 55.8198 7.56445 55.7752 7.58393C55.7336 7.60208 55.7114 7.6 55.7245 7.6V5.6C55.2126 5.6 54.7 5.79091 54.3383 6.23483C54.0006 6.6492 53.8925 7.16426 53.8925 7.64H55.8925ZM55.7245 7.6H69.9205V5.6H55.7245V7.6ZM69.9205 7.6C69.9336 7.6 69.9114 7.60208 69.8698 7.58393C69.8252 7.56445 69.7846 7.53299 69.7563 7.49817C69.7302 7.46615 69.729 7.44949 69.735 7.47022C69.7414 7.49233 69.7525 7.54582 69.7525 7.64H71.7525C71.7525 7.16426 71.6444 6.6492 71.3067 6.23483C70.945 5.79091 70.4324 5.6 69.9205 5.6V7.6ZM69.7525 7.64V12.32H71.7525V7.64H69.7525ZM69.7525 12.32C69.7525 12.4142 69.7414 12.4677 69.735 12.4898C69.729 12.5105 69.7302 12.4938 69.7563 12.4618C69.7846 12.427 69.8252 12.3955 69.8698 12.3761C69.9114 12.3579 69.9336 12.36 69.9205 12.36V14.36C70.4324 14.36 70.945 14.1691 71.3067 13.7252C71.6444 13.3108 71.7525 12.7957 71.7525 12.32H69.7525ZM69.9205 12.36H62.4325V14.36H69.9205V12.36ZM61.4325 13.36V20.64H63.4325V13.36H61.4325ZM62.4325 21.64H68.3085V19.64H62.4325V21.64ZM68.3085 21.64C68.3216 21.64 68.2994 21.6421 68.2578 21.6239C68.2132 21.6045 68.1726 21.573 68.1443 21.5382C68.1182 21.5061 68.117 21.4895 68.123 21.5102C68.1294 21.5323 68.1405 21.5858 68.1405 21.68H70.1405C70.1405 21.2043 70.0324 20.6892 69.6947 20.2748C69.333 19.8309 68.8204 19.64 68.3085 19.64V21.64ZM68.1405 21.68V26.256H70.1405V21.68H68.1405ZM68.1405 26.256C68.1405 26.3502 68.1294 26.4037 68.123 26.4258C68.117 26.4465 68.1182 26.4299 68.1443 26.3978C68.1726 26.363 68.2132 26.3316 68.2578 26.3121C68.2994 26.2939 68.3216 26.296 68.3085 26.296V28.296C68.8204 28.296 69.333 28.1051 69.6947 27.6612C70.0324 27.2468 70.1405 26.7317 70.1405 26.256H68.1405ZM68.3085 26.296H62.4325V28.296H68.3085V26.296ZM61.4325 27.296V36.24H63.4325V27.296H61.4325ZM62.4325 37.24H69.9205V35.24H62.4325V37.24ZM69.9205 37.24C69.9336 37.24 69.9114 37.2421 69.8698 37.2239C69.8252 37.2044 69.7846 37.173 69.7563 37.1382C69.7302 37.1061 69.729 37.0895 69.735 37.1102C69.7414 37.1323 69.7525 37.1858 69.7525 37.28H71.7525C71.7525 36.8043 71.6444 36.2892 71.3067 35.8748C70.945 35.4309 70.4324 35.24 69.9205 35.24V37.24ZM69.7525 37.28V41.96H71.7525V37.28H69.7525ZM69.7525 41.96C69.7525 42.0542 69.7414 42.1077 69.735 42.1298C69.729 42.1505 69.7302 42.1339 69.7563 42.1018C69.7846 42.067 69.8252 42.0355 69.8698 42.0161C69.9114 41.9979 69.9336 42 69.9205 42V44C70.4324 44 70.945 43.8091 71.3067 43.3652C71.6444 42.9508 71.7525 42.4357 71.7525 41.96H69.7525ZM69.9205 42H55.7245V44H69.9205V42Z" fill="black" mask="url(#path-1-outside-1_71_24)"/>
<mask id="path-3-outside-2_71_24" maskUnits="userSpaceOnUse" x="74" y="3" width="92" height="49" fill="black">
<rect fill="white" x="74" y="3" width="92" height="49"/>
<path d="M105.233 16.901C106.094 24.035 104.905 31.62 99.862 37.237C97.115 40.394 92.933 42.485 88.669 42.526C85.635 42.526 82.847 41.542 80.592 39.369C78.87 37.647 77.886 35.597 77.435 33.465C76.656 30.021 77.312 26.003 79.854 23.215C82.109 20.755 85.594 19.443 89.612 20.509C91.58 21.042 93.179 22.354 93.466 25.019C93.589 26.372 93.056 27.93 91.867 28.873C90.514 29.939 88.464 29.529 87.726 28.299C87.029 27.11 85.143 26.946 84.405 28.217C84.2 28.586 84.077 28.873 84.036 29.324C83.913 29.693 83.872 30.103 83.872 30.554C83.913 31.292 84.077 32.276 84.61 33.014C84.815 33.465 85.143 33.793 85.471 33.998C85.758 34.244 86.127 34.531 86.455 34.613C87.152 34.859 88.095 34.9 89.202 34.654C91.211 34.121 93.097 32.563 94.286 30.472C97.197 25.511 95.393 17.721 93.466 12.35C91.416 5.052 101.871 2.879 103.798 10.423C103.921 10.751 104.208 11.858 104.618 13.662C104.823 14.564 104.987 15.712 105.233 16.901ZM130.491 23.133C131.311 26.864 130.696 30.636 128.851 34.203C128.195 35.269 127.457 36.212 126.555 37.114C125.694 37.975 124.669 38.713 123.562 39.287C120.692 40.886 117.248 40.845 114.337 39.246C110.237 36.95 107.736 31.661 107.941 26.741C108.105 22.559 109.376 19.279 111.385 16.983C115.444 12.35 122.742 11.858 127.211 16.532C128.031 17.393 128.728 18.459 129.343 19.566C129.876 20.714 130.245 21.862 130.491 23.133ZM123.07 28.053C123.316 27.52 123.521 26.987 123.644 26.454C123.767 25.88 123.808 25.265 123.849 24.732C123.89 24.445 123.849 24.158 123.808 23.912C123.808 23.666 123.685 23.256 123.644 23.092C123.439 22.518 123.275 21.985 123.07 21.616C122.988 21.37 122.865 21.206 122.66 21.001C121.799 19.853 120.282 19.197 118.765 19.894C116.92 20.755 115.936 24.199 116.141 26.987C116.551 31.825 120.938 32.317 123.07 28.053ZM155.587 18.09C156.735 15.097 159.195 14.359 160.958 14.892C162.147 15.22 163.008 15.753 163.008 17.926C163.008 18.459 162.721 21.944 162.721 25.183C162.721 26.823 162.721 28.709 162.639 30.718C162.516 32.809 162.311 35.064 161.942 37.442C161.696 38.59 161.409 39.861 160.917 41.132C160.466 42.485 159.769 43.797 158.785 45.027C157.801 46.257 156.571 47.323 155.095 48.061C154.357 48.43 153.537 48.758 152.717 48.922C151.815 49.127 151.036 49.168 150.257 49.168C148.658 49.127 147.428 48.799 146.403 48.389C145.337 48.061 144.476 47.651 143.82 47.282C142.508 46.585 141.524 45.97 141.073 45.56C136.522 41.378 142.754 34.203 146.895 37.77C146.977 37.811 147.387 38.18 148.002 38.631C148.207 38.795 148.33 38.918 148.535 39C148.699 39.205 148.945 39.328 149.109 39.41C153.865 42.239 155.136 34.818 155.669 31.62C156.038 29.734 156.366 27.807 156.612 26.085C156.612 26.003 156.612 26.003 156.612 26.003C152.676 30.513 145.501 37.893 138.654 34.367C133.939 32.112 133.57 24.035 133.488 19.402C132.996 14.359 142.877 13.826 142.877 18.377C142.877 18.705 142.713 20.673 142.836 23.666C143.328 35.187 152.307 24.814 155.587 18.09Z"/>
</mask>
<path d="M105.233 16.901C106.094 24.035 104.905 31.62 99.862 37.237C97.115 40.394 92.933 42.485 88.669 42.526C85.635 42.526 82.847 41.542 80.592 39.369C78.87 37.647 77.886 35.597 77.435 33.465C76.656 30.021 77.312 26.003 79.854 23.215C82.109 20.755 85.594 19.443 89.612 20.509C91.58 21.042 93.179 22.354 93.466 25.019C93.589 26.372 93.056 27.93 91.867 28.873C90.514 29.939 88.464 29.529 87.726 28.299C87.029 27.11 85.143 26.946 84.405 28.217C84.2 28.586 84.077 28.873 84.036 29.324C83.913 29.693 83.872 30.103 83.872 30.554C83.913 31.292 84.077 32.276 84.61 33.014C84.815 33.465 85.143 33.793 85.471 33.998C85.758 34.244 86.127 34.531 86.455 34.613C87.152 34.859 88.095 34.9 89.202 34.654C91.211 34.121 93.097 32.563 94.286 30.472C97.197 25.511 95.393 17.721 93.466 12.35C91.416 5.052 101.871 2.879 103.798 10.423C103.921 10.751 104.208 11.858 104.618 13.662C104.823 14.564 104.987 15.712 105.233 16.901ZM130.491 23.133C131.311 26.864 130.696 30.636 128.851 34.203C128.195 35.269 127.457 36.212 126.555 37.114C125.694 37.975 124.669 38.713 123.562 39.287C120.692 40.886 117.248 40.845 114.337 39.246C110.237 36.95 107.736 31.661 107.941 26.741C108.105 22.559 109.376 19.279 111.385 16.983C115.444 12.35 122.742 11.858 127.211 16.532C128.031 17.393 128.728 18.459 129.343 19.566C129.876 20.714 130.245 21.862 130.491 23.133ZM123.07 28.053C123.316 27.52 123.521 26.987 123.644 26.454C123.767 25.88 123.808 25.265 123.849 24.732C123.89 24.445 123.849 24.158 123.808 23.912C123.808 23.666 123.685 23.256 123.644 23.092C123.439 22.518 123.275 21.985 123.07 21.616C122.988 21.37 122.865 21.206 122.66 21.001C121.799 19.853 120.282 19.197 118.765 19.894C116.92 20.755 115.936 24.199 116.141 26.987C116.551 31.825 120.938 32.317 123.07 28.053ZM155.587 18.09C156.735 15.097 159.195 14.359 160.958 14.892C162.147 15.22 163.008 15.753 163.008 17.926C163.008 18.459 162.721 21.944 162.721 25.183C162.721 26.823 162.721 28.709 162.639 30.718C162.516 32.809 162.311 35.064 161.942 37.442C161.696 38.59 161.409 39.861 160.917 41.132C160.466 42.485 159.769 43.797 158.785 45.027C157.801 46.257 156.571 47.323 155.095 48.061C154.357 48.43 153.537 48.758 152.717 48.922C151.815 49.127 151.036 49.168 150.257 49.168C148.658 49.127 147.428 48.799 146.403 48.389C145.337 48.061 144.476 47.651 143.82 47.282C142.508 46.585 141.524 45.97 141.073 45.56C136.522 41.378 142.754 34.203 146.895 37.77C146.977 37.811 147.387 38.18 148.002 38.631C148.207 38.795 148.33 38.918 148.535 39C148.699 39.205 148.945 39.328 149.109 39.41C153.865 42.239 155.136 34.818 155.669 31.62C156.038 29.734 156.366 27.807 156.612 26.085C156.612 26.003 156.612 26.003 156.612 26.003C152.676 30.513 145.501 37.893 138.654 34.367C133.939 32.112 133.57 24.035 133.488 19.402C132.996 14.359 142.877 13.826 142.877 18.377C142.877 18.705 142.713 20.673 142.836 23.666C143.328 35.187 152.307 24.814 155.587 18.09Z" fill="#F04521"/>
<path d="M105.233 16.901L107.368 16.6434L107.357 16.5538L107.338 16.4654L105.233 16.901ZM99.862 37.237L98.2622 35.8007L98.251 35.8131L98.2401 35.8257L99.862 37.237ZM88.669 42.526V44.676H88.6793L88.6897 44.6759L88.669 42.526ZM80.592 39.369L79.0717 40.8893L79.0858 40.9034L79.1001 40.9172L80.592 39.369ZM77.435 33.465L79.5385 33.02L79.5353 33.0053L79.532 32.9907L77.435 33.465ZM79.854 23.215L78.2691 21.7622L78.2652 21.7664L79.854 23.215ZM89.612 20.509L90.1741 18.4337L90.1633 18.4309L89.612 20.509ZM93.466 25.019L95.6072 24.8243L95.6056 24.8066L95.6036 24.7888L93.466 25.019ZM91.867 28.873L93.1976 30.5618L93.203 30.5575L91.867 28.873ZM87.726 28.299L85.8712 29.3863L85.8767 29.3958L85.8824 29.4052L87.726 28.299ZM84.405 28.217L82.5457 27.1374L82.5355 27.155L82.5256 27.1729L84.405 28.217ZM84.036 29.324L86.0757 30.0039L86.1546 29.7672L86.1772 29.5187L84.036 29.324ZM83.872 30.554H81.722V30.6137L81.7253 30.6733L83.872 30.554ZM84.61 33.014L86.5673 32.1243L86.4785 31.9291L86.353 31.7552L84.61 33.014ZM85.471 33.998L86.8702 32.3656L86.7475 32.2604L86.6105 32.1748L85.471 33.998ZM86.455 34.613L87.1706 32.5856L87.0749 32.5518L86.9765 32.5272L86.455 34.613ZM89.202 34.654L89.6684 36.7528L89.7111 36.7433L89.7533 36.7321L89.202 34.654ZM94.286 30.472L92.4317 29.3839L92.4243 29.3965L92.417 29.4093L94.286 30.472ZM93.466 12.35L91.3961 12.9314L91.4167 13.0046L91.4423 13.0761L93.466 12.35ZM103.798 10.423L101.715 10.9551L101.744 11.0684L101.785 11.1779L103.798 10.423ZM103.098 17.1586C103.916 23.9308 102.747 30.8058 98.2622 35.8007L101.462 38.6733C107.063 32.4342 108.272 24.1392 107.368 16.6434L103.098 17.1586ZM98.2401 35.8257C95.8644 38.5559 92.2501 40.3415 88.6483 40.3761L88.6897 44.6759C93.6159 44.6285 98.3656 42.2321 101.484 38.6483L98.2401 35.8257ZM88.669 40.376C86.1303 40.376 83.8963 39.5673 82.0839 37.8208L79.1001 40.9172C81.7977 43.5167 85.1397 44.676 88.669 44.676V40.376ZM82.1123 37.8487C80.7195 36.4559 79.9141 34.7956 79.5385 33.02L75.3315 33.91C75.8579 36.3984 77.0205 38.8381 79.0717 40.8893L82.1123 37.8487ZM79.532 32.9907C78.8737 30.0803 79.4703 26.8269 81.4428 24.6636L78.2652 21.7664C75.1537 25.1791 74.4383 29.9617 75.338 33.9393L79.532 32.9907ZM81.4389 24.6678C83.1759 22.7729 85.8472 21.7345 89.0607 22.5871L90.1633 18.4309C85.3408 17.1515 81.0421 18.7371 78.2691 21.7622L81.4389 24.6678ZM89.05 22.5842C89.7524 22.7745 90.2568 23.0676 90.6002 23.4342C90.9262 23.7823 91.2288 24.3243 91.3284 25.2492L95.6036 24.7888C95.4162 23.0487 94.7758 21.6022 93.7386 20.4948C92.7187 19.4059 91.4396 18.7765 90.174 18.4338L89.05 22.5842ZM91.3248 25.2137C91.3911 25.943 91.0786 26.7542 90.531 27.1885L93.203 30.5575C95.0334 29.1058 95.7869 26.801 95.6072 24.8243L91.3248 25.2137ZM90.5364 27.1842C90.3903 27.2993 90.1639 27.3651 89.9034 27.3237C89.6159 27.278 89.5445 27.151 89.5696 27.1928L85.8824 29.4052C86.6455 30.677 87.9681 31.37 89.2284 31.5703C90.5156 31.7749 91.9907 31.5127 93.1976 30.5618L90.5364 27.1842ZM89.5808 27.2117C88.821 25.9156 87.4687 25.2487 86.1823 25.1879C84.8602 25.1254 83.3793 25.7017 82.5457 27.1374L86.2643 29.2966C86.2312 29.3537 86.1685 29.4148 86.0937 29.452C86.0292 29.484 85.9873 29.4835 85.9794 29.4831C85.9725 29.4828 85.9668 29.482 85.9546 29.4751C85.9388 29.4661 85.9025 29.4397 85.8712 29.3863L89.5808 27.2117ZM82.5256 27.1729C82.2381 27.6903 81.9726 28.2734 81.8948 29.1293L86.1772 29.5187C86.1804 29.4828 86.1839 29.4656 86.1848 29.4612C86.1855 29.4578 86.1858 29.4572 86.1864 29.4553C86.1893 29.4472 86.2049 29.4042 86.2844 29.2611L82.5256 27.1729ZM81.9963 28.6441C81.7705 29.3216 81.722 29.9899 81.722 30.554H86.022C86.022 30.2161 86.0555 30.0644 86.0757 30.0039L81.9963 28.6441ZM81.7253 30.6733C81.7732 31.5345 81.9671 33.0268 82.867 34.2728L86.353 31.7552C86.2857 31.6621 86.2039 31.4971 86.1364 31.2393C86.0701 30.9862 86.0337 30.7057 86.0187 30.4347L81.7253 30.6733ZM82.6527 33.9037C83.0529 34.7841 83.689 35.4197 84.3315 35.8212L86.6105 32.1748C86.608 32.1732 86.5981 32.1662 86.5875 32.1545C86.5782 32.1442 86.5718 32.1343 86.5673 32.1243L82.6527 33.9037ZM84.0718 35.6304C84.2398 35.7744 84.4797 35.9724 84.755 36.1559C85.0088 36.3251 85.4218 36.5709 85.9336 36.6988L86.9765 32.5272C87.0824 32.5537 87.1455 32.5843 87.1589 32.591C87.175 32.5989 87.1693 32.5975 87.1402 32.5781C87.1124 32.5595 87.0746 32.5323 87.0262 32.4944C86.9783 32.4568 86.9267 32.414 86.8702 32.3656L84.0718 35.6304ZM85.7394 36.6404C86.9159 37.0557 88.2867 37.0598 89.6684 36.7528L88.7356 32.5552C87.9033 32.7402 87.3881 32.6623 87.1706 32.5856L85.7394 36.6404ZM89.7533 36.7321C92.4135 36.0263 94.7324 34.0364 96.155 31.5347L92.417 29.4093C91.4616 31.0896 90.0085 32.2157 88.6507 32.5759L89.7533 36.7321ZM96.1403 31.5601C97.9301 28.5099 98.1773 24.7841 97.8293 21.3481C97.4773 17.8717 96.4858 14.4004 95.4897 11.6239L91.4423 13.0761C92.3732 15.6706 93.2472 18.7798 93.5512 21.7814C93.8592 24.8234 93.5529 27.4731 92.4317 29.3839L96.1403 31.5601ZM95.5359 11.7686C95.1679 10.4586 95.4056 9.60711 95.7479 9.07989C96.1142 8.51559 96.7532 8.08858 97.5567 7.93011C99.0962 7.62646 101.049 8.34781 101.715 10.9551L105.881 9.8909C104.62 4.95418 100.382 2.99003 96.7246 3.71139C94.9297 4.06541 93.2189 5.07853 92.1412 6.73848C91.0395 8.43551 90.7391 10.5924 91.3961 12.9314L95.5359 11.7686ZM101.785 11.1779C101.783 11.1734 101.805 11.2337 101.852 11.4015C101.896 11.5544 101.951 11.7596 102.017 12.0197C102.149 12.5391 102.319 13.2476 102.521 14.1385L106.715 13.1855C106.318 11.4397 105.997 10.1645 105.811 9.66808L101.785 11.1779ZM102.521 14.1385C102.611 14.531 102.694 14.9928 102.793 15.5498C102.889 16.0897 102.997 16.7063 103.128 17.3366L107.338 16.4654C107.223 15.9067 107.126 15.3548 107.027 14.798C106.931 14.2582 106.83 13.695 106.715 13.1855L102.521 14.1385ZM130.491 23.133L128.38 23.5415L128.385 23.5681L128.391 23.5945L130.491 23.133ZM128.851 34.203L130.682 35.3298L130.724 35.2617L130.761 35.1908L128.851 34.203ZM126.555 37.114L125.035 35.5937L125.035 35.5937L126.555 37.114ZM123.562 39.287L122.572 37.3783L122.544 37.3932L122.516 37.4088L123.562 39.287ZM114.337 39.246L113.286 41.1219L113.294 41.1262L113.302 41.1304L114.337 39.246ZM107.941 26.741L110.089 26.8305L110.089 26.8252L107.941 26.741ZM111.385 16.983L109.768 15.5662L109.767 15.5672L111.385 16.983ZM127.211 16.532L128.768 15.0492L128.765 15.0462L127.211 16.532ZM129.343 19.566L131.293 18.6606L131.26 18.59L131.222 18.5219L129.343 19.566ZM123.07 28.053L124.993 29.0145L125.008 28.9845L125.022 28.954L123.07 28.053ZM123.644 26.454L125.739 26.9374L125.743 26.921L125.746 26.9045L123.644 26.454ZM123.849 24.732L121.721 24.4279L121.711 24.4973L121.705 24.5671L123.849 24.732ZM123.808 23.912H121.658V24.0899L121.687 24.2655L123.808 23.912ZM123.644 23.092L125.73 22.5706L125.704 22.4682L125.669 22.3689L123.644 23.092ZM123.07 21.616L121.03 22.2959L121.093 22.4855L121.19 22.6601L123.07 21.616ZM122.66 21.001L120.94 22.291L121.032 22.4132L121.14 22.5213L122.66 21.001ZM118.765 19.894L117.867 17.9403L117.856 17.9457L118.765 19.894ZM116.141 26.987L113.997 27.1447L113.998 27.1566L113.999 27.1686L116.141 26.987ZM128.391 23.5945C129.09 26.7764 128.585 30.0379 126.941 33.2152L130.761 35.1908C132.807 31.2341 133.531 26.9516 132.591 22.6715L128.391 23.5945ZM127.02 33.0762C126.449 34.0034 125.815 34.8136 125.035 35.5937L128.075 38.6343C129.099 37.6104 129.941 36.5346 130.682 35.3298L127.02 33.0762ZM125.035 35.5937C124.339 36.2889 123.496 36.8992 122.572 37.3783L124.552 41.1957C125.842 40.5268 127.048 39.6611 128.075 38.6343L125.035 35.5937ZM122.516 37.4088C120.319 38.6326 117.662 38.6193 115.372 37.3616L113.302 41.1304C116.834 43.0707 121.065 43.1394 124.608 41.1652L122.516 37.4088ZM115.387 37.3701C112.124 35.5423 109.911 31.1001 110.089 26.8305L105.793 26.6515C105.561 32.2219 108.35 38.3577 113.286 41.1219L115.387 37.3701ZM110.089 26.8252C110.238 23.033 111.379 20.2547 113.003 18.3988L109.767 15.5672C107.373 18.3033 105.972 22.085 105.793 26.6568L110.089 26.8252ZM113.002 18.3998C116.283 14.6551 122.116 14.314 125.657 18.0178L128.765 15.0462C123.368 9.40203 114.605 10.0449 109.768 15.5662L113.002 18.3998ZM125.654 18.0148C126.295 18.6883 126.89 19.5775 127.463 20.6101L131.222 18.5219C130.566 17.3405 129.766 16.0977 128.768 15.0492L125.654 18.0148ZM127.393 20.4714C127.85 21.4566 128.166 22.4374 128.38 23.5415L132.602 22.7245C132.323 21.2866 131.902 19.9714 131.293 18.6606L127.393 20.4714ZM125.022 28.954C125.302 28.3467 125.571 27.6665 125.739 26.9374L121.549 25.9705C121.471 26.3075 121.33 26.6933 121.118 27.152L125.022 28.954ZM125.746 26.9045C125.906 26.1585 125.955 25.3816 125.993 24.8969L121.705 24.5671C121.661 25.1484 121.628 25.6015 121.542 26.0035L125.746 26.9045ZM125.977 25.0361C126.07 24.388 125.97 23.808 125.929 23.5585L121.687 24.2655C121.696 24.3187 121.702 24.3584 121.707 24.3931C121.712 24.4272 121.714 24.4502 121.715 24.4654C121.718 24.4987 121.713 24.4799 121.721 24.4279L125.977 25.0361ZM125.958 23.912C125.958 23.52 125.873 23.1454 125.835 22.9827C125.81 22.8754 125.785 22.7775 125.765 22.7046C125.741 22.6126 125.735 22.5927 125.73 22.5706L121.558 23.6134C121.568 23.6511 121.578 23.6891 121.585 23.7171C121.594 23.7516 121.6 23.7728 121.608 23.8049C121.624 23.8626 121.637 23.9134 121.648 23.9598C121.659 24.008 121.664 24.0353 121.665 24.0449C121.666 24.0487 121.665 24.0407 121.663 24.0229C121.661 24.0065 121.658 23.9676 121.658 23.912H125.958ZM125.669 22.3689C125.526 21.9695 125.268 21.1457 124.949 20.5719L121.19 22.6601C121.282 22.8243 121.352 23.0665 121.619 23.8151L125.669 22.3689ZM125.11 20.9361C124.883 20.2564 124.515 19.8154 124.18 19.4807L121.14 22.5213C121.197 22.5783 121.176 22.5645 121.137 22.5072C121.115 22.4761 121.093 22.4388 121.072 22.3972C121.052 22.3559 121.039 22.3206 121.03 22.2959L125.11 20.9361ZM124.38 19.711C123.065 17.9573 120.518 16.7225 117.867 17.9403L119.663 21.8477C119.909 21.7345 120.108 21.7397 120.292 21.7999C120.506 21.8694 120.747 22.0334 120.94 22.291L124.38 19.711ZM117.856 17.9457C116.131 18.7506 115.163 20.5221 114.65 22.0214C114.103 23.6191 113.873 25.4681 113.997 27.1447L118.285 26.8293C118.203 25.7179 118.363 24.4509 118.718 23.4144C119.107 22.2794 119.554 21.8984 119.674 21.8423L117.856 17.9457ZM113.999 27.1686C114.253 30.1659 115.888 32.6807 118.666 33.0632C121.325 33.4293 123.688 31.625 124.993 29.0145L121.147 27.0915C120.32 28.745 119.423 28.8267 119.253 28.8033C119.202 28.7963 118.439 28.6461 118.283 26.8054L113.999 27.1686ZM155.587 18.09L157.519 19.0326L157.56 18.9479L157.594 18.86L155.587 18.09ZM160.958 14.892L160.336 16.95L160.361 16.9576L160.386 16.9646L160.958 14.892ZM162.639 30.718L164.785 30.8443L164.786 30.825L164.787 30.8057L162.639 30.718ZM161.942 37.442L164.044 37.8925L164.057 37.8324L164.066 37.7717L161.942 37.442ZM160.917 41.132L158.912 40.3559L158.893 40.4036L158.877 40.4521L160.917 41.132ZM158.785 45.027L157.106 43.6839L157.106 43.6839L158.785 45.027ZM155.095 48.061L154.133 46.138L154.133 46.138L155.095 48.061ZM152.717 48.922L152.295 46.8138L152.268 46.8193L152.24 46.8255L152.717 48.922ZM150.257 49.168L150.202 51.3173L150.229 51.318H150.257V49.168ZM146.403 48.389L147.201 46.3928L147.119 46.36L147.035 46.3341L146.403 48.389ZM143.82 47.282L144.874 45.4081L144.851 45.3954L144.828 45.3833L143.82 47.282ZM141.073 45.56L139.618 47.1431L139.627 47.1509L141.073 45.56ZM146.895 37.77L145.492 39.399L145.694 39.5735L145.933 39.693L146.895 37.77ZM148.002 38.631L149.345 36.9521L149.31 36.9239L149.273 36.8972L148.002 38.631ZM148.535 39L150.214 37.6569L149.86 37.2143L149.333 37.0038L148.535 39ZM149.109 39.41L150.208 37.5622L150.14 37.5221L150.07 37.487L149.109 39.41ZM155.669 31.62L153.559 31.2072L153.553 31.2368L153.548 31.2665L155.669 31.62ZM156.612 26.085L158.74 26.3891L158.762 26.2378V26.085H156.612ZM156.612 26.003H158.762V20.2697L154.992 24.5893L156.612 26.003ZM138.654 34.367L139.638 32.4556L139.61 32.4411L139.581 32.4274L138.654 34.367ZM133.488 19.402L135.637 19.364L135.636 19.2784L135.628 19.1932L133.488 19.402ZM142.836 23.666L140.688 23.7543L140.688 23.7577L142.836 23.666ZM157.594 18.86C157.998 17.8074 158.558 17.3155 159.007 17.0898C159.484 16.8502 159.97 16.8396 160.336 16.95L161.58 12.834C158.7 11.9633 155.116 13.3126 153.579 17.32L157.594 18.86ZM160.386 16.9646C160.866 17.0969 160.834 17.1636 160.763 17.0765C160.687 16.9832 160.858 17.088 160.858 17.926H165.158C165.158 16.591 164.898 15.3428 164.094 14.3577C163.296 13.3789 162.239 13.0151 161.53 12.8194L160.386 16.9646ZM160.858 17.926C160.858 17.9189 160.858 17.9322 160.856 17.9785C160.854 18.0206 160.852 18.0764 160.848 18.1476C160.841 18.2905 160.83 18.475 160.817 18.7016C160.79 19.1501 160.754 19.7454 160.717 20.425C160.645 21.7821 160.571 23.5071 160.571 25.183H164.871C164.871 23.6199 164.94 21.9829 165.011 20.6545C165.077 19.4247 165.158 18.2671 165.158 17.926H160.858ZM160.571 25.183C160.571 26.8267 160.571 28.6712 160.491 30.6303L164.787 30.8057C164.871 28.7468 164.871 26.8193 164.871 25.183H160.571ZM160.492 30.5917C160.372 32.6336 160.173 34.8183 159.817 37.1123L164.066 37.7717C164.448 35.3097 164.659 32.9844 164.785 30.8443L160.492 30.5917ZM159.839 36.9915C159.594 38.1354 159.336 39.2586 158.912 40.3559L162.922 41.9081C163.481 40.4634 163.797 39.0446 164.044 37.8925L159.839 36.9915ZM158.877 40.4521C158.506 41.566 157.93 42.6532 157.106 43.6839L160.464 46.3701C161.607 44.9408 162.426 43.404 162.956 41.8119L158.877 40.4521ZM157.106 43.6839C156.288 44.7062 155.293 45.558 154.133 46.138L156.056 49.984C157.848 49.088 159.314 47.8078 160.464 46.3701L157.106 43.6839ZM154.133 46.138C153.494 46.4575 152.862 46.7003 152.295 46.8138L153.138 51.0302C154.211 50.8157 155.219 50.4025 156.056 49.984L154.133 46.138ZM152.24 46.8255C151.553 46.9816 150.95 47.018 150.257 47.018V51.318C151.122 51.318 152.076 51.2724 153.193 51.0185L152.24 46.8255ZM150.312 47.0187C149 46.9851 148.021 46.7207 147.201 46.3928L145.604 50.3852C146.834 50.8773 148.316 51.2689 150.202 51.3173L150.312 47.0187ZM147.035 46.3341C146.141 46.0589 145.421 45.7159 144.874 45.4081L142.766 49.1559C143.531 49.5861 144.533 50.0631 145.77 50.4439L147.035 46.3341ZM144.828 45.3833C143.509 44.6824 142.748 44.177 142.519 43.9691L139.627 47.1509C140.3 47.763 141.506 48.4876 142.811 49.1807L144.828 45.3833ZM142.528 43.9769C141.834 43.3399 141.626 42.6871 141.63 42.0929C141.635 41.4429 141.903 40.7235 142.399 40.1078C142.899 39.4869 143.517 39.1112 144.052 38.9959C144.515 38.8959 144.987 38.9645 145.492 39.399L148.298 36.141C146.732 34.792 144.872 34.4198 143.145 34.7926C141.488 35.1501 140.056 36.1608 139.05 37.4104C138.039 38.6654 137.343 40.3009 137.33 42.0609C137.317 43.8768 138.036 45.6891 139.618 47.1431L142.528 43.9769ZM145.933 39.693C145.827 39.6398 145.751 39.5903 145.728 39.5747C145.696 39.5536 145.674 39.5376 145.667 39.5325C145.654 39.5229 145.654 39.5223 145.677 39.5408C145.727 39.5802 145.785 39.628 145.894 39.7168C146.095 39.8792 146.382 40.1092 146.73 40.3648L149.273 36.8972C149.007 36.7018 148.781 36.5218 148.602 36.3767C148.522 36.3117 148.424 36.2314 148.355 36.176C148.318 36.1471 148.268 36.1074 148.214 36.068C148.195 36.054 148.048 35.9429 147.856 35.847L145.933 39.693ZM146.659 40.3099C146.694 40.3383 146.721 40.3605 146.776 40.406C146.822 40.4441 146.895 40.504 146.978 40.5662C147.162 40.7042 147.41 40.8655 147.736 40.9962L149.333 37.0038C149.36 37.0143 149.386 37.0261 149.412 37.0391C149.439 37.052 149.463 37.0651 149.484 37.0777C149.527 37.1028 149.553 37.1226 149.558 37.1263C149.56 37.1278 149.558 37.1262 149.55 37.1193C149.541 37.1122 149.529 37.1024 149.509 37.0867C149.5 37.0788 149.49 37.0708 149.478 37.061C149.467 37.0516 149.454 37.0408 149.44 37.0296C149.413 37.0071 149.381 36.9807 149.345 36.9521L146.659 40.3099ZM146.856 40.3431C147.359 40.9719 148.04 41.2794 148.147 41.333L150.07 37.487C150.027 37.4652 150.009 37.4562 149.994 37.448C149.981 37.4409 149.982 37.4413 149.993 37.4485C150.004 37.4555 150.032 37.4739 150.068 37.5051C150.105 37.5364 150.157 37.586 150.214 37.6569L146.856 40.3431ZM148.01 41.2578C149.611 42.2102 151.322 42.507 152.926 41.8062C154.388 41.1677 155.304 39.8866 155.884 38.7592C157.045 36.5048 157.535 33.4998 157.79 31.9735L153.548 31.2665C153.269 32.9382 152.858 35.2427 152.061 36.791C151.662 37.565 151.335 37.8087 151.205 37.8658C151.166 37.8827 151.114 37.8995 151.002 37.8854C150.871 37.8689 150.612 37.8025 150.208 37.5622L148.01 41.2578ZM157.779 32.0328C158.154 30.1141 158.488 28.1507 158.74 26.3891L154.483 25.7809C154.243 27.4633 153.921 29.3539 153.559 31.2072L157.779 32.0328ZM158.762 26.085C158.762 26.0848 158.762 26.0847 158.762 26.0845C158.762 26.0844 158.762 26.0842 158.762 26.084C158.762 26.0839 158.762 26.0837 158.762 26.0836C158.762 26.0834 158.762 26.0832 158.762 26.0831C158.762 26.0829 158.762 26.0828 158.762 26.0826C158.762 26.0825 158.762 26.0823 158.762 26.0821C158.762 26.082 158.762 26.0818 158.762 26.0817C158.762 26.0815 158.762 26.0814 158.762 26.0812C158.762 26.0811 158.762 26.0809 158.762 26.0808C158.762 26.0806 158.762 26.0804 158.762 26.0803C158.762 26.0801 158.762 26.08 158.762 26.0798C158.762 26.0797 158.762 26.0795 158.762 26.0794C158.762 26.0792 158.762 26.0791 158.762 26.0789C158.762 26.0788 158.762 26.0786 158.762 26.0785C158.762 26.0783 158.762 26.0782 158.762 26.078C158.762 26.0779 158.762 26.0777 158.762 26.0775C158.762 26.0774 158.762 26.0772 158.762 26.0771C158.762 26.0769 158.762 26.0768 158.762 26.0767C158.762 26.0765 158.762 26.0764 158.762 26.0762C158.762 26.0761 158.762 26.0759 158.762 26.0758C158.762 26.0756 158.762 26.0755 158.762 26.0753C158.762 26.0752 158.762 26.075 158.762 26.0749C158.762 26.0747 158.762 26.0746 158.762 26.0744C158.762 26.0743 158.762 26.0741 158.762 26.074C158.762 26.0739 158.762 26.0737 158.762 26.0736C158.762 26.0734 158.762 26.0733 158.762 26.0731C158.762 26.073 158.762 26.0728 158.762 26.0727C158.762 26.0726 158.762 26.0724 158.762 26.0723C158.762 26.0721 158.762 26.072 158.762 26.0718C158.762 26.0717 158.762 26.0716 158.762 26.0714C158.762 26.0713 158.762 26.0711 158.762 26.071C158.762 26.0708 158.762 26.0707 158.762 26.0706C158.762 26.0704 158.762 26.0703 158.762 26.0701C158.762 26.07 158.762 26.0699 158.762 26.0697C158.762 26.0696 158.762 26.0694 158.762 26.0693C158.762 26.0692 158.762 26.069 158.762 26.0689C158.762 26.0688 158.762 26.0686 158.762 26.0685C158.762 26.0683 158.762 26.0682 158.762 26.0681C158.762 26.0679 158.762 26.0678 158.762 26.0677C158.762 26.0675 158.762 26.0674 158.762 26.0672C158.762 26.0671 158.762 26.067 158.762 26.0668C158.762 26.0667 158.762 26.0666 158.762 26.0664C158.762 26.0663 158.762 26.0662 158.762 26.066C158.762 26.0659 158.762 26.0658 158.762 26.0656C158.762 26.0655 158.762 26.0654 158.762 26.0652C158.762 26.0651 158.762 26.065 158.762 26.0648C158.762 26.0647 158.762 26.0646 158.762 26.0644C158.762 26.0643 158.762 26.0642 158.762 26.064C158.762 26.0639 158.762 26.0638 158.762 26.0636C158.762 26.0635 158.762 26.0634 158.762 26.0632C158.762 26.0631 158.762 26.063 158.762 26.0629C158.762 26.0627 158.762 26.0626 158.762 26.0625C158.762 26.0623 158.762 26.0622 158.762 26.0621C158.762 26.062 158.762 26.0618 158.762 26.0617C158.762 26.0616 158.762 26.0614 158.762 26.0613C158.762 26.0612 158.762 26.0611 158.762 26.0609C158.762 26.0608 158.762 26.0607 158.762 26.0605C158.762 26.0604 158.762 26.0603 158.762 26.0602C158.762 26.06 158.762 26.0599 158.762 26.0598C158.762 26.0597 158.762 26.0595 158.762 26.0594C158.762 26.0593 158.762 26.0592 158.762 26.059C158.762 26.0589 158.762 26.0588 158.762 26.0587C158.762 26.0585 158.762 26.0584 158.762 26.0583C158.762 26.0582 158.762 26.0581 158.762 26.0579C158.762 26.0578 158.762 26.0577 158.762 26.0576C158.762 26.0574 158.762 26.0573 158.762 26.0572C158.762 26.0571 158.762 26.057 158.762 26.0568C158.762 26.0567 158.762 26.0566 158.762 26.0565C158.762 26.0564 158.762 26.0562 158.762 26.0561C158.762 26.056 158.762 26.0559 158.762 26.0558C158.762 26.0556 158.762 26.0555 158.762 26.0554C158.762 26.0553 158.762 26.0552 158.762 26.055C158.762 26.0549 158.762 26.0548 158.762 26.0547C158.762 26.0546 158.762 26.0545 158.762 26.0543C158.762 26.0542 158.762 26.0541 158.762 26.054C158.762 26.0539 158.762 26.0538 158.762 26.0536C158.762 26.0535 158.762 26.0534 158.762 26.0533C158.762 26.0532 158.762 26.0531 158.762 26.0529C158.762 26.0528 158.762 26.0527 158.762 26.0526C158.762 26.0525 158.762 26.0524 158.762 26.0523C158.762 26.0521 158.762 26.052 158.762 26.0519C158.762 26.0518 158.762 26.0517 158.762 26.0516C158.762 26.0515 158.762 26.0513 158.762 26.0512C158.762 26.0511 158.762 26.051 158.762 26.0509C158.762 26.0508 158.762 26.0507 158.762 26.0506C158.762 26.0505 158.762 26.0503 158.762 26.0502C158.762 26.0501 158.762 26.05 158.762 26.0499C158.762 26.0498 158.762 26.0497 158.762 26.0496C158.762 26.0495 158.762 26.0493 158.762 26.0492C158.762 26.0491 158.762 26.049 158.762 26.0489C158.762 26.0488 158.762 26.0487 158.762 26.0486C158.762 26.0485 158.762 26.0484 158.762 26.0483C158.762 26.0482 158.762 26.048 158.762 26.0479C158.762 26.0478 158.762 26.0477 158.762 26.0476C158.762 26.0475 158.762 26.0474 158.762 26.0473C158.762 26.0472 158.762 26.0471 158.762 26.047C158.762 26.0469 158.762 26.0468 158.762 26.0467C158.762 26.0466 158.762 26.0465 158.762 26.0464C158.762 26.0462 158.762 26.0461 158.762 26.046C158.762 26.0459 158.762 26.0458 158.762 26.0457C158.762 26.0456 158.762 26.0455 158.762 26.0454C158.762 26.0453 158.762 26.0452 158.762 26.0451C158.762 26.045 158.762 26.0449 158.762 26.0448C158.762 26.0447 158.762 26.0446 158.762 26.0445C158.762 26.0444 158.762 26.0443 158.762 26.0442C158.762 26.0441 158.762 26.044 158.762 26.0439C158.762 26.0438 158.762 26.0437 158.762 26.0436C158.762 26.0435 158.762 26.0434 158.762 26.0433C158.762 26.0432 158.762 26.0431 158.762 26.043C158.762 26.0429 158.762 26.0428 158.762 26.0427C158.762 26.0426 158.762 26.0425 158.762 26.0424C158.762 26.0423 158.762 26.0422 158.762 26.0421C158.762 26.042 158.762 26.0419 158.762 26.0418C158.762 26.0417 158.762 26.0416 158.762 26.0415C158.762 26.0414 158.762 26.0413 158.762 26.0412C158.762 26.0411 158.762 26.041 158.762 26.0409C158.762 26.0408 158.762 26.0407 158.762 26.0407C158.762 26.0406 158.762 26.0405 158.762 26.0404C158.762 26.0403 158.762 26.0402 158.762 26.0401C158.762 26.04 158.762 26.0399 158.762 26.0398C158.762 26.0397 158.762 26.0396 158.762 26.0395C158.762 26.0394 158.762 26.0393 158.762 26.0392C158.762 26.0391 158.762 26.0391 158.762 26.039C158.762 26.0389 158.762 26.0388 158.762 26.0387C158.762 26.0386 158.762 26.0385 158.762 26.0384C158.762 26.0383 158.762 26.0382 158.762 26.0381C158.762 26.038 158.762 26.038 158.762 26.0379C158.762 26.0378 158.762 26.0377 158.762 26.0376C158.762 26.0375 158.762 26.0374 158.762 26.0373C158.762 26.0372 158.762 26.0371 158.762 26.0371C158.762 26.037 158.762 26.0369 158.762 26.0368C158.762 26.0367 158.762 26.0366 158.762 26.0365C158.762 26.0364 158.762 26.0363 158.762 26.0363C158.762 26.0362 158.762 26.0361 158.762 26.036C158.762 26.0359 158.762 26.0358 158.762 26.0357C158.762 26.0356 158.762 26.0356 158.762 26.0355C158.762 26.0354 158.762 26.0353 158.762 26.0352C158.762 26.0351 158.762 26.035 158.762 26.035C158.762 26.0349 158.762 26.0348 158.762 26.0347C158.762 26.0346 158.762 26.0345 158.762 26.0345C158.762 26.0344 158.762 26.0343 158.762 26.0342C158.762 26.0341 158.762 26.034 158.762 26.0339C158.762 26.0339 158.762 26.0338 158.762 26.0337C158.762 26.0336 158.762 26.0335 158.762 26.0334C158.762 26.0334 158.762 26.0333 158.762 26.0332C158.762 26.0331 158.762 26.033 158.762 26.033C158.762 26.0329 158.762 26.0328 158.762 26.0327C158.762 26.0326 158.762 26.0325 158.762 26.0325C158.762 26.0324 158.762 26.0323 158.762 26.0322C158.762 26.0321 158.762 26.0321 158.762 26.032C158.762 26.0319 158.762 26.0318 158.762 26.0317C158.762 26.0317 158.762 26.0316 158.762 26.0315C158.762 26.0314 158.762 26.0313 158.762 26.0313C158.762 26.0312 158.762 26.0311 158.762 26.031C158.762 26.031 158.762 26.0309 158.762 26.0308C158.762 26.0307 158.762 26.0306 158.762 26.0306C158.762 26.0305 158.762 26.0304 158.762 26.0303C158.762 26.0303 158.762 26.0302 158.762 26.0301C158.762 26.03 158.762 26.0299 158.762 26.0299C158.762 26.0298 158.762 26.0297 158.762 26.0296C158.762 26.0296 158.762 26.0295 158.762 26.0294C158.762 26.0293 158.762 26.0293 158.762 26.0292C158.762 26.0291 158.762 26.029 158.762 26.029C158.762 26.0289 158.762 26.0288 158.762 26.0287C158.762 26.0287 158.762 26.0286 158.762 26.0285C158.762 26.0285 158.762 26.0284 158.762 26.0283C158.762 26.0282 158.762 26.0282 158.762 26.0281C158.762 26.028 158.762 26.0279 158.762 26.0279C158.762 26.0278 158.762 26.0277 158.762 26.0277C158.762 26.0276 158.762 26.0275 158.762 26.0274C158.762 26.0274 158.762 26.0273 158.762 26.0272C158.762 26.0272 158.762 26.0271 158.762 26.027C158.762 26.0269 158.762 26.0269 158.762 26.0268C158.762 26.0267 158.762 26.0267 158.762 26.0266C158.762 26.0265 158.762 26.0265 158.762 26.0264C158.762 26.0263 158.762 26.0262 158.762 26.0262C158.762 26.0261 158.762 26.026 158.762 26.026C158.762 26.0259 158.762 26.0258 158.762 26.0258C158.762 26.0257 158.762 26.0256 158.762 26.0256C158.762 26.0255 158.762 26.0254 158.762 26.0254C158.762 26.0253 158.762 26.0252 158.762 26.0252C158.762 26.0251 158.762 26.025 158.762 26.025C158.762 26.0249 158.762 26.0248 158.762 26.0248C158.762 26.0247 158.762 26.0246 158.762 26.0246C158.762 26.0245 158.762 26.0244 158.762 26.0244C158.762 26.0243 158.762 26.0242 158.762 26.0242C158.762 26.0241 158.762 26.024 158.762 26.024C158.762 26.0239 158.762 26.0238 158.762 26.0238C158.762 26.0237 158.762 26.0237 158.762 26.0236C158.762 26.0235 158.762 26.0235 158.762 26.0234C158.762 26.0233 158.762 26.0233 158.762 26.0232C158.762 26.0231 158.762 26.0231 158.762 26.023C158.762 26.023 158.762 26.0229 158.762 26.0228C158.762 26.0228 158.762 26.0227 158.762 26.0226C158.762 26.0226 158.762 26.0225 158.762 26.0225C158.762 26.0224 158.762 26.0223 158.762 26.0223C158.762 26.0222 158.762 26.0222 158.762 26.0221C158.762 26.022 158.762 26.022 158.762 26.0219C158.762 26.0219 158.762 26.0218 158.762 26.0217C158.762 26.0217 158.762 26.0216 158.762 26.0216C158.762 26.0215 158.762 26.0214 158.762 26.0214C158.762 26.0213 158.762 26.0213 158.762 26.0212C158.762 26.0211 158.762 26.0211 158.762 26.021C158.762 26.021 158.762 26.0209 158.762 26.0209C158.762 26.0208 158.762 26.0207 158.762 26.0207C158.762 26.0206 158.762 26.0206 158.762 26.0205C158.762 26.0204 158.762 26.0204 158.762 26.0203C158.762 26.0203 158.762 26.0202 158.762 26.0202C158.762 26.0201 158.762 26.0201 158.762 26.02C158.762 26.0199 158.762 26.0199 158.762 26.0198C158.762 26.0198 158.762 26.0197 158.762 26.0197C158.762 26.0196 158.762 26.0196 158.762 26.0195C158.762 26.0194 158.762 26.0194 158.762 26.0193C158.762 26.0193 158.762 26.0192 158.762 26.0192C158.762 26.0191 158.762 26.0191 158.762 26.019C158.762 26.019 158.762 26.0189 158.762 26.0188C158.762 26.0188 158.762 26.0187 158.762 26.0187C158.762 26.0186 158.762 26.0186 158.762 26.0185C158.762 26.0185 158.762 26.0184 158.762 26.0184C158.762 26.0183 158.762 26.0183 158.762 26.0182C158.762 26.0182 158.762 26.0181 158.762 26.0181C158.762 26.018 158.762 26.018 158.762 26.0179C158.762 26.0178 158.762 26.0178 158.762 26.0177C158.762 26.0177 158.762 26.0176 158.762 26.0176C158.762 26.0175 158.762 26.0175 158.762 26.0174C158.762 26.0174 158.762 26.0173 158.762 26.0173C158.762 26.0172 158.762 26.0172 158.762 26.0171C158.762 26.0171 158.762 26.017 158.762 26.017C158.762 26.0169 158.762 26.0169 158.762 26.0168C158.762 26.0168 158.762 26.0167 158.762 26.0167C158.762 26.0167 158.762 26.0166 158.762 26.0166C158.762 26.0165 158.762 26.0165 158.762 26.0164C158.762 26.0164 158.762 26.0163 158.762 26.0163C158.762 26.0162 158.762 26.0162 158.762 26.0161C158.762 26.0161 158.762 26.016 158.762 26.016C158.762 26.0159 158.762 26.0159 158.762 26.0158C158.762 26.0158 158.762 26.0158 158.762 26.0157C158.762 26.0157 158.762 26.0156 158.762 26.0156C158.762 26.0155 158.762 26.0155 158.762 26.0154C158.762 26.0154 158.762 26.0153 158.762 26.0153C158.762 26.0152 158.762 26.0152 158.762 26.0152C158.762 26.0151 158.762 26.0151 158.762 26.015C158.762 26.015 158.762 26.0149 158.762 26.0149C158.762 26.0148 158.762 26.0148 158.762 26.0148C158.762 26.0147 158.762 26.0147 158.762 26.0146C158.762 26.0146 158.762 26.0145 158.762 26.0145C158.762 26.0145 158.762 26.0144 158.762 26.0144C158.762 26.0143 158.762 26.0143 158.762 26.0142C158.762 26.0142 158.762 26.0142 158.762 26.0141C158.762 26.0141 158.762 26.014 158.762 26.014C158.762 26.0139 158.762 26.0139 158.762 26.0139C158.762 26.0138 158.762 26.0138 158.762 26.0137C158.762 26.0137 158.762 26.0137 158.762 26.0136C158.762 26.0136 158.762 26.0135 158.762 26.0135C158.762 26.0135 158.762 26.0134 158.762 26.0134C158.762 26.0133 158.762 26.0133 158.762 26.0132C158.762 26.0132 158.762 26.0132 158.762 26.0131C158.762 26.0131 158.762 26.0131 158.762 26.013C158.762 26.013 158.762 26.0129 158.762 26.0129C158.762 26.0129 158.762 26.0128 158.762 26.0128C158.762 26.0127 158.762 26.0127 158.762 26.0127C158.762 26.0126 158.762 26.0126 158.762 26.0125C158.762 26.0125 158.762 26.0125 158.762 26.0124C158.762 26.0124 158.762 26.0124 158.762 26.0123C158.762 26.0123 158.762 26.0122 158.762 26.0122C158.762 26.0122 158.762 26.0121 158.762 26.0121C158.762 26.0121 158.762 26.012 158.762 26.012C158.762 26.0119 158.762 26.0119 158.762 26.0119C158.762 26.0118 158.762 26.0118 158.762 26.0118C158.762 26.0117 158.762 26.0117 158.762 26.0117C158.762 26.0116 158.762 26.0116 158.762 26.0116C158.762 26.0115 158.762 26.0115 158.762 26.0114C158.762 26.0114 158.762 26.0114 158.762 26.0113C158.762 26.0113 158.762 26.0113 158.762 26.0112C158.762 26.0112 158.762 26.0112 158.762 26.0111C158.762 26.0111 158.762 26.0111 158.762 26.011C158.762 26.011 158.762 26.011 158.762 26.0109C158.762 26.0109 158.762 26.0109 158.762 26.0108C158.762 26.0108 158.762 26.0108 158.762 26.0107C158.762 26.0107 158.762 26.0107 158.762 26.0106C158.762 26.0106 158.762 26.0106 158.762 26.0105C158.762 26.0105 158.762 26.0105 158.762 26.0104C158.762 26.0104 158.762 26.0104 158.762 26.0103C158.762 26.0103 158.762 26.0103 158.762 26.0102C158.762 26.0102 158.762 26.0102 158.762 26.0101C158.762 26.0101 158.762 26.0101 158.762 26.0101C158.762 26.01 158.762 26.01 158.762 26.01C158.762 26.0099 158.762 26.0099 158.762 26.0099C158.762 26.0098 158.762 26.0098 158.762 26.0098C158.762 26.0097 158.762 26.0097 158.762 26.0097C158.762 26.0097 158.762 26.0096 158.762 26.0096C158.762 26.0096 158.762 26.0095 158.762 26.0095C158.762 26.0095 158.762 26.0094 158.762 26.0094C158.762 26.0094 158.762 26.0094 158.762 26.0093C158.762 26.0093 158.762 26.0093 158.762 26.0092C158.762 26.0092 158.762 26.0092 158.762 26.0092C158.762 26.0091 158.762 26.0091 158.762 26.0091C158.762 26.009 158.762 26.009 158.762 26.009C158.762 26.009 158.762 26.0089 158.762 26.0089C158.762 26.0089 158.762 26.0088 158.762 26.0088C158.762 26.0088 158.762 26.0088 158.762 26.0087C158.762 26.0087 158.762 26.0087 158.762 26.0087C158.762 26.0086 158.762 26.0086 158.762 26.0086C158.762 26.0086 158.762 26.0085 158.762 26.0085C158.762 26.0085 158.762 26.0084 158.762 26.0084C158.762 26.0084 158.762 26.0084 158.762 26.0083C158.762 26.0083 158.762 26.0083 158.762 26.0083C158.762 26.0082 158.762 26.0082 158.762 26.0082C158.762 26.0082 158.762 26.0081 158.762 26.0081C158.762 26.0081 158.762 26.0081 158.762 26.008C158.762 26.008 158.762 26.008 158.762 26.008C158.762 26.0079 158.762 26.0079 158.762 26.0079C158.762 26.0079 158.762 26.0078 158.762 26.0078C158.762 26.0078 158.762 26.0078 158.762 26.0077C158.762 26.0077 158.762 26.0077 158.762 26.0077C158.762 26.0076 158.762 26.0076 158.762 26.0076C158.762 26.0076 158.762 26.0076 158.762 26.0075C158.762 26.0075 158.762 26.0075 158.762 26.0075C158.762 26.0074 158.762 26.0074 158.762 26.0074C158.762 26.0074 158.762 26.0073 158.762 26.0073C158.762 26.0073 158.762 26.0073 158.762 26.0073C158.762 26.0072 158.762 26.0072 158.762 26.0072C158.762 26.0072 158.762 26.0071 158.762 26.0071C158.762 26.0071 158.762 26.0071 158.762 26.0071C158.762 26.007 158.762 26.007 158.762 26.007C158.762 26.007 158.762 26.007 158.762 26.0069C158.762 26.0069 158.762 26.0069 158.762 26.0069C158.762 26.0068 158.762 26.0068 158.762 26.0068C158.762 26.0068 158.762 26.0068 158.762 26.0067C158.762 26.0067 158.762 26.0067 158.762 26.0067C158.762 26.0067 158.762 26.0066 158.762 26.0066C158.762 26.0066 158.762 26.0066 158.762 26.0066C158.762 26.0065 158.762 26.0065 158.762 26.0065C158.762 26.0065 158.762 26.0065 158.762 26.0064C158.762 26.0064 158.762 26.0064 158.762 26.0064C158.762 26.0064 158.762 26.0063 158.762 26.0063C158.762 26.0063 158.762 26.0063 158.762 26.0063C158.762 26.0063 158.762 26.0062 158.762 26.0062C158.762 26.0062 158.762 26.0062 158.762 26.0062C158.762 26.0061 158.762 26.0061 158.762 26.0061C158.762 26.0061 158.762 26.0061 158.762 26.0061C158.762 26.006 158.762 26.006 158.762 26.006C158.762 26.006 158.762 26.006 158.762 26.0059C158.762 26.0059 158.762 26.0059 158.762 26.0059C158.762 26.0059 158.762 26.0059 158.762 26.0058C158.762 26.0058 158.762 26.0058 158.762 26.0058C158.762 26.0058 158.762 26.0058 158.762 26.0057C158.762 26.0057 158.762 26.0057 158.762 26.0057C158.762 26.0057 158.762 26.0057 158.762 26.0056C158.762 26.0056 158.762 26.0056 158.762 26.0056C158.762 26.0056 158.762 26.0056 158.762 26.0055C158.762 26.0055 158.762 26.0055 158.762 26.0055C158.762 26.0055 158.762 26.0055 158.762 26.0055C158.762 26.0054 158.762 26.0054 158.762 26.0054C158.762 26.0054 158.762 26.0054 158.762 26.0054C158.762 26.0053 158.762 26.0053 158.762 26.0053C158.762 26.0053 158.762 26.0053 158.762 26.0053C158.762 26.0053 158.762 26.0052 158.762 26.0052C158.762 26.0052 158.762 26.0052 158.762 26.0052C158.762 26.0052 158.762 26.0052 158.762 26.0051C158.762 26.0051 158.762 26.0051 158.762 26.0051C158.762 26.0051 158.762 26.0051 158.762 26.0051C158.762 26.005 158.762 26.005 158.762 26.005C158.762 26.005 158.762 26.005 158.762 26.005C158.762 26.005 158.762 26.005 158.762 26.0049C158.762 26.0049 158.762 26.0049 158.762 26.0049C158.762 26.0049 158.762 26.0049 158.762 26.0049C158.762 26.0048 158.762 26.0048 158.762 26.0048C158.762 26.0048 158.762 26.0048 158.762 26.0048C158.762 26.0048 158.762 26.0048 158.762 26.0047C158.762 26.0047 158.762 26.0047 158.762 26.0047C158.762 26.0047 158.762 26.0047 158.762 26.0047C158.762 26.0047 158.762 26.0047 158.762 26.0046C158.762 26.0046 158.762 26.0046 158.762 26.0046C158.762 26.0046 158.762 26.0046 158.762 26.0046C158.762 26.0046 158.762 26.0045 158.762 26.0045C158.762 26.0045 158.762 26.0045 158.762 26.0045C158.762 26.0045 158.762 26.0045 158.762 26.0045C158.762 26.0045 158.762 26.0044 158.762 26.0044C158.762 26.0044 158.762 26.0044 158.762 26.0044C158.762 26.0044 158.762 26.0044 158.762 26.0044C158.762 26.0044 158.762 26.0044 158.762 26.0043C158.762 26.0043 158.762 26.0043 158.762 26.0043C158.762 26.0043 158.762 26.0043 158.762 26.0043C158.762 26.0043 158.762 26.0043 158.762 26.0043C158.762 26.0042 158.762 26.0042 158.762 26.0042C158.762 26.0042 158.762 26.0042 158.762 26.0042C158.762 26.0042 158.762 26.0042 158.762 26.0042C158.762 26.0042 158.762 26.0041 158.762 26.0041C158.762 26.0041 158.762 26.0041 158.762 26.0041C158.762 26.0041 158.762 26.0041 158.762 26.0041C158.762 26.0041 158.762 26.0041 158.762 26.0041C158.762 26.004 158.762 26.004 158.762 26.004C158.762 26.004 158.762 26.004 158.762 26.004C158.762 26.004 158.762 26.004 158.762 26.004C158.762 26.004 158.762 26.004 158.762 26.004C158.762 26.0039 158.762 26.0039 158.762 26.0039C158.762 26.0039 158.762 26.0039 158.762 26.0039C158.762 26.0039 158.762 26.0039 158.762 26.0039C158.762 26.0039 158.762 26.0039 158.762 26.0039C158.762 26.0039 158.762 26.0038 158.762 26.0038C158.762 26.0038 158.762 26.0038 158.762 26.0038C158.762 26.0038 158.762 26.0038 158.762 26.0038C158.762 26.0038 158.762 26.0038 158.762 26.0038C158.762 26.0038 158.762 26.0038 158.762 26.0037C158.762 26.0037 158.762 26.0037 158.762 26.0037C158.762 26.0037 158.762 26.0037 158.762 26.0037C158.762 26.0037 158.762 26.0037 158.762 26.0037C158.762 26.0037 158.762 26.0037 158.762 26.0037C158.762 26.0037 158.762 26.0037 158.762 26.0036C158.762 26.0036 158.762 26.0036 158.762 26.0036C158.762 26.0036 158.762 26.0036 158.762 26.0036C158.762 26.0036 158.762 26.0036 158.762 26.0036C158.762 26.0036 158.762 26.0036 158.762 26.0036C158.762 26.0036 158.762 26.0036 158.762 26.0036C158.762 26.0036 158.762 26.0035 158.762 26.0035C158.762 26.0035 158.762 26.0035 158.762 26.0035C158.762 26.0035 158.762 26.0035 158.762 26.0035C158.762 26.0035 158.762 26.0035 158.762 26.0035C158.762 26.0035 158.762 26.0035 158.762 26.0035C158.762 26.0035 158.762 26.0035 158.762 26.0035C158.762 26.0035 158.762 26.0035 158.762 26.0034C158.762 26.0034 158.762 26.0034 158.762 26.0034C158.762 26.0034 158.762 26.0034 158.762 26.0034C158.762 26.0034 158.762 26.0034 158.762 26.0034C158.762 26.0034 158.762 26.0034 158.762 26.0034C158.762 26.0034 158.762 26.0034 158.762 26.0034C158.762 26.0034 158.762 26.0034 158.762 26.0034C158.762 26.0034 158.762 26.0034 158.762 26.0033C158.762 26.0033 158.762 26.0033 158.762 26.0033C158.762 26.0033 158.762 26.0033 158.762 26.0033C158.762 26.0033 158.762 26.0033 158.762 26.0033C158.762 26.0033 158.762 26.0033 158.762 26.0033C158.762 26.0033 158.762 26.0033 158.762 26.0033C158.762 26.0033 158.762 26.0033 158.762 26.0033C158.762 26.0033 158.762 26.0033 158.762 26.0033C158.762 26.0033 158.762 26.0033 158.762 26.0033C158.762 26.0033 158.762 26.0033 158.762 26.0032C158.762 26.0032 158.762 26.0032 158.762 26.0032C158.762 26.0032 158.762 26.0032 158.762 26.0032C158.762 26.0032 158.762 26.0032 158.762 26.0032C158.762 26.0032 158.762 26.0032 158.762 26.0032C158.762 26.0032 158.762 26.0032 158.762 26.0032C158.762 26.0032 158.762 26.0032 158.762 26.0032C158.762 26.0032 158.762 26.0032 158.762 26.0032C158.762 26.0032 158.762 26.0032 158.762 26.0032C158.762 26.0032 158.762 26.0032 158.762 26.0032C158.762 26.0032 158.762 26.0032 158.762 26.0032C158.762 26.0032 158.762 26.0032 158.762 26.0032C158.762 26.0032 158.762 26.0031 158.762 26.0031C158.762 26.0031 158.762 26.0031 158.762 26.0031C158.762 26.0031 158.762 26.0031 158.762 26.0031C158.762 26.0031 158.762 26.0031 158.762 26.0031C158.762 26.0031 158.762 26.0031 158.762 26.0031C158.762 26.0031 158.762 26.0031 158.762 26.0031C158.762 26.0031 158.762 26.0031 158.762 26.0031C158.762 26.0031 158.762 26.0031 158.762 26.0031C158.762 26.0031 158.762 26.0031 158.762 26.0031C158.762 26.0031 158.762 26.0031 158.762 26.0031C158.762 26.0031 158.762 26.0031 158.762 26.0031C158.762 26.0031 158.762 26.0031 158.762 26.0031C158.762 26.0031 158.762 26.0031 158.762 26.0031C158.762 26.0031 158.762 26.0031 158.762 26.0031C158.762 26.0031 158.762 26.0031 158.762 26.0031C158.762 26.0031 158.762 26.0031 158.762 26.0031C158.762 26.0031 158.762 26.0031 158.762 26.0031C158.762 26.0031 158.762 26.0031 158.762 26.0031C158.762 26.0031 158.762 26.0031 158.762 26.0031C158.762 26.0031 158.762 26.003 158.762 26.003C158.762 26.003 158.762 26.003 158.762 26.003C158.762 26.003 158.762 26.003 158.762 26.003C158.762 26.003 158.762 26.003 158.762 26.003C158.762 26.003 158.762 26.003 158.762 26.003C158.762 26.003 158.762 26.003 158.762 26.003C158.762 26.003 158.762 26.003 158.762 26.003C158.762 26.003 158.762 26.003 158.762 26.003C158.762 26.003 158.762 26.003 158.762 26.003C158.762 26.003 158.762 26.003 158.762 26.003C158.762 26.003 158.762 26.003 158.762 26.003C158.762 26.003 158.762 26.003 158.762 26.003C158.762 26.003 158.762 26.003 158.762 26.003C158.762 26.003 158.762 26.003 158.762 26.003C158.762 26.003 158.762 26.003 158.762 26.003C158.762 26.003 158.762 26.003 158.762 26.003C158.762 26.003 158.762 26.003 158.762 26.003C158.762 26.003 158.762 26.003 158.762 26.003C158.762 26.003 158.762 26.003 158.762 26.003C158.762 26.003 158.762 26.003 158.762 26.003C158.762 26.003 158.762 26.003 158.762 26.003C158.762 26.003 158.762 26.003 158.762 26.003C158.762 26.003 158.762 26.003 158.762 26.003C158.762 26.003 158.762 26.003 158.762 26.003C158.762 26.003 158.762 26.003 158.762 26.003C158.762 26.003 158.762 26.003 158.762 26.003C158.762 26.003 158.762 26.003 158.762 26.003C158.762 26.003 158.762 26.003 158.762 26.003C158.762 26.003 158.762 26.003 158.762 26.003C158.762 26.003 158.762 26.003 158.762 26.003C158.762 26.003 158.762 26.003 158.762 26.003C158.762 26.003 158.762 26.003 158.762 26.003C158.762 26.003 158.762 26.003 158.762 26.003C158.762 26.003 158.762 26.003 158.762 26.003C158.762 26.003 158.762 26.003 158.762 26.003C158.762 26.003 158.762 26.003 158.762 26.003C158.762 26.003 158.762 26.003 158.762 26.003C158.762 26.003 158.762 26.003 158.762 26.003C158.762 26.003 158.762 26.003 158.762 26.003C158.762 26.003 158.762 26.003 158.762 26.003C158.762 26.003 158.762 26.003 158.762 26.003C158.762 26.003 158.762 26.003 158.762 26.003C158.762 26.003 158.762 26.003 158.762 26.003C158.762 26.003 156.612 26.003 156.612 26.003C156.612 26.003 154.462 26.003 154.462 26.003C154.462 26.003 154.462 26.003 154.462 26.003C154.462 26.003 154.462 26.003 154.462 26.003C154.462 26.003 154.462 26.003 154.462 26.003C154.462 26.003 154.462 26.003 154.462 26.003C154.462 26.003 154.462 26.003 154.462 26.003C154.462 26.003 154.462 26.003 154.462 26.003C154.462 26.003 154.462 26.003 154.462 26.003C154.462 26.003 154.462 26.003 154.462 26.003C154.462 26.003 154.462 26.003 154.462 26.003C154.462 26.003 154.462 26.003 154.462 26.003C154.462 26.003 154.462 26.003 154.462 26.003C154.462 26.003 154.462 26.003 154.462 26.003C154.462 26.003 154.462 26.003 154.462 26.003C154.462 26.003 154.462 26.003 154.462 26.003C154.462 26.003 154.462 26.003 154.462 26.003C154.462 26.003 154.462 26.003 154.462 26.003C154.462 26.003 154.462 26.003 154.462 26.003C154.462 26.003 154.462 26.003 154.462 26.003C154.462 26.003 154.462 26.003 154.462 26.003C154.462 26.003 154.462 26.003 154.462 26.003C154.462 26.003 154.462 26.003 154.462 26.003C154.462 26.003 154.462 26.003 154.462 26.003C154.462 26.003 154.462 26.003 154.462 26.003C154.462 26.003 154.462 26.003 154.462 26.003C154.462 26.003 154.462 26.003 154.462 26.003C154.462 26.003 154.462 26.003 154.462 26.003C154.462 26.003 154.462 26.003 154.462 26.003C154.462 26.003 154.462 26.003 154.462 26.003C154.462 26.003 154.462 26.003 154.462 26.003C154.462 26.003 154.462 26.003 154.462 26.003C154.462 26.003 154.462 26.003 154.462 26.003C154.462 26.003 154.462 26.003 154.462 26.003C154.462 26.003 154.462 26.003 154.462 26.003C154.462 26.003 154.462 26.003 154.462 26.003C154.462 26.003 154.462 26.003 154.462 26.003C154.462 26.003 154.462 26.003 154.462 26.003C154.462 26.003 154.462 26.003 154.462 26.003C154.462 26.003 154.462 26.003 154.462 26.003C154.462 26.003 154.462 26.003 154.462 26.003C154.462 26.003 154.462 26.003 154.462 26.003C154.462 26.003 154.462 26.003 154.462 26.003C154.462 26.003 154.462 26.003 154.462 26.003C154.462 26.003 154.462 26.0031 154.462 26.0031C154.462 26.0031 154.462 26.0031 154.462 26.0031C154.462 26.0031 154.462 26.0031 154.462 26.0031C154.462 26.0031 154.462 26.0031 154.462 26.0031C154.462 26.0031 154.462 26.0031 154.462 26.0031C154.462 26.0031 154.462 26.0031 154.462 26.0031C154.462 26.0031 154.462 26.0031 154.462 26.0031C154.462 26.0031 154.462 26.0031 154.462 26.0031C154.462 26.0031 154.462 26.0031 154.462 26.0031C154.462 26.0031 154.462 26.0031 154.462 26.0031C154.462 26.0031 154.462 26.0031 154.462 26.0031C154.462 26.0031 154.462 26.0031 154.462 26.0031C154.462 26.0031 154.462 26.0031 154.462 26.0031C154.462 26.0031 154.462 26.0031 154.462 26.0031C154.462 26.0031 154.462 26.0031 154.462 26.0031C154.462 26.0031 154.462 26.0031 154.462 26.0031C154.462 26.0031 154.462 26.0031 154.462 26.0031C154.462 26.0031 154.462 26.0031 154.462 26.0031C154.462 26.0031 154.462 26.0031 154.462 26.0031C154.462 26.0031 154.462 26.0032 154.462 26.0032C154.462 26.0032 154.462 26.0032 154.462 26.0032C154.462 26.0032 154.462 26.0032 154.462 26.0032C154.462 26.0032 154.462 26.0032 154.462 26.0032C154.462 26.0032 154.462 26.0032 154.462 26.0032C154.462 26.0032 154.462 26.0032 154.462 26.0032C154.462 26.0032 154.462 26.0032 154.462 26.0032C154.462 26.0032 154.462 26.0032 154.462 26.0032C154.462 26.0032 154.462 26.0032 154.462 26.0032C154.462 26.0032 154.462 26.0032 154.462 26.0032C154.462 26.0032 154.462 26.0032 154.462 26.0032C154.462 26.0032 154.462 26.0032 154.462 26.0032C154.462 26.0033 154.462 26.0033 154.462 26.0033C154.462 26.0033 154.462 26.0033 154.462 26.0033C154.462 26.0033 154.462 26.0033 154.462 26.0033C154.462 26.0033 154.462 26.0033 154.462 26.0033C154.462 26.0033 154.462 26.0033 154.462 26.0033C154.462 26.0033 154.462 26.0033 154.462 26.0033C154.462 26.0033 154.462 26.0033 154.462 26.0033C154.462 26.0033 154.462 26.0033 154.462 26.0033C154.462 26.0033 154.462 26.0033 154.462 26.0033C154.462 26.0034 154.462 26.0034 154.462 26.0034C154.462 26.0034 154.462 26.0034 154.462 26.0034C154.462 26.0034 154.462 26.0034 154.462 26.0034C154.462 26.0034 154.462 26.0034 154.462 26.0034C154.462 26.0034 154.462 26.0034 154.462 26.0034C154.462 26.0034 154.462 26.0034 154.462 26.0034C154.462 26.0034 154.462 26.0034 154.462 26.0034C154.462 26.0035 154.462 26.0035 154.462 26.0035C154.462 26.0035 154.462 26.0035 154.462 26.0035C154.462 26.0035 154.462 26.0035 154.462 26.0035C154.462 26.0035 154.462 26.0035 154.462 26.0035C154.462 26.0035 154.462 26.0035 154.462 26.0035C154.462 26.0035 154.462 26.0035 154.462 26.0035C154.462 26.0035 154.462 26.0036 154.462 26.0036C154.462 26.0036 154.462 26.0036 154.462 26.0036C154.462 26.0036 154.462 26.0036 154.462 26.0036C154.462 26.0036 154.462 26.0036 154.462 26.0036C154.462 26.0036 154.462 26.0036 154.462 26.0036C154.462 26.0036 154.462 26.0036 154.462 26.0036C154.462 26.0037 154.462 26.0037 154.462 26.0037C154.462 26.0037 154.462 26.0037 154.462 26.0037C154.462 26.0037 154.462 26.0037 154.462 26.0037C154.462 26.0037 154.462 26.0037 154.462 26.0037C154.462 26.0037 154.462 26.0037 154.462 26.0037C154.462 26.0038 154.462 26.0038 154.462 26.0038C154.462 26.0038 154.462 26.0038 154.462 26.0038C154.462 26.0038 154.462 26.0038 154.462 26.0038C154.462 26.0038 154.462 26.0038 154.462 26.0038C154.462 26.0038 154.462 26.0039 154.462 26.0039C154.462 26.0039 154.462 26.0039 154.462 26.0039C154.462 26.0039 154.462 26.0039 154.462 26.0039C154.462 26.0039 154.462 26.0039 154.462 26.0039C154.462 26.0039 154.462 26.0039 154.462 26.004C154.462 26.004 154.462 26.004 154.462 26.004C154.462 26.004 154.462 26.004 154.462 26.004C154.462 26.004 154.462 26.004 154.462 26.004C154.462 26.004 154.462 26.004 154.462 26.0041C154.462 26.0041 154.462 26.0041 154.462 26.0041C154.462 26.0041 154.462 26.0041 154.462 26.0041C154.462 26.0041 154.462 26.0041 154.462 26.0041C154.462 26.0041 154.462 26.0042 154.462 26.0042C154.462 26.0042 154.462 26.0042 154.462 26.0042C154.462 26.0042 154.462 26.0042 154.462 26.0042C154.462 26.0042 154.462 26.0042 154.462 26.0043C154.462 26.0043 154.462 26.0043 154.462 26.0043C154.462 26.0043 154.462 26.0043 154.462 26.0043C154.462 26.0043 154.462 26.0043 154.462 26.0043C154.462 26.0044 154.462 26.0044 154.462 26.0044C154.462 26.0044 154.462 26.0044 154.462 26.0044C154.462 26.0044 154.462 26.0044 154.462 26.0044C154.462 26.0044 154.462 26.0045 154.462 26.0045C154.462 26.0045 154.462 26.0045 154.462 26.0045C154.462 26.0045 154.462 26.0045 154.462 26.0045C154.462 26.0045 154.462 26.0046 154.462 26.0046C154.462 26.0046 154.462 26.0046 154.462 26.0046C154.462 26.0046 154.462 26.0046 154.462 26.0046C154.462 26.0047 154.462 26.0047 154.462 26.0047C154.462 26.0047 154.462 26.0047 154.462 26.0047C154.462 26.0047 154.462 26.0047 154.462 26.0047C154.462 26.0048 154.462 26.0048 154.462 26.0048C154.462 26.0048 154.462 26.0048 154.462 26.0048C154.462 26.0048 154.462 26.0048 154.462 26.0049C154.462 26.0049 154.462 26.0049 154.462 26.0049C154.462 26.0049 154.462 26.0049 154.462 26.0049C154.462 26.005 154.462 26.005 154.462 26.005C154.462 26.005 154.462 26.005 154.462 26.005C154.462 26.005 154.462 26.005 154.462 26.0051C154.462 26.0051 154.462 26.0051 154.462 26.0051C154.462 26.0051 154.462 26.0051 154.462 26.0051C154.462 26.0052 154.462 26.0052 154.462 26.0052C154.462 26.0052 154.462 26.0052 154.462 26.0052C154.462 26.0052 154.462 26.0053 154.462 26.0053C154.462 26.0053 154.462 26.0053 154.462 26.0053C154.462 26.0053 154.462 26.0053 154.462 26.0054C154.462 26.0054 154.462 26.0054 154.462 26.0054C154.462 26.0054 154.462 26.0054 154.462 26.0055C154.462 26.0055 154.462 26.0055 154.462 26.0055C154.462 26.0055 154.462 26.0055 154.462 26.0055C154.462 26.0056 154.462 26.0056 154.462 26.0056C154.462 26.0056 154.462 26.0056 154.462 26.0056C154.462 26.0057 154.462 26.0057 154.462 26.0057C154.462 26.0057 154.462 26.0057 154.462 26.0057C154.462 26.0058 154.462 26.0058 154.462 26.0058C154.462 26.0058 154.462 26.0058 154.462 26.0058C154.462 26.0059 154.462 26.0059 154.462 26.0059C154.462 26.0059 154.462 26.0059 154.462 26.0059C154.462 26.006 154.462 26.006 154.462 26.006C154.462 26.006 154.462 26.006 154.462 26.0061C154.462 26.0061 154.462 26.0061 154.462 26.0061C154.462 26.0061 154.462 26.0061 154.462 26.0062C154.462 26.0062 154.462 26.0062 154.462 26.0062C154.462 26.0062 154.462 26.0063 154.462 26.0063C154.462 26.0063 154.462 26.0063 154.462 26.0063C154.462 26.0063 154.462 26.0064 154.462 26.0064C154.462 26.0064 154.462 26.0064 154.462 26.0064C154.462 26.0065 154.462 26.0065 154.462 26.0065C154.462 26.0065 154.462 26.0065 154.462 26.0066C154.462 26.0066 154.462 26.0066 154.462 26.0066C154.462 26.0066 154.462 26.0067 154.462 26.0067C154.462 26.0067 154.462 26.0067 154.462 26.0067C154.462 26.0068 154.462 26.0068 154.462 26.0068C154.462 26.0068 154.462 26.0068 154.462 26.0069C154.462 26.0069 154.462 26.0069 154.462 26.0069C154.462 26.007 154.462 26.007 154.462 26.007C154.462 26.007 154.462 26.007 154.462 26.0071C154.462 26.0071 154.462 26.0071 154.462 26.0071C154.462 26.0071 154.462 26.0072 154.462 26.0072C154.462 26.0072 154.462 26.0072 154.462 26.0073C154.462 26.0073 154.462 26.0073 154.462 26.0073C154.462 26.0073 154.462 26.0074 154.462 26.0074C154.462 26.0074 154.462 26.0074 154.462 26.0075C154.462 26.0075 154.462 26.0075 154.462 26.0075C154.462 26.0076 154.462 26.0076 154.462 26.0076C154.462 26.0076 154.462 26.0076 154.462 26.0077C154.462 26.0077 154.462 26.0077 154.462 26.0077C154.462 26.0078 154.462 26.0078 154.462 26.0078C154.462 26.0078 154.462 26.0079 154.462 26.0079C154.462 26.0079 154.462 26.0079 154.462 26.008C154.462 26.008 154.462 26.008 154.462 26.008C154.462 26.0081 154.462 26.0081 154.462 26.0081C154.462 26.0081 154.462 26.0082 154.462 26.0082C154.462 26.0082 154.462 26.0082 154.462 26.0083C154.462 26.0083 154.462 26.0083 154.462 26.0083C154.462 26.0084 154.462 26.0084 154.462 26.0084C154.462 26.0084 154.462 26.0085 154.462 26.0085C154.462 26.0085 154.462 26.0086 154.462 26.0086C154.462 26.0086 154.462 26.0086 154.462 26.0087C154.462 26.0087 154.462 26.0087 154.462 26.0087C154.462 26.0088 154.462 26.0088 154.462 26.0088C154.462 26.0088 154.462 26.0089 154.462 26.0089C154.462 26.0089 154.462 26.009 154.462 26.009C154.462 26.009 154.462 26.009 154.462 26.0091C154.462 26.0091 154.462 26.0091 154.462 26.0092C154.462 26.0092 154.462 26.0092 154.462 26.0092C154.462 26.0093 154.462 26.0093 154.462 26.0093C154.462 26.0094 154.462 26.0094 154.462 26.0094C154.462 26.0094 154.462 26.0095 154.462 26.0095C154.462 26.0095 154.462 26.0096 154.462 26.0096C154.462 26.0096 154.462 26.0097 154.462 26.0097C154.462 26.0097 154.462 26.0097 154.462 26.0098C154.462 26.0098 154.462 26.0098 154.462 26.0099C154.462 26.0099 154.462 26.0099 154.462 26.01C154.462 26.01 154.462 26.01 154.462 26.0101C154.462 26.0101 154.462 26.0101 154.462 26.0101C154.462 26.0102 154.462 26.0102 154.462 26.0102C154.462 26.0103 154.462 26.0103 154.462 26.0103C154.462 26.0104 154.462 26.0104 154.462 26.0104C154.462 26.0105 154.462 26.0105 154.462 26.0105C154.462 26.0106 154.462 26.0106 154.462 26.0106C154.462 26.0107 154.462 26.0107 154.462 26.0107C154.462 26.0108 154.462 26.0108 154.462 26.0108C154.462 26.0109 154.462 26.0109 154.462 26.0109C154.462 26.011 154.462 26.011 154.462 26.011C154.462 26.0111 154.462 26.0111 154.462 26.0111C154.462 26.0112 154.462 26.0112 154.462 26.0112C154.462 26.0113 154.462 26.0113 154.462 26.0113C154.462 26.0114 154.462 26.0114 154.462 26.0114C154.462 26.0115 154.462 26.0115 154.462 26.0116C154.462 26.0116 154.462 26.0116 154.462 26.0117C154.462 26.0117 154.462 26.0117 154.462 26.0118C154.462 26.0118 154.462 26.0118 154.462 26.0119C154.462 26.0119 154.462 26.0119 154.462 26.012C154.462 26.012 154.462 26.0121 154.462 26.0121C154.462 26.0121 154.462 26.0122 154.462 26.0122C154.462 26.0122 154.462 26.0123 154.462 26.0123C154.462 26.0124 154.462 26.0124 154.462 26.0124C154.462 26.0125 154.462 26.0125 154.462 26.0125C154.462 26.0126 154.462 26.0126 154.462 26.0127C154.462 26.0127 154.462 26.0127 154.462 26.0128C154.462 26.0128 154.462 26.0129 154.462 26.0129C154.462 26.0129 154.462 26.013 154.462 26.013C154.462 26.0131 154.462 26.0131 154.462 26.0131C154.462 26.0132 154.462 26.0132 154.462 26.0132C154.462 26.0133 154.462 26.0133 154.462 26.0134C154.462 26.0134 154.462 26.0135 154.462 26.0135C154.462 26.0135 154.462 26.0136 154.462 26.0136C154.462 26.0137 154.462 26.0137 154.462 26.0137C154.462 26.0138 154.462 26.0138 154.462 26.0139C154.462 26.0139 154.462 26.0139 154.462 26.014C154.462 26.014 154.462 26.0141 154.462 26.0141C154.462 26.0142 154.462 26.0142 154.462 26.0142C154.462 26.0143 154.462 26.0143 154.462 26.0144C154.462 26.0144 154.462 26.0145 154.462 26.0145C154.462 26.0145 154.462 26.0146 154.462 26.0146C154.462 26.0147 154.462 26.0147 154.462 26.0148C154.462 26.0148 154.462 26.0148 154.462 26.0149C154.462 26.0149 154.462 26.015 154.462 26.015C154.462 26.0151 154.462 26.0151 154.462 26.0152C154.462 26.0152 154.462 26.0152 154.462 26.0153C154.462 26.0153 154.462 26.0154 154.462 26.0154C154.462 26.0155 154.462 26.0155 154.462 26.0156C154.462 26.0156 154.462 26.0157 154.462 26.0157C154.462 26.0158 154.462 26.0158 154.462 26.0158C154.462 26.0159 154.462 26.0159 154.462 26.016C154.462 26.016 154.462 26.0161 154.462 26.0161C154.462 26.0162 154.462 26.0162 154.462 26.0163C154.462 26.0163 154.462 26.0164 154.462 26.0164C154.462 26.0165 154.462 26.0165 154.462 26.0166C154.462 26.0166 154.462 26.0167 154.462 26.0167C154.462 26.0167 154.462 26.0168 154.462 26.0168C154.462 26.0169 154.462 26.0169 154.462 26.017C154.462 26.017 154.462 26.0171 154.462 26.0171C154.462 26.0172 154.462 26.0172 154.462 26.0173C154.462 26.0173 154.462 26.0174 154.462 26.0174C154.462 26.0175 154.462 26.0175 154.462 26.0176C154.462 26.0176 154.462 26.0177 154.462 26.0177C154.462 26.0178 154.462 26.0178 154.462 26.0179C154.462 26.018 154.462 26.018 154.462 26.0181C154.462 26.0181 154.462 26.0182 154.462 26.0182C154.462 26.0183 154.462 26.0183 154.462 26.0184C154.462 26.0184 154.462 26.0185 154.462 26.0185C154.462 26.0186 154.462 26.0186 154.462 26.0187C154.462 26.0187 154.462 26.0188 154.462 26.0188C154.462 26.0189 154.462 26.019 154.462 26.019C154.462 26.0191 154.462 26.0191 154.462 26.0192C154.462 26.0192 154.462 26.0193 154.462 26.0193C154.462 26.0194 154.462 26.0194 154.462 26.0195C154.462 26.0196 154.462 26.0196 154.462 26.0197C154.462 26.0197 154.462 26.0198 154.462 26.0198C154.462 26.0199 154.462 26.0199 154.462 26.02C154.462 26.0201 154.462 26.0201 154.462 26.0202C154.462 26.0202 154.462 26.0203 154.462 26.0203C154.462 26.0204 154.462 26.0204 154.462 26.0205C154.462 26.0206 154.462 26.0206 154.462 26.0207C154.462 26.0207 154.462 26.0208 154.462 26.0209C154.462 26.0209 154.462 26.021 154.462 26.021C154.462 26.0211 154.462 26.0211 154.462 26.0212C154.462 26.0213 154.462 26.0213 154.462 26.0214C154.462 26.0214 154.462 26.0215 154.462 26.0216C154.462 26.0216 154.462 26.0217 154.462 26.0217C154.462 26.0218 154.462 26.0219 154.462 26.0219C154.462 26.022 154.462 26.022 154.462 26.0221C154.462 26.0222 154.462 26.0222 154.462 26.0223C154.462 26.0223 154.462 26.0224 154.462 26.0225C154.462 26.0225 154.462 26.0226 154.462 26.0226C154.462 26.0227 154.462 26.0228 154.462 26.0228C154.462 26.0229 154.462 26.023 154.462 26.023C154.462 26.0231 154.462 26.0231 154.462 26.0232C154.462 26.0233 154.462 26.0233 154.462 26.0234C154.462 26.0235 154.462 26.0235 154.462 26.0236C154.462 26.0237 154.462 26.0237 154.462 26.0238C154.462 26.0238 154.462 26.0239 154.462 26.024C154.462 26.024 154.462 26.0241 154.462 26.0242C154.462 26.0242 154.462 26.0243 154.462 26.0244C154.462 26.0244 154.462 26.0245 154.462 26.0246C154.462 26.0246 154.462 26.0247 154.462 26.0248C154.462 26.0248 154.462 26.0249 154.462 26.025C154.462 26.025 154.462 26.0251 154.462 26.0252C154.462 26.0252 154.462 26.0253 154.462 26.0254C154.462 26.0254 154.462 26.0255 154.462 26.0256C154.462 26.0256 154.462 26.0257 154.462 26.0258C154.462 26.0258 154.462 26.0259 154.462 26.026C154.462 26.026 154.462 26.0261 154.462 26.0262C154.462 26.0262 154.462 26.0263 154.462 26.0264C154.462 26.0265 154.462 26.0265 154.462 26.0266C154.462 26.0267 154.462 26.0267 154.462 26.0268C154.462 26.0269 154.462 26.0269 154.462 26.027C154.462 26.0271 154.462 26.0272 154.462 26.0272C154.462 26.0273 154.462 26.0274 154.462 26.0274C154.462 26.0275 154.462 26.0276 154.462 26.0277C154.462 26.0277 154.462 26.0278 154.462 26.0279C154.462 26.0279 154.462 26.028 154.462 26.0281C154.462 26.0282 154.462 26.0282 154.462 26.0283C154.462 26.0284 154.462 26.0285 154.462 26.0285C154.462 26.0286 154.462 26.0287 154.462 26.0287C154.462 26.0288 154.462 26.0289 154.462 26.029C154.462 26.029 154.462 26.0291 154.462 26.0292C154.462 26.0293 154.462 26.0293 154.462 26.0294C154.462 26.0295 154.462 26.0296 154.462 26.0296C154.462 26.0297 154.462 26.0298 154.462 26.0299C154.462 26.0299 154.462 26.03 154.462 26.0301C154.462 26.0302 154.462 26.0303 154.462 26.0303C154.462 26.0304 154.462 26.0305 154.462 26.0306C154.462 26.0306 154.462 26.0307 154.462 26.0308C154.462 26.0309 154.462 26.031 154.462 26.031C154.462 26.0311 154.462 26.0312 154.462 26.0313C154.462 26.0313 154.462 26.0314 154.462 26.0315C154.462 26.0316 154.462 26.0317 154.462 26.0317C154.462 26.0318 154.462 26.0319 154.462 26.032C154.462 26.0321 154.462 26.0321 154.462 26.0322C154.462 26.0323 154.462 26.0324 154.462 26.0325C154.462 26.0325 154.462 26.0326 154.462 26.0327C154.462 26.0328 154.462 26.0329 154.462 26.033C154.462 26.033 154.462 26.0331 154.462 26.0332C154.462 26.0333 154.462 26.0334 154.462 26.0334C154.462 26.0335 154.462 26.0336 154.462 26.0337C154.462 26.0338 154.462 26.0339 154.462 26.0339C154.462 26.034 154.462 26.0341 154.462 26.0342C154.462 26.0343 154.462 26.0344 154.462 26.0345C154.462 26.0345 154.462 26.0346 154.462 26.0347C154.462 26.0348 154.462 26.0349 154.462 26.035C154.462 26.035 154.462 26.0351 154.462 26.0352C154.462 26.0353 154.462 26.0354 154.462 26.0355C154.462 26.0356 154.462 26.0356 154.462 26.0357C154.462 26.0358 154.462 26.0359 154.462 26.036C154.462 26.0361 154.462 26.0362 154.462 26.0363C154.462 26.0363 154.462 26.0364 154.462 26.0365C154.462 26.0366 154.462 26.0367 154.462 26.0368C154.462 26.0369 154.462 26.037 154.462 26.0371C154.462 26.0371 154.462 26.0372 154.462 26.0373C154.462 26.0374 154.462 26.0375 154.462 26.0376C154.462 26.0377 154.462 26.0378 154.462 26.0379C154.462 26.038 154.462 26.038 154.462 26.0381C154.462 26.0382 154.462 26.0383 154.462 26.0384C154.462 26.0385 154.462 26.0386 154.462 26.0387C154.462 26.0388 154.462 26.0389 154.462 26.039C154.462 26.0391 154.462 26.0391 154.462 26.0392C154.462 26.0393 154.462 26.0394 154.462 26.0395C154.462 26.0396 154.462 26.0397 154.462 26.0398C154.462 26.0399 154.462 26.04 154.462 26.0401C154.462 26.0402 154.462 26.0403 154.462 26.0404C154.462 26.0405 154.462 26.0406 154.462 26.0407C154.462 26.0407 154.462 26.0408 154.462 26.0409C154.462 26.041 154.462 26.0411 154.462 26.0412C154.462 26.0413 154.462 26.0414 154.462 26.0415C154.462 26.0416 154.462 26.0417 154.462 26.0418C154.462 26.0419 154.462 26.042 154.462 26.0421C154.462 26.0422 154.462 26.0423 154.462 26.0424C154.462 26.0425 154.462 26.0426 154.462 26.0427C154.462 26.0428 154.462 26.0429 154.462 26.043C154.462 26.0431 154.462 26.0432 154.462 26.0433C154.462 26.0434 154.462 26.0435 154.462 26.0436C154.462 26.0437 154.462 26.0438 154.462 26.0439C154.462 26.044 154.462 26.0441 154.462 26.0442C154.462 26.0443 154.462 26.0444 154.462 26.0445C154.462 26.0446 154.462 26.0447 154.462 26.0448C154.462 26.0449 154.462 26.045 154.462 26.0451C154.462 26.0452 154.462 26.0453 154.462 26.0454C154.462 26.0455 154.462 26.0456 154.462 26.0457C154.462 26.0458 154.462 26.0459 154.462 26.046C154.462 26.0461 154.462 26.0462 154.462 26.0464C154.462 26.0465 154.462 26.0466 154.462 26.0467C154.462 26.0468 154.462 26.0469 154.462 26.047C154.462 26.0471 154.462 26.0472 154.462 26.0473C154.462 26.0474 154.462 26.0475 154.462 26.0476C154.462 26.0477 154.462 26.0478 154.462 26.0479C154.462 26.048 154.462 26.0482 154.462 26.0483C154.462 26.0484 154.462 26.0485 154.462 26.0486C154.462 26.0487 154.462 26.0488 154.462 26.0489C154.462 26.049 154.462 26.0491 154.462 26.0492C154.462 26.0493 154.462 26.0495 154.462 26.0496C154.462 26.0497 154.462 26.0498 154.462 26.0499C154.462 26.05 154.462 26.0501 154.462 26.0502C154.462 26.0503 154.462 26.0505 154.462 26.0506C154.462 26.0507 154.462 26.0508 154.462 26.0509C154.462 26.051 154.462 26.0511 154.462 26.0512C154.462 26.0513 154.462 26.0515 154.462 26.0516C154.462 26.0517 154.462 26.0518 154.462 26.0519C154.462 26.052 154.462 26.0521 154.462 26.0523C154.462 26.0524 154.462 26.0525 154.462 26.0526C154.462 26.0527 154.462 26.0528 154.462 26.0529C154.462 26.0531 154.462 26.0532 154.462 26.0533C154.462 26.0534 154.462 26.0535 154.462 26.0536C154.462 26.0538 154.462 26.0539 154.462 26.054C154.462 26.0541 154.462 26.0542 154.462 26.0543C154.462 26.0545 154.462 26.0546 154.462 26.0547C154.462 26.0548 154.462 26.0549 154.462 26.055C154.462 26.0552 154.462 26.0553 154.462 26.0554C154.462 26.0555 154.462 26.0556 154.462 26.0558C154.462 26.0559 154.462 26.056 154.462 26.0561C154.462 26.0562 154.462 26.0564 154.462 26.0565C154.462 26.0566 154.462 26.0567 154.462 26.0568C154.462 26.057 154.462 26.0571 154.462 26.0572C154.462 26.0573 154.462 26.0574 154.462 26.0576C154.462 26.0577 154.462 26.0578 154.462 26.0579C154.462 26.0581 154.462 26.0582 154.462 26.0583C154.462 26.0584 154.462 26.0585 154.462 26.0587C154.462 26.0588 154.462 26.0589 154.462 26.059C154.462 26.0592 154.462 26.0593 154.462 26.0594C154.462 26.0595 154.462 26.0597 154.462 26.0598C154.462 26.0599 154.462 26.06 154.462 26.0602C154.462 26.0603 154.462 26.0604 154.462 26.0605C154.462 26.0607 154.462 26.0608 154.462 26.0609C154.462 26.0611 154.462 26.0612 154.462 26.0613C154.462 26.0614 154.462 26.0616 154.462 26.0617C154.462 26.0618 154.462 26.062 154.462 26.0621C154.462 26.0622 154.462 26.0623 154.462 26.0625C154.462 26.0626 154.462 26.0627 154.462 26.0629C154.462 26.063 154.462 26.0631 154.462 26.0632C154.462 26.0634 154.462 26.0635 154.462 26.0636C154.462 26.0638 154.462 26.0639 154.462 26.064C154.462 26.0642 154.462 26.0643 154.462 26.0644C154.462 26.0646 154.462 26.0647 154.462 26.0648C154.462 26.065 154.462 26.0651 154.462 26.0652C154.462 26.0654 154.462 26.0655 154.462 26.0656C154.462 26.0658 154.462 26.0659 154.462 26.066C154.462 26.0662 154.462 26.0663 154.462 26.0664C154.462 26.0666 154.462 26.0667 154.462 26.0668C154.462 26.067 154.462 26.0671 154.462 26.0672C154.462 26.0674 154.462 26.0675 154.462 26.0677C154.462 26.0678 154.462 26.0679 154.462 26.0681C154.462 26.0682 154.462 26.0683 154.462 26.0685C154.462 26.0686 154.462 26.0688 154.462 26.0689C154.462 26.069 154.462 26.0692 154.462 26.0693C154.462 26.0694 154.462 26.0696 154.462 26.0697C154.462 26.0699 154.462 26.07 154.462 26.0701C154.462 26.0703 154.462 26.0704 154.462 26.0706C154.462 26.0707 154.462 26.0708 154.462 26.071C154.462 26.0711 154.462 26.0713 154.462 26.0714C154.462 26.0716 154.462 26.0717 154.462 26.0718C154.462 26.072 154.462 26.0721 154.462 26.0723C154.462 26.0724 154.462 26.0726 154.462 26.0727C154.462 26.0728 154.462 26.073 154.462 26.0731C154.462 26.0733 154.462 26.0734 154.462 26.0736C154.462 26.0737 154.462 26.0739 154.462 26.074C154.462 26.0741 154.462 26.0743 154.462 26.0744C154.462 26.0746 154.462 26.0747 154.462 26.0749C154.462 26.075 154.462 26.0752 154.462 26.0753C154.462 26.0755 154.462 26.0756 154.462 26.0758C154.462 26.0759 154.462 26.0761 154.462 26.0762C154.462 26.0764 154.462 26.0765 154.462 26.0767C154.462 26.0768 154.462 26.0769 154.462 26.0771C154.462 26.0772 154.462 26.0774 154.462 26.0775C154.462 26.0777 154.462 26.0779 154.462 26.078C154.462 26.0782 154.462 26.0783 154.462 26.0785C154.462 26.0786 154.462 26.0788 154.462 26.0789C154.462 26.0791 154.462 26.0792 154.462 26.0794C154.462 26.0795 154.462 26.0797 154.462 26.0798C154.462 26.08 154.462 26.0801 154.462 26.0803C154.462 26.0804 154.462 26.0806 154.462 26.0808C154.462 26.0809 154.462 26.0811 154.462 26.0812C154.462 26.0814 154.462 26.0815 154.462 26.0817C154.462 26.0818 154.462 26.082 154.462 26.0821C154.462 26.0823 154.462 26.0825 154.462 26.0826C154.462 26.0828 154.462 26.0829 154.462 26.0831C154.462 26.0832 154.462 26.0834 154.462 26.0836C154.462 26.0837 154.462 26.0839 154.462 26.084C154.462 26.0842 154.462 26.0844 154.462 26.0845C154.462 26.0847 154.462 26.0848 154.462 26.085H158.762ZM154.992 24.5893C153.038 26.8281 150.436 29.5893 147.583 31.3765C144.736 33.1602 142.087 33.7169 139.638 32.4556L137.669 36.2784C142.067 38.5431 146.43 37.1728 149.866 35.0205C153.296 32.8717 156.25 29.6879 158.232 27.4167L154.992 24.5893ZM139.581 32.4274C138.135 31.7355 137.076 29.9905 136.424 27.2741C135.792 24.6444 135.678 21.6762 135.637 19.364L131.338 19.44C131.379 21.7608 131.491 25.1476 132.243 28.2784C132.974 31.3225 134.458 34.7435 137.726 36.3066L139.581 32.4274ZM135.628 19.1932C135.584 18.7492 135.724 18.4476 136.093 18.151C136.534 17.7969 137.279 17.5069 138.171 17.4348C139.066 17.3624 139.836 17.5314 140.295 17.7867C140.678 17.9998 140.727 18.1734 140.727 18.377H145.027C145.027 16.3051 143.84 14.8387 142.386 14.0293C141.008 13.2622 139.338 13.0263 137.825 13.1487C136.307 13.2714 134.675 13.7757 133.401 14.7977C132.057 15.8771 131.145 17.5333 131.348 19.6108L135.628 19.1932ZM140.727 18.377C140.727 18.3591 140.727 18.3746 140.722 18.4756C140.718 18.5656 140.713 18.6678 140.706 18.8167C140.692 19.1019 140.674 19.4879 140.661 19.9614C140.634 20.9084 140.624 22.1992 140.688 23.7543L144.984 23.5777C144.861 20.5879 145.027 18.9814 145.027 18.377H140.727ZM140.688 23.7577C140.754 25.3199 140.969 26.6634 141.375 27.7579C141.782 28.855 142.448 29.8701 143.518 30.4735C144.618 31.0933 145.788 31.0806 146.78 30.8138C147.741 30.5555 148.642 30.0371 149.438 29.4531C152.541 27.1754 155.797 22.563 157.519 19.0326L153.654 17.1474C152.097 20.341 149.223 24.2771 146.894 25.9866C146.331 26.3994 145.918 26.5928 145.663 26.6613C145.44 26.7214 145.494 26.6508 145.63 26.728C145.738 26.7888 145.597 26.7766 145.406 26.262C145.214 25.7449 145.04 24.8923 144.984 23.5743L140.688 23.7577Z" fill="black" mask="url(#path-3-outside-2_71_24)"/>
</g>
<defs>
<clipPath id="clip0_71_24">
<rect width="176" height="56" fill="white"/>
</clipPath>
</defs>
</svg>
